<?xml version="1.0" encoding="UTF-8"?>
<svg id="Livello_2" data-name="Livello 2" xmlns="http://www.w3.org/2000/svg" viewBox="0 0 472.7 254.9">
  <g id="Layer_1" data-name="Layer 1">
    <path d="m125.69,98.65c-2,14.1-3.36,28.26-4.07,42.48-.31,6.23,8.51,3.61,8.75-1.25.71-14.22,2.07-28.39,4.07-42.48.87-6.16-8.07-3.53-8.75,1.25h0Z"/>
    <path d="m110.04,82.98c24.48-18.83,53.7-30.71,84.41-34.16,7.96-.89,15.98-1.23,23.99-.93,6.86.26,14.79.8,20.15,5.62,11.73,10.54,1.41,29.7-5.24,39.99-8.5,13.17-19.59,24.43-30.74,35.35-12.07,11.83-24.66,23.12-37.67,33.9-25.13,20.83-51.81,40.48-80.22,56.63-13.97,7.94-28.57,14.86-43.78,20.09-7.3,2.51-14.88,5-22.52,6.23-2.66.43-6.74.9-8.69-1.52-2.53-3.13.23-9.22,1.77-12.3,3.6-7.21,9.57-13.18,15.1-18.93s11.1-11.11,16.94-16.36c12.01-10.81,24.79-20.72,38.01-30,53.32-37.42,112.68-67.33,172.61-92.56,61.25-25.78,124.85-46.01,189.77-60.21,7.98-1.75,15.98-3.39,23.99-4.96,4.68-.92,7.33-9.94,1.25-8.75-70.74,13.87-140.11,34.59-206.81,61.95-33.13,13.59-65.58,28.82-97.24,45.56-31.34,16.56-62.28,34.33-91.1,55.02-14.07,10.1-27.63,20.96-40.3,32.78-11.48,10.71-25.35,22.83-31.37,37.7-2.44,6.03-4.37,14.65,1.6,19.26,5.46,4.21,13.37,2.19,19.42.7,16.68-4.12,32.73-10.29,48.11-17.94,31.41-15.62,60.33-36.29,87.71-58.11,14.29-11.38,28.15-23.3,41.42-35.85,12.58-11.9,25.12-24.19,35.4-38.18,8.62-11.73,17.41-26.43,16.42-41.55-1.1-16.6-16.18-21.79-30.56-22.34-32.79-1.26-65.57,6.96-94.14,23-7.31,4.1-14.27,8.76-20.92,13.87-1.75,1.35-3.65,3.88-2.5,6.2,1.05,2.12,4.02,2.11,5.73.79h0Z"/>
    <path d="m339.39,59.72c-.58,9.3-2.02,18.5-4.53,27.48-1.75,6.27,6.74,6.05,8.15,1.01,2.72-9.76,4.5-19.63,5.13-29.74.39-6.22-8.45-3.61-8.75,1.25h0Z"/>
  </g>
</svg>