<?xml version="1.0" encoding="UTF-8"?>
<svg id="Layer_2" data-name="Layer 2" xmlns="http://www.w3.org/2000/svg" viewBox="0 0 12.38 14.41">
  <g id="Layer_30" data-name="Layer 30">
    <g>
      <path d="M2.56,3.56c-2.38,3.12-.4,8.45,3.44,9.26,3.02-1.78,5.61-5.13,4.86-8.56S4.56-.73,3.06,2.44" style="fill: #eaeaea; stroke-width: 0px;"/>
      <g>
        <path d="M2.46,2.16c.07.05.25.13.24.07l-.28-.18.03.12Z" style="fill: #202020; stroke-width: 0px;"/>
        <path d="M3.18,2.15c-.11-.13-.31-.35-.58-.48.23.23.11.17.4.42,0,.06-.14.02-.24-.04.07.06-.11.04.06.16.26.06.31,0,.17-.18.07.02.14.08.19.12Z" style="fill: #202020; stroke-width: 0px;"/>
        <path d="M7.14,1.33l-.02-.04s0,.04.02.04Z" style="fill: #202020; stroke-width: 0px;"/>
        <path d="M9.24,2.69s-.05.01-.07.03c.03,0,.05,0,.07-.03Z" style="fill: #202020; stroke-width: 0px;"/>
        <path d="M9.25,3.23s0-.02,0-.03c-.02.03-.03.04,0,.03Z" style="fill: #202020; stroke-width: 0px;"/>
        <path d="M7.14,1.33l.04.12c.03-.1-.01-.09-.04-.12Z" style="fill: #202020; stroke-width: 0px;"/>
        <path d="M2.98,1.09s0,.06.03.1c0-.02,0-.04,0-.06l-.04-.04Z" style="fill: #202020; stroke-width: 0px;"/>
        <path d="M6.02,1.45h-.02s0,.08-.01.13l.03-.13Z" style="fill: #202020; stroke-width: 0px;"/>
        <path d="M5.26,1.6s-.04-.27-.06-.39c.02.12.02.17,0,.2.01.05.03.11.06.19Z" style="fill: #202020; stroke-width: 0px;"/>
        <path d="M3.94,1.74v.05s0-.03,0-.05Z" style="fill: #202020; stroke-width: 0px;"/>
        <path d="M6.59,1.56s0,.08,0,.1c0-.03,0-.07,0-.1Z" style="fill: #202020; stroke-width: 0px;"/>
        <path d="M.81,3.98s.03.01.05.02c-.02-.02-.04-.03-.05-.02Z" style="fill: #202020; stroke-width: 0px;"/>
        <polygon points="2.62 3.61 2.63 3.63 2.75 3.73 2.62 3.61" style="fill: #202020; stroke-width: 0px;"/>
        <path d="M9.29,3.95h0s-.03,0,0,0Z" style="fill: #202020; stroke-width: 0px;"/>
        <path d="M7.82,9.9c.24.11.14.32.43.42-.09-.07-.25-.38-.43-.42Z" style="fill: #202020; stroke-width: 0px;"/>
        <path d="M3.03,1.09s.02-.03.03-.04c-.02.01-.03.02-.03.04Z" style="fill: #202020; stroke-width: 0px;"/>
        <path d="M8.25,10.32h0s.03,0,.03,0c-.01,0-.02,0-.03,0Z" style="fill: #202020; stroke-width: 0px;"/>
        <path d="M9.79,5.31s.09-.01.12-.02c-.03,0-.06,0-.12.02Z" style="fill: #202020; stroke-width: 0px;"/>
        <path d="M9.97,4.06l-.03.04s.03-.03.03-.04Z" style="fill: #202020; stroke-width: 0px;"/>
        <path d="M10.17,5.97s-.06.02-.03.05c.01,0,.02,0,.03,0-.04-.01-.05-.03,0-.04Z" style="fill: #202020; stroke-width: 0px;"/>
        <path d="M10.05,6.67s.04,0,.06,0v-.03s-.06.03-.06.03Z" style="fill: #202020; stroke-width: 0px;"/>
        <path d="M.35,6.97c.08-.02.17-.04.25-.05-.2.02-.27-.12-.25.05Z" style="fill: #202020; stroke-width: 0px;"/>
        <path d="M3.1,1.2c-.05-.05-.07-.08-.07-.11v.04s.04.06.07.07Z" style="fill: #202020; stroke-width: 0px;"/>
        <path d="M12.37,6.23c-.02.05-.03.1-.06.15.04-.04.05-.1.06-.15Z" style="fill: #202020; stroke-width: 0px;"/>
        <path d="M3.45,12.91h-.05s.02.02.05,0Z" style="fill: #202020; stroke-width: 0px;"/>
        <path d="M12.28,6.85c-.1,0-.16.03-.21.05.02.01.04.02.07.03l.14-.08Z" style="fill: #202020; stroke-width: 0px;"/>
        <path d="M.61,6.92h0s0,0,0,0Z" style="fill: #202020; stroke-width: 0px;"/>
        <path d="M0,5.85c-.03.16.35.11.55.17.08.18-.28.05-.48.1.09.13.43.23.41.31-.06,0-.08.02-.16,0,.29.13,0,.35.37.48-.03.01-.06.02-.09.02.19-.02.37-.03.51-.03,0,.06.24.1,0,.13,0-.04-.09-.04-.17-.05l.11.06c-.34.07-.13-.08-.38-.08.12.13.42.25.33.35-.34.05-.13-.22-.42-.07l.12-.16c-.53.14.03-.1-.53.04-.08.22.19.23.11.45.19.03.28-.04.47-.02.36.23-.83.34-.34.49.23.02.66-.04.47.15l-.39.02c0,.21.56,0,.35.25-.15,0-.15-.12-.19-.08-.27.2.23.05.25.14l-.33.1c.11.2.42.35.54.54-.1.02-.21.02-.29.1.24.23.2.59.13.96l.31-.03s-.1.1-.16.1c-.05.15.17-.08.3-.08.05.04-.11.15-.21.15.32.07.74.22.58.56h-.09c0,.22.6-.17.46.1h-.06c.09.37.53.49.39.97.34-.25.11.39.54-.01-.06.34-.17.38-.07.72.04.07.33-.21.43-.2l-.19.24.3-.17-.17.34h.12s.02-.16.08-.23c.19-.04.16.36.08.5l.42-.04c-.07.1-.14.11-.22.15.32-.17-.14.3.15.14.02-.07.1-.15.14-.21-.03.21.16.29.32.28l-.12.18c.19.15.59.18,1.01.28-.13-.14,0-.49.09-.5v.34c.09-.18-.1-.15.07-.36.12.07.05.4-.05.48l.19-.06c0,.1-.04.14-.06.26.08-.19.32.43.43.1l.02.11c.11.03.2.05.28.06.07-.06.13-.11.19-.17.12-.11.22-.21.37-.31-.09-.27.04-.28.02-.54.2-.01.59-.01.7-.12.02-.19-.11-.22-.16-.38.16.2.29.08.32.28.15-.16.2-.21.28-.54-.09-.06-.14-.08-.18-.16.01-.06.15.02.22.12v.03c0-.47,1.04.11.87-.46v.03s0-.38,0-.38c.11-.05.08.19.25.24-.1-.5.36-.27.31-.63.67.37.39-.5.9-.38l-.15-.1c-.1-.16.13,0,.19,0-.11-.08-.17-.05-.22-.14.16-.54.87-.72,1.29-1.16.15-.16-.75-.54-.25-.57l.26.22c-.17-.55.39-.77.22-1.29.06.05.16.08.14.12.26,0,.13-.3-.06-.36.04-.05.17.04.28.03.16-.05-.23-.3,0-.28.04,0,.07.05.08.07-.1-.09.1-.26-.18-.27.17-.12-.04-.31.14-.4-.29-.14.19-.24-.23-.34.44.08.41-.22.2-.34.13.05.15-.07.33-.01,0-.12-.07-.23-.31-.23.55-.19-.4-.43.28-.54-.26-.35-.42-.64-.59-.91.45-.05.1.32.56.26-.23-.28-.64-.37-.57-.66.05-.08.2,0,.28.01-.23-.24-.13-.6-.44-.77.04-.01.09,0,.13.01-.03-.05.02-.15-.17-.06l.07.03c-.25.18-.65.05-.8.12.57-.17.03-.28.76-.48-.05-.02-.16-.01-.28.06.01-.06.08-.11.24-.14-.19-.12-.35.04-.42-.11.09-.05.14-.04.25-.08-.21.02-.4.04-.42-.11.05-.03.11-.08.13-.05-.17-.19-.65-.02-.65-.33.38-.22.06-.16.32-.41l-.18-.03-.1.16c-.08-.09-.35.02-.33-.13l.17-.05-.21-.11v.19c-.23.06-.33.35-.36.17.04,0-.07-.08.03-.28h0c-.12.05-.24.12-.25,0,.06-.11.27-.31.31-.38-.24.21-.27-.1-.52.12.06-.05.18-.21.2-.24l-.19.18c0-.1.02-.14.12-.26-.1-.13-.23.41-.27.15.02,0,.04-.04.09-.06-.1-.19-.39-.05-.47-.24.14-.36.18,0,.28-.31-.26-.09-.68.16-.85-.02l.02.06c-.23.48-.06-.32-.27-.13.04-.03.14-.26.11-.21-.13-.13-.38.02-.65.1l.07-.12c-.06-.15-.23-.13-.33-.21-.06.13-.11.09-.12.3-.08-.41-.27-.34-.43-.24-.17.11-.31.24-.44-.09.03,0,.09-.11.06-.12l-.26.11c.02.23.03.14.08.32-.03.14-.09.23-.15.24.1-.16,0-.37-.06-.5.01.07,0,.15,0,.22-.14-.4,0,.47-.18.2v-.12c-.06.07-.1.23-.17.2-.06-.26.05-.13.03-.35-.1.03-.12.51-.24.27.03-.09.09-.09.12-.17-.14-.3-.14-.22-.23-.25h0s-.2-.09-.2-.09l.06.07c.03.71-.23.19-.26.66.02-.45-.05-.25-.13-.54-.07-.07-.17-.14-.18-.22,0,.26-.21-.12-.2.26-.04-.09-.09.03-.17-.2-.08.12.1.14.13.26,0,.36-.58-.19-.56.36-.07.28.1.55.08.78-.14-.07-.2-.3-.2-.3-.17-.04-.21.04-.19.19-.05-.07-.11-.11-.21-.16-.04.08.22.28.05.26-.07-.08-.18-.22-.23-.32,0,.14.07.32.07.45-.15-.08-.16-.2-.22-.3-.03.13-.06.34.15.51h.11s-.2-.12-.22-.17c-.12-.21.15-.06.23,0,0,.03,0,.06.01.09.48.29.09-.24.22-.33l.27.32c-.06-.11-.11-.22-.16-.33.1.06.27.21.27.3.2.09-.05-.16.15-.04.03.02.04.04.05.06l-.03-.15c.05.08.2.21.13.2.25.11-.02-.37.21-.15v.03c.08-.22-.16-.26-.22-.65.16.19.32.39.47.59l-.14-.28s.07,0,.12.11c-.03-.21-.07-.11-.13-.3.21.21.21-.23.41.21-.05-.23-.15-.13-.12-.32.22.48.08-.14.25.06.05.26-.05.16.09.35-.09-.45.18.06.22-.04-.08-.35.11-.18.21-.33.01.11.26.18.37.3v.06c0-.37.12-.31.2-.39,0,.22-.02.31-.05.41h.07c.02-.12.04-.18.09-.22l-.02.27c.09,0,.22-.31.33-.12.04-.25-.06-.72.12-.88,0,.14-.03.37-.07.43.01-.02.06-.11.08-.05l-.08.23c.05.11.05-.19.1-.17-.02.2.02.14,0,.3-.01.02-.03-.08-.06,0,.05.03.1.16.1.32.01-.11.04-.26.08-.28.11,0,0,.24.04.35.05-.13.08.02.14-.27.03,0,0,.14,0,.22.08-.12.25,0,.26-.31v-.02s0-.01,0-.01h0s0,0,0,0c.26-.23.32.28.53.21l-.03.09c.14-.08.24.03.4-.13.03.01,0,.2-.06.3.1-.03.16-.13.2.06-.15.12-.04.15-.13.08.06.12,0,.26.23.08-.15.2-.09.32-.01.28l.03-.19c.06,0,.1.04.13.08l-.19.27c-.06.43.7-.39.42.27.18-.15.01-.2.21-.39.05.1-.17.53-.15.55-.03.21.41-.31.42-.12.07-.1.27-.35.42-.35.05.11-.26.44-.37.47-.02,0,0-.04.02-.07-.05,0-.11.02-.18.14l.09-.08c-.05.12.04.2-.12.31.13-.03.16-.11.17-.19-.04.2.12.13.12.29.04-.06.13-.16.14-.14,0,.23.22-.08.33-.01-.1.17-.36.24-.17.25-.06.13-.25.19-.34.23.24-.05-.02.23-.02.29h-.11c.06,0,.08.02.09.05l.19-.15s-.01.07-.1.12c.15-.05.33-.22.54-.27-.09.1.18.06-.1.22.04-.17-.27.16-.36.09.04,0,.05.02.03.06-.03.02-.06.03-.08.03-.2.22.34-.12.39,0-.17.06-.29.16-.25.16-.02-.04.26-.14.41-.15-.1.13.12.05.12.1l.05-.07c.17-.05.16,0,.23.05-.13.05-.11-.02-.16.02.32-.03-.26.24-.03.27-.1.07-.32.09-.39.14.26.03-.21.15,0,.21.23-.07.17-.07.41-.03l-.19-.16.36.05c0-.06-.16-.1-.14-.13.21.01.14.02.33-.05-.34.16.23.13,0,.27l-.58.09c-.25.17.35.19.21.39l.1-.07c.23,0,.04.11.13.16-.2,0-.27.05-.39.07.15,0,0,.12.39.14l-.26.08c-.11.14.55.18.48.33-.21-.06-.36,0-.5-.11,0,.05-.04.08.09.09-.12.02.26.15.07.18.08.03.29.06.27.11-.04,0-.1-.01-.1-.01.1.01.12.1.34.08-.64.07-.03.45-.58.48.04.12.06.26.05.36-.06-.02-.09-.03-.07-.04-.21.08.52.25.28.34-.33-.02-.14-.13-.27-.12-.62-.18.02.2-.38.17l-.03-.04c-.23,0,.16.26.07.37,0,0-.05-.03-.09-.04.27.21.29.42.32.58-.21-.15-.1-.11-.34-.2,0,.07.38.16.39.3-.14-.03-.29,0-.53-.12l.03-.1c-.34-.11-.05.13-.13.15l-.13-.08c-.03.16.31.36.19.5l.11.04c.28.29-.23-.04-.03.2l-.35-.18c.05.1.19.39.19.54-.2-.22-.25-.42-.35-.58-.04.05-.09.19.05.33-.02-.04-.08-.12-.02-.11.22.23.28.41.2.52-.6-.46-.36.16-.89-.13.09.35-.36.26-.5.47.5.33-.04.07.42.47-.01.07-.04.08-.07.06l-.39-.12c-.16-.09-.06-.13-.16-.22-.12.06-.22-.14-.4-.2.17.14.19.25.08.24l.27.13c.1.36-.47-.26-.37.1l-.09-.18c.02.15-.25.22,0,.65-.06-.04-.19-.15-.18-.21-.2.09-.05.72-.38.6l-.08-.13c0,.06.11.27-.02.18-.04-.05-.08-.13-.1-.12.01.05.07.28-.03.24l-.06-.16c-.28-.04-.06.54-.11.71-.24-.37-.35-.47-.38-.53l-.02-.06c-.03-.05.05.45-.09.58-.05-.52-.09-.23-.21-.58,0,.08-.15.31-.2.33,0-.1-.26.22-.07-.14h.01c.15-.35.02-.29-.04-.35l-.28.45c.24-.76-.64-.07-.3-.71-.12.07-.17.03-.29.1l.19-.21c-.05-.14-.08-.2-.24-.28l.17-.12c-.04-.08-.67.48-.75.41l.29-.3c-.13-.12.06-.48-.34-.39.05-.03.15-.1.18-.09-.04-.07.06-.4-.41-.06.31-.21-.06-.17-.25-.17l.25-.13c-.35.11-.43.16-.58.1.02-.04.18-.13.14-.06.08-.15-.27.06-.2-.11l.18-.04c-.03-.09-.11-.04-.32,0-.13,0-.01-.21.21-.32-.14.05-.35.08-.31,0,.08-.04.15-.05.18-.05.11-.22-.4-.1-.18-.31.09-.03.13-.06.15-.07.03.12.07.22.04.22.24-.1.24-.2.6-.26-.21.01-.65.02-.57-.11.02-.01.04-.02.08-.04h.03s-.01-.04-.06-.04c.03-.04.06-.07.05-.1.2-.07.08-.14.07-.19-.27.08-.25,0-.45.13.02-.01.04,0,.06.03.01,0,.02.01.03.01h-.02s.04.07.06.12c-.15,0-.28,0-.14-.1-.18.02-.37.04-.46.05.35-.18.53-.36.76-.43-.18-.11-.17-.31-.71-.33-.08-.04.14-.07.22-.1.06.02.06.05.13.05-.16-.07-.08-.25-.45-.23.16-.13.34.03.27-.12h.11c.28-.16.03-.25-.18-.38-.21-.12-.4-.28-.02-.43-.05.02-.07.03-.13.03.16-.19.12-.38.1-.59-.03-.21,0-.42.31-.52.13-.07-.09-.15-.24-.27l.29.08-.29-.23c-.16-.26.8.04.44-.33l-.19-.07c.06-.05,0-.27.2-.14-.03-.02-.17-.12-.06-.1l.14.08-.13-.29c.17-.06.52.35.64.22-.02-.09-.26-.44-.36-.48-.02.02-.12,0-.25-.08l-.03-.11c-.37-.29-.7-.65-1.09-.65l.15.3-.22-.08.06-.12c-.22-.06-.09.09-.01.21-.11-.06-.19-.08-.25-.08l.29.37c-.17-.08-.27-.25-.42-.21.14.17.39.15.44.32-.22-.04-.36-.14-.25.02-.11-.05-.17-.1-.2-.16.08.14-.04.22.16.37-.27-.04-.05.27-.45.08.08.07.26.27.25.34-.43-.32-.14.24-.65.01.42.26.09.42.29.67-.03-.02-.1-.06-.07-.07-.07.08-.21.08-.32.12.38.11.42.27.65.4-.39.04-.44-.16-.8-.2.31.06.28.27.54.28-.24.05-.12.06-.45.05.48.1.07.1.35.22-.26.1-.46-.03-.33.14-.16.05-.31-.1-.31-.1ZM1.19,9.13h0s-.03-.04-.03-.06c0,.01.02.03.04.06ZM1.28,9.39s-.02-.07-.03-.11c.09-.04.19-.07.19-.04-.07,0-.1.09-.16.15ZM2.97,8.29s0,.04-.06.07c0-.01-.02-.03-.05-.04h-.03c.05,0,.1-.01.14-.02Z" style="fill: #202020; stroke-width: 0px;"/>
        <path d="M2.6,8.33s-.02,0-.02,0c-.02.01-.04.03-.05.04h.09s0-.03,0-.03Z" style="fill: #202020; stroke-width: 0px;"/>
        <path d="M7.12,1.28h0s0-.02,0-.03c0,.01,0,.02,0,.03Z" style="fill: #202020; stroke-width: 0px;"/>
        <polygon points="3.11 12.81 3.15 12.76 3.1 12.79 3.11 12.81" style="fill: #202020; stroke-width: 0px;"/>
        <path d="M5.87.18s-.01-.05-.02-.07c0,.02.01.04.02.07Z" style="fill: #202020; stroke-width: 0px;"/>
        <path d="M5.21.18l-.11-.08c.05.05.09.07.11.08Z" style="fill: #202020; stroke-width: 0px;"/>
        <path d="M4.66.17s.02.08.03.12h0s-.03-.12-.03-.12Z" style="fill: #202020; stroke-width: 0px;"/>
        <path d="M11.72,3.37s0,.01.02.02c.07.03.04,0-.02-.02Z" style="fill: #202020; stroke-width: 0px;"/>
        <path d="M9.78,1.74c.05-.02.11-.05.14-.05-.02-.05-.04-.07-.14.05Z" style="fill: #202020; stroke-width: 0px;"/>
        <polygon points="12.38 6.21 12.37 6.21 12.37 6.23 12.38 6.21" style="fill: #202020; stroke-width: 0px;"/>
        <path d="M10,1.77c0-.07-.02-.09-.07-.08.01.04.02.09.07.08Z" style="fill: #202020; stroke-width: 0px;"/>
        <path d="M2.63,1.46l-.02.02s.03.02.04.03v-.05Z" style="fill: #202020; stroke-width: 0px;"/>
        <path d="M2.64,1.51v.04s.02-.02,0-.04Z" style="fill: #202020; stroke-width: 0px;"/>
        <path d="M2.68,1.65l-.03-.09s-.03.04.03.09Z" style="fill: #202020; stroke-width: 0px;"/>
        <path d="M3.23.99l-.06-.08s.03.05.06.08Z" style="fill: #202020; stroke-width: 0px;"/>
        <path d="M3.38.82c-.06,0-.25-.09-.26.02l.05.07c-.08-.15.28.07.21-.09Z" style="fill: #202020; stroke-width: 0px;"/>
        <path d="M4.7,1.48l-.15-.02c.07.09.16.21.12.25.28.23-.14-.2.03-.23Z" style="fill: #202020; stroke-width: 0px;"/>
        <path d="M5.11,1.49c-.05.06.05.15.06.21.01-.1.02-.13-.06-.21Z" style="fill: #202020; stroke-width: 0px;"/>
        <path d="M7.93,1.81l-.11.23c.06-.01.04-.09.11-.23Z" style="fill: #202020; stroke-width: 0px;"/>
        <polygon points="9.12 .94 9.14 .77 9 .96 9.12 .94" style="fill: #202020; stroke-width: 0px;"/>
        <polygon points="8.43 2.66 8.39 2.68 8.51 2.65 8.43 2.66" style="fill: #202020; stroke-width: 0px;"/>
        <path d="M9.84,6.5l.31.05s-.4-.12-.31-.05Z" style="fill: #202020; stroke-width: 0px;"/>
        <path d="M9.34,8.59c-.15-.06-.26-.06-.15.05.04-.03.17-.01.15-.05Z" style="fill: #202020; stroke-width: 0px;"/>
        <polygon points="5.09 11.12 5.18 11.05 5.07 11.09 5.09 11.12" style="fill: #202020; stroke-width: 0px;"/>
      </g>
    </g>
  </g>
</svg>