<?xml version="1.0" encoding="UTF-8"?>
<svg id="Layer_2" data-name="Layer 2" xmlns="http://www.w3.org/2000/svg" viewBox="0 0 15.38 13.21">
  <g id="Layer_30" data-name="Layer 30">
    <g>
      <path d="M5.87,3.87L1.31,5.9c.34,4.19,5.43,7.21,9.27,5.49S15.55,3.86,12.65.82c-1.24,1.03-2.47,2.06-3.71,3.08" style="fill: #eaeaea; stroke-width: 0px;"/>
      <g>
        <path d="M8.52,3.4c.04.08.17.22.19.16l-.18-.28v.12Z" style="fill: #202020; stroke-width: 0px;"/>
        <path d="M9.17,3.65c-.06-.16-.19-.42-.41-.63.16.28.06.19.26.52-.01.06-.14-.03-.21-.12.04.08-.11,0,0,.17.21.16.28.11.22-.11.06.04.1.12.14.17Z" style="fill: #202020; stroke-width: 0px;"/>
        <path d="M12.74,1.74v-.07s0,.05,0,.07Z" style="fill: #202020; stroke-width: 0px;"/>
        <path d="M13.52,4s-.05-.02-.08-.02c.02.01.05.03.08.02Z" style="fill: #202020; stroke-width: 0px;"/>
        <path d="M13.23,4.5s.01-.02.02-.03c-.03.01-.05.03-.02.03Z" style="fill: #202020; stroke-width: 0px;"/>
        <path d="M12.74,1.74v.17c.04-.13,0-.12,0-.17Z" style="fill: #202020; stroke-width: 0px;"/>
        <path d="M9.18,2.61s0,.06.02.1c0-.02,0-.04,0-.05l-.03-.04Z" style="fill: #202020; stroke-width: 0px;"/>
        <path d="M12.11,2.23h-.01c0,.05.01.11.02.16v-.16Z" style="fill: #202020; stroke-width: 0px;"/>
        <path d="M11.66,2.67s-.15-.23-.22-.33c.06.1.09.15.08.18.03.04.08.09.14.15Z" style="fill: #202020; stroke-width: 0px;"/>
        <path d="M10.09,3.33v.05s0-.03,0-.05Z" style="fill: #202020; stroke-width: 0px;"/>
        <path d="M12.41,2.06c0,.06,0,.11-.01.14,0-.05,0-.09.01-.14Z" style="fill: #202020; stroke-width: 0px;"/>
        <path d="M4.24,3.15s.01.03.02.05c0-.03-.01-.05-.02-.05Z" style="fill: #202020; stroke-width: 0px;"/>
        <polygon points="5.9 3.93 5.89 3.95 5.95 4.1 5.9 3.93" style="fill: #202020; stroke-width: 0px;"/>
        <path d="M12.9,5.31h0s-.03-.01,0,0Z" style="fill: #202020; stroke-width: 0px;"/>
        <path d="M9.15,10.62c.13.23-.07.35.11.59-.03-.11.02-.45-.11-.59Z" style="fill: #202020; stroke-width: 0px;"/>
        <path d="M9.23,2.62s.02-.02.03-.03c-.02,0-.03.01-.03.03Z" style="fill: #202020; stroke-width: 0px;"/>
        <path d="M9.26,11.21h0s.02.03.02.03c0-.01-.01-.02-.02-.03Z" style="fill: #202020; stroke-width: 0px;"/>
        <path d="M12.76,7.12s.09.02.12.02c-.03,0-.06-.02-.12-.02Z" style="fill: #202020; stroke-width: 0px;"/>
        <path d="M13.44,5.82l-.04.03s.04-.02.04-.03Z" style="fill: #202020; stroke-width: 0px;"/>
        <path d="M12.86,7.94s-.07,0-.04.04c.01,0,.02,0,.03,0-.03-.02-.04-.04,0-.04Z" style="fill: #202020; stroke-width: 0px;"/>
        <path d="M12.49,8.63s.04.01.06.02v-.03s-.06.01-.06.01Z" style="fill: #202020; stroke-width: 0px;"/>
        <path d="M1.72,4.42c.07.05.13.12.19.19-.12-.16.05-.32-.19-.19Z" style="fill: #202020; stroke-width: 0px;"/>
        <path d="M9.28,2.73c-.04-.06-.06-.09-.06-.11v.03s.04.06.06.08Z" style="fill: #202020; stroke-width: 0px;"/>
        <path d="M14.86,8.91l-.11.13s.08-.08.11-.13Z" style="fill: #202020; stroke-width: 0px;"/>
        <path d="M3.11,11.19h-.05s.02.02.05,0Z" style="fill: #202020; stroke-width: 0px;"/>
        <path d="M14.56,9.5c-.1-.02-.17-.03-.22-.02.02.02.03.03.05.05l.17-.04Z" style="fill: #202020; stroke-width: 0px;"/>
        <path d="M1.91,4.62h0s0,0,0,0Z" style="fill: #202020; stroke-width: 0px;"/>
        <path d="M2.56,3.6c-.13.05.09.36.15.56-.1.16-.18-.22-.3-.37-.05.13.02.47-.06.49-.03-.05-.05-.07-.07-.14.02.31-.25.13-.3.56-.03-.02-.05-.05-.07-.07.12.15.21.31.27.43-.07.04,0,.26-.16.06.05-.01,0-.1-.02-.17l-.02.12c-.27-.26.04-.15-.09-.37-.12.18-.11.49-.29.46-.27-.25.21-.22-.16-.38h.29c-.48-.36.16-.02-.33-.42-.39.07-.25.29-.62.36.09.17.25.19.34.36-.04.4-1.08-.42-.95.03.08.09.22.2.3.28.08.09.04.11-.04.17l-.43-.28c0,.3.62.43.39.61-.17-.11-.17-.28-.21-.25-.29.08.26.23.28.37l-.36-.08c.11.36.41.74.56,1.04-.1-.01-.23-.07-.31.02.14.22.19.44.2.7,0,.27-.01.4-.04.61h.32s-.1.09-.16.09c-.05.16.17-.07.3-.07.05.05-.11.16-.21.15.31.11.76.27.6.63h-.1c0,.23.61-.15.46.13h-.06c.12.37.56.52.43,1.02.35-.25.12.4.56,0-.06.35-.18.4-.09.74.05.07.34-.2.45-.18l-.2.24.31-.16-.18.33h.12s.03-.16.09-.23c.19-.02.14.39.05.52l.44-.02c-.08.1-.15.1-.23.14.33-.16-.15.29.15.14.02-.07.11-.15.15-.2-.03.2.13.31.29.32l-.13.17c.2.18.54.17.79.31-.05-.14.14-.46.22-.45l-.11.31c.13-.16-.02-.15.18-.32.07.08-.09.37-.19.44.05-.01.11-.03.17-.05-.03.09-.08.13-.14.24.13-.16.09.39.3.09l-.03.09c.28.11.44.07.67.12.09-.27.16-.18.29-.38.13.13.26.4.47.43.17-.1.09-.22.19-.37-.05.25.17.26.02.43.26,0,.33,0,.67-.15-.02-.11-.05-.16-.02-.24.06-.03.11.13.09.25l-.02.02c.36-.36.8.8,1.1.25l-.02.03.28-.3c.14.03-.07.2.05.35.28-.45.53.02.74-.33.37.7.71-.2,1.12.14l-.08-.16c.01-.19.12.06.19.08-.06-.13-.13-.12-.12-.23.26-.2.56-.27.9-.34.35-.04.71-.1,1.03-.24.23-.11-.45-.8.04-.65l.15.31c.09-.62.74-.65.76-1.24.04.07.12.13.09.17.25.08.24-.27.08-.39.06-.04.15.09.26.12.18,0-.1-.37.12-.28.04.01.05.07.05.09-.06-.12.18-.23-.08-.33.2-.07.07-.33.28-.36-.22-.22.27-.18-.11-.41.39.22.45-.1.31-.28.11.09.17-.02.32.09.05-.11.02-.25-.2-.32.59,0-.25-.56.44-.44-.09-.42-.18-.77-.21-1.09.44.11-.04.34.42.45-.11-.35-.43-.59-.28-.85.07-.06.19.08.26.12-.14-.32.13-.57-.08-.86.04,0,.08.04.12.07,0-.05.07-.12-.13-.13l.05.05c-.3.05-.61-.25-.77-.26.58.12.16-.24.89-.07-.04-.04-.13-.08-.27-.08.04-.05.12-.06.28,0-.1-.19-.32-.13-.31-.29.1,0,.14.03.25.05-.19-.09-.37-.17-.3-.31.06,0,.14-.01.14.03-.05-.25-.54-.37-.37-.64.43.03.13-.1.5-.16l-.13-.13-.17.08c-.02-.12-.3-.19-.2-.31l.17.06-.11-.21-.12.15c-.21-.08-.46.1-.39-.07.04.02-.02-.11.19-.22h0c-.13-.03-.26-.06-.19-.16.11-.05.41-.08.48-.12-.32.02-.17-.25-.51-.23.08,0,.27-.06.31-.08l-.26.03c.06-.08.1-.1.25-.14,0-.18-.43.2-.3-.05.02,0,.06-.01.1,0,.04-.24-.28-.27-.26-.54.3-.24.17.15.42-.05-.24-.37-.68-.42-.79-.72v.08c-.37.38.05-.39-.2-.32.04,0,.2-.21.16-.17-.08-.26-.33-.27-.59-.31l.08-.12c-.03-.23-.19-.34-.26-.52-.06.14-.1.05-.12.34,0-.16-.02-.29-.05-.38-.02-.11-.07-.04-.1-.04-.08.05-.17.18-.24.31-.16.27-.26.52-.45.25.03-.03.07-.2.04-.18l-.24.34c.07.24.06.13.15.3,0,.18-.03.34-.08.38.05-.24-.09-.41-.18-.5.03.07.03.17.06.24-.25-.33.13.5-.11.33l-.04-.13c-.04.11-.02.3-.08.31-.15-.22,0-.16-.09-.37-.1.1.08.59-.14.42,0-.09.05-.14.05-.23-.25-.2-.23-.11-.33-.1h.01c-.08,0-.18.03-.26.03.03.01.06.03.09.04.34.62-.11.26.05.72-.15-.43-.14-.21-.32-.45-.09-.04-.2-.07-.24-.15.1.24-.22-.07-.08.28-.07-.07-.07.05-.21-.15-.03.12.13.12.2.21.09.36-.54-.08-.42.42-.03.27.16.54.12.78-.15-.08-.19-.3-.19-.3-.17-.05-.21.02-.2.16-.04-.08-.1-.12-.19-.19-.04.07.19.3.02.26-.06-.09-.15-.24-.19-.35,0,.12.04.32.03.44-.13-.12-.12-.23-.17-.34-.03.12-.1.29.05.51l.11.03s-.16-.17-.17-.22c-.07-.22.16,0,.22.06v.09c.41.4.13-.23.25-.29l.22.35-.12-.35c.09.07.25.23.25.32.2.1-.03-.17.18-.04.03.02.04.04.04.06v-.15c.03.08.19.22.11.21.28.08,0-.41.25-.2v.03c.09-.25-.17-.25-.27-.63l.57.51-.18-.25s.07-.02.15.08c-.07-.22-.1-.09-.18-.28.26.14.15-.3.48.06-.12-.2-.2-.07-.21-.27.36.38.05-.16.28-.04.15.23-.02.18.22.3-.24-.39.22-.05.23-.17-.23-.28.05-.24.05-.4.07.1.26.04.37.12l.02.06c-.12-.38-.01-.38.03-.51.05.24.06.35.06.47l.04-.03c-.02-.14-.02-.22,0-.3l.04.32s.08-.49.17-.32c.02-.35-.1-.86.04-1.17,0,.16,0,.47-.03.57,0-.03.04-.18.06-.12l-.05.35c.04.1.03-.28.07-.28-.01.27.02.17,0,.39,0,.03-.02-.09-.04.03.04.02.06.15.05.35.01-.16.03-.37.06-.43.07-.08-.02.32,0,.45.04-.22.03.04.11-.39.02.02-.02.22-.04.34.06-.16.12.08.21-.36v-.04s0-.01,0-.01h0s0,0,0,0c.24-.23.14.46.27.44l-.06.1c.12-.03.14.1.34,0,.02.03-.1.2-.19.27.09,0,.18-.06.09.13-.17.05-.12.11-.13.02-.03.13-.17.21.09.14-.23.11-.27.19-.19.18.05-.03.1-.07.15-.11.05.01.04.06.05.12l-.32.1c-.28.32.78.15.19.52.24,0,.12-.16.4-.19-.01.12-.44.35-.43.37-.14.17.5.01.41.19.11-.04.42-.13.55-.03-.02.12-.47.22-.57.17-.01-.02.02-.04.06-.05-.05-.03-.11-.06-.23,0h.12c-.11.06-.07.2-.27.2.13.06.2,0,.25-.07-.15.16.04.2-.07.35.06-.03.2-.06.2-.04-.13.22.23.07.29.21-.17.09-.43,0-.27.13-.12.09-.31.03-.41,0,.24.11-.13.23-.17.29l-.1-.06c.06.03.06.06.06.09l.24-.04s-.05.07-.14.07c.15.04.4-.03.61.05-.12.05.12.16-.19.17.11-.16-.32,0-.36-.12.04.03.03.06,0,.09-.04,0-.06,0-.08-.02-.29.13.35.08.34.24-.18-.03-.34.01-.3.04,0-.06.3-.01.43.06-.14.09.1.12.07.17l.07-.06c.17.04.14.09.19.17-.14,0-.08-.08-.15-.06.3.12-.35.14-.15.28-.13.03-.33-.05-.42-.01.21.16-.25.09-.09.24.24.01.19,0,.39.13-.03-.08-.08-.16-.13-.24l.32.2c.01-.07-.13-.17-.08-.2.18.1.12.08.32.09-.36.03.18.23-.09.29l-.58-.13c-.29.08.23.33.04.49l.11-.03c.22.09,0,.13.07.22-.19-.06-.27-.05-.4-.06.14.04-.06.13.3.28h-.28c-.15.11.46.38.34.51-.18-.13-.33-.12-.44-.27-.02.05-.07.08.05.13-.13-.02.18.24-.01.21.07.06.25.15.21.2-.04-.01-.09-.04-.09-.04.09.04.08.15.3.19-.62-.12-.18.46-.72.31,0,.13-.03.29-.07.39-.04-.04-.08-.06-.05-.06-.22.02.41.41.13.42-.31-.13-.08-.17-.21-.21-.53-.38-.06.21-.42.05v-.04c-.23-.09.06.32-.08.39,0,0-.04-.04-.07-.07.17.29.11.5.07.66-.14-.22-.05-.14-.24-.32-.02.07.29.29.25.43-.12-.08-.27-.11-.45-.31l.07-.09c-.27-.23-.09.11-.18.09l-.09-.13c-.1.13.14.45-.03.54l.08.09c.14.38-.19-.13-.12.17l-.24-.31c0,.12,0,.44-.08.57-.08-.29-.03-.48-.05-.67-.06.03-.17.12-.11.31,0-.05-.02-.14.04-.1.09.3.06.49-.07.55-.31-.69-.4-.01-.71-.55-.11.34-.43.04-.65.12.22.56-.07.03.08.63-.05.05-.08.05-.09,0l-.25-.32c-.07-.17.03-.15,0-.28-.13-.02-.09-.24-.19-.39.05.22,0,.31-.08.23l.13.27c-.14.34-.2-.5-.34-.17l.04-.2c-.08.12-.3.03-.4.51-.02-.07-.04-.24,0-.28-.2-.09-.52.52-.67.17l.04-.15s-.11.27-.14.11c.01-.06.04-.14.02-.16-.03.05-.15.24-.19.15l.08-.16c-.17-.22-.41.35-.63.39.11-.43-.01-.61-.07-.7l.02-.06c-.21-.11-.51.19-.82.27.05-.48-.37-.41-.45-.75,0,.09-.18.29-.24.31,0-.11-.29.17-.07-.17v.02c.19-.36.04-.33-.03-.39l-.31.43c.24-.74-.68-.16-.35-.78-.13.06-.18.02-.32.08l.19-.21c-.06-.16-.08-.24-.26-.33l.17-.11c-.06-.08-.69.46-.78.4l.29-.3c-.13-.15.06-.52-.36-.43.05-.03.15-.1.19-.09-.06-.07.06-.43-.41-.09.32-.21-.07-.18-.27-.19l.25-.12c-.35.1-.45.15-.59.08.02-.04.19-.13.14-.06.09-.16-.27.05-.18-.13l.18-.04c-.02-.1-.1-.05-.32-.02-.13-.02-.02-.21.21-.32-.15.05-.36.07-.32-.01.09-.04.15-.04.18-.04.13-.17-.37-.09-.13-.23.09-.01.14-.02.16-.03.01.07.02.13,0,.13.24-.08.28-.11.63-.18-.18.06-.63.04-.52-.02.03,0,.05,0,.09,0h.03s0-.01-.05-.02c.04-.01.07-.02.07-.03.22.01.12-.02.13-.03-.31-.05-.26-.08-.51-.1.02,0,.04.01.05.03,0,0,.02.01.03.02h-.03s.02.04.04.07c-.16-.03-.3-.08-.13-.1-.2-.05-.4-.11-.5-.15.42.01.64.02.91.11-.09-.06-.13-.11-.22-.19-.05-.06-.14-.15-.36-.34-.03-.06.19.08.28.13.04.04.01.04.08.1-.08-.11.09-.1-.19-.37.21.09.23.27.28.18l.07.09c.29.19.15,0,.14-.23-.04-.22.08-.48.41-.22-.04-.03-.07-.04-.1-.1.56.11.75-.68,1.38-.38.16.04.08-.18.08-.37l.15.26-.02-.37c.07-.31.61.54.63,0l-.11-.17c.1,0,.21-.22.29,0,0-.04-.06-.21.01-.12l.07.14.09-.34c.2.04.23.58.47.51.06-.09.05-.53-.03-.61-.04,0-.13-.05-.19-.2l.04-.11c-.18-.43-.31-.89-.63-1.11v.32s-.15-.19-.15-.19l.1-.06c-.15-.17-.11.02-.1.16-.06-.11-.11-.17-.16-.2l.05.46c-.09-.16-.09-.36-.22-.41.02.22.22.35.18.52-.15-.17-.2-.33-.2-.13-.06-.1-.07-.18-.07-.24,0,.16-.15.13-.08.37-.17-.21-.19.16-.36-.25.02.11.03.37-.03.41-.11-.53-.24.07-.44-.46.11.47-.2.32-.24.63,0-.04-.02-.11,0-.1-.1,0-.18-.12-.27-.18.15.36.06.5.09.75-.25-.3-.13-.45-.31-.76.13.29-.04.37.1.59-.17-.18-.11-.07-.28-.35.19.45-.04.11.02.41-.21-.17-.22-.41-.27-.22-.12-.11-.08-.32-.08-.32ZM.76,6.95h0s-.03-.07-.04-.09c0,.02.02.04.05.09ZM.86,7.32s-.01-.1-.03-.16c.09-.03.19-.02.2,0-.07,0-.1.08-.17.15ZM2.72,6.79s-.01.01-.07,0c0,0-.02-.01-.04-.03h-.04c.06,0,.11.01.15.02Z" style="fill: #202020; stroke-width: 0px;"/>
        <path d="M2.32,6.71s-.02,0-.02-.01c-.03,0-.05,0-.07,0l.1.02h0Z" style="fill: #202020; stroke-width: 0px;"/>
        <path d="M12.74,1.66h0s0-.02,0-.05c0,.02,0,.03,0,.05Z" style="fill: #202020; stroke-width: 0px;"/>
        <polygon points="2.76 11.08 2.81 11.03 2.75 11.06 2.76 11.08" style="fill: #202020; stroke-width: 0px;"/>
        <path d="M11.69.92s-.02-.05-.04-.06c0,.02.02.04.04.06Z" style="fill: #202020; stroke-width: 0px;"/>
        <path d="M11.01,1.4h-.16c.08,0,.12,0,.16,0Z" style="fill: #202020; stroke-width: 0px;"/>
        <path d="M10.51,1.63s.05.07.07.1h0s-.07-.1-.07-.1Z" style="fill: #202020; stroke-width: 0px;"/>
        <path d="M15.32,5.97s0,.01,0,.02c.05.05.03.02,0-.02Z" style="fill: #202020; stroke-width: 0px;"/>
        <path d="M14.52,3.52c.05.01.11.03.14.05.01-.05.01-.08-.14-.05Z" style="fill: #202020; stroke-width: 0px;"/>
        <polygon points="14.87 8.89 14.87 8.89 14.86 8.91 14.87 8.89" style="fill: #202020; stroke-width: 0px;"/>
        <path d="M14.68,3.69c.05-.05.03-.09-.02-.11-.01.04-.03.09.02.11Z" style="fill: #202020; stroke-width: 0px;"/>
        <path d="M8.84,2.86h-.03s.02.03.03.04v-.04Z" style="fill: #202020; stroke-width: 0px;"/>
        <path d="M8.84,2.9v.04s.02-.02,0-.04Z" style="fill: #202020; stroke-width: 0px;"/>
        <path d="M8.84,3.03v-.09s-.04.02,0,.09Z" style="fill: #202020; stroke-width: 0px;"/>
        <path d="M9.41,2.55l-.06-.08s.03.05.06.08Z" style="fill: #202020; stroke-width: 0px;"/>
        <path d="M9.54,2.41c-.05.01-.23-.09-.24,0l.05.07c-.07-.14.27.1.19-.06Z" style="fill: #202020; stroke-width: 0px;"/>
        <path d="M10.96,2.86l-.18.04c.09.07.21.15.17.22.36.12-.19-.16,0-.26Z" style="fill: #202020; stroke-width: 0px;"/>
        <path d="M11.45,2.66c-.03.09.1.12.14.17-.02-.11-.03-.14-.14-.17Z" style="fill: #202020; stroke-width: 0px;"/>
        <path d="M13.04,2.52l-.2.18s.08-.07.2-.18Z" style="fill: #202020; stroke-width: 0px;"/>
        <polygon points="14.45 2.43 14.57 2.3 14.34 2.36 14.45 2.43" style="fill: #202020; stroke-width: 0px;"/>
        <polygon points="12.87 3.41 12.83 3.4 12.94 3.46 12.87 3.41" style="fill: #202020; stroke-width: 0px;"/>
        <path d="M12.35,8.39l.28.15c-.03-.06-.33-.25-.28-.15Z" style="fill: #202020; stroke-width: 0px;"/>
        <path d="M11.09,10.25c-.11-.11-.22-.16-.16-.01.05-.01.16.06.16.01Z" style="fill: #202020; stroke-width: 0px;"/>
        <polygon points="4.86 9.52 4.95 9.45 4.83 9.48 4.86 9.52" style="fill: #202020; stroke-width: 0px;"/>
      </g>
    </g>
  </g>
</svg>