<?xml version="1.0" encoding="UTF-8"?>
<svg id="Layer_2" data-name="Layer 2" xmlns="http://www.w3.org/2000/svg" viewBox="0 0 15.7 12.86">
  <g id="Layer_30" data-name="Layer 30">
    <g>
      <path d="M7.58,2.63C5.91.34,1.7,1.88,1.2,4.67s1.81,5.48,4.51,6.37c3.63,1.2,8.38-.85,8.94-4.63S9.65-.63,7.18,2.29" style="fill: #eaeaea; stroke-width: 0px;"/>
      <g>
        <path d="M6.67,1.86c.05.07.21.19.22.12l-.21-.25v.13Z" style="fill: #202020; stroke-width: 0px;"/>
        <path d="M7.42,1.99c-.06-.16-.18-.44-.42-.63.15.29.05.21.25.54-.02.07-.15,0-.23-.09.05.07-.13.02,0,.18.25.12.32.07.25-.16.07.04.11.12.15.16Z" style="fill: #202020; stroke-width: 0px;"/>
        <path d="M12.27,2.53v-.05s0,.04,0,.05Z" style="fill: #202020; stroke-width: 0px;"/>
        <path d="M13.91,5.02s-.05-.02-.08-.01c.03.01.05.02.08.01Z" style="fill: #202020; stroke-width: 0px;"/>
        <path d="M13.64,5.54s.01-.02.02-.03c-.03.01-.04.03-.02.03Z" style="fill: #202020; stroke-width: 0px;"/>
        <path d="M12.27,2.53v.13c.08-.08.02-.09,0-.13Z" style="fill: #202020; stroke-width: 0px;"/>
        <path d="M7.65.83s-.02.06-.01.11c0-.02.02-.04.03-.06l-.02-.05Z" style="fill: #202020; stroke-width: 0px;"/>
        <path d="M10.96,2.14h-.02s-.04.07-.06.11l.09-.11Z" style="fill: #202020; stroke-width: 0px;"/>
        <path d="M10,1.96s.06-.27.08-.39c-.03.11-.05.17-.07.19,0,.05,0,.12-.01.2Z" style="fill: #202020; stroke-width: 0px;"/>
        <path d="M8.41,1.71v.04s0-.03,0-.04Z" style="fill: #202020; stroke-width: 0px;"/>
        <path d="M11.58,2.49s-.03.07-.04.09c.02-.03.03-.06.04-.09Z" style="fill: #202020; stroke-width: 0px;"/>
        <path d="M7.1.6s-.01.03-.02.05c.02-.02.03-.04.02-.05Z" style="fill: #202020; stroke-width: 0px;"/>
        <polygon points="7.52 2.68 7.5 2.67 7.37 2.76 7.52 2.68" style="fill: #202020; stroke-width: 0px;"/>
        <path d="M13.28,6.26h0s-.02-.02,0,0Z" style="fill: #202020; stroke-width: 0px;"/>
        <path d="M7.25,10.18c.07.26-.19.3-.07.6,0-.11.18-.43.07-.6Z" style="fill: #202020; stroke-width: 0px;"/>
        <path d="M7.7.84s.03-.03.05-.03c-.03,0-.04.02-.05.03Z" style="fill: #202020; stroke-width: 0px;"/>
        <path d="M7.17,10.78h0s.01.03.01.03c0-.01,0-.02-.01-.03Z" style="fill: #202020; stroke-width: 0px;"/>
        <path d="M12.7,7.98s.08.04.11.06c-.02-.02-.05-.03-.11-.06Z" style="fill: #202020; stroke-width: 0px;"/>
        <path d="M13.72,6.86l-.05.02s.04-.02.05-.02Z" style="fill: #202020; stroke-width: 0px;"/>
        <path d="M12.47,8.84s-.06-.03-.06.02c.01,0,.02.01.03.02-.02-.03-.02-.06.03-.04Z" style="fill: #202020; stroke-width: 0px;"/>
        <path d="M11.8,9.38s.03.02.05.04v-.03s-.05,0-.05,0Z" style="fill: #202020; stroke-width: 0px;"/>
        <path d="M3.17.79c.06.06.1.14.15.21-.09-.18.05-.31-.15-.21Z" style="fill: #202020; stroke-width: 0px;"/>
        <path d="M7.73.97c-.03-.07-.04-.1-.03-.13l-.03.03s.04.07.06.09Z" style="fill: #202020; stroke-width: 0px;"/>
        <path d="M13.96,10.48l-.17.1c.06-.01.12-.05.17-.1Z" style="fill: #202020; stroke-width: 0px;"/>
        <path d="M.76,8.35l-.05-.02s.02.03.05.02Z" style="fill: #202020; stroke-width: 0px;"/>
        <path d="M13.38,10.97c-.09-.06-.15-.09-.2-.09,0,.02.01.04.03.07l.18.02Z" style="fill: #202020; stroke-width: 0px;"/>
        <path d="M3.32,1h0s0,0,0,0Z" style="fill: #202020; stroke-width: 0px;"/>
        <path d="M4.42,0c-.21.02-.03.37-.04.59-.2.14-.16-.25-.27-.42-.13.13-.15.49-.25.5-.02-.06-.05-.07-.05-.15-.06.31-.42.15-.44.56-.02-.03-.04-.05-.05-.08.1.16.17.33.21.46-.07.03-.03.26-.16.05.04-.01,0-.1,0-.18l-.03.13c-.21-.29.05-.15-.05-.39-.11.16-.14.5-.29.47-.18-.29.2-.24-.08-.43.08,0,.15.01.23.03-.37-.43.13-.01-.24-.48-.3.03-.2.3-.48.34.04.19.16.23.2.42-.11.47-.71-.55-.69-.02.08.23.31.57.03.52l-.19-.34c-.23.15.25.52-.12.5-.07-.14.06-.23,0-.24-.34-.1.05.24-.04.33l-.26-.22c-.16.25-.18.63-.3.92-.07-.07-.13-.18-.26-.18-.09.42-.47.71-.81,1.05l.24.24s-.15.03-.19-.03c-.15.13.18.06.27.16,0,.09-.19.07-.26,0,.14.36.4.8.06,1.05l-.09-.06c-.12.21.6.25.33.43l-.05-.03c-.13.45.21.87-.14,1.29.41-.04-.07.48.51.33-.19.32-.33.3-.37.7.02.1.4-.02.5.06l-.28.13h.36s-.29.24-.29.24l.12.06s.08-.14.16-.18c.2.07.01.45-.12.54.14.08.29.14.44.2-.11.06-.18.03-.28.03.38,0-.25.21.1.22.04-.06.16-.09.21-.13-.1.19.03.38.2.45l-.19.11c.15.28.48.42.71.66-.01-.16.27-.39.36-.35l-.2.26c.18-.1.02-.16.28-.24.05.11-.2.32-.33.35l.19.02c-.06.08-.12.09-.21.17.18-.11-.02.42.28.22l-.06.08c.25.23.45.22.67.38.17-.22.21-.11.41-.25.1.17.16.49.38.58.21-.04.16-.18.31-.29-.12.23.1.32-.1.42.26.1.34.13.75.09,0-.11,0-.17.05-.24.07-.01.08.16.03.27l-.03.02c.47-.2.61,1.03,1.1.6l-.02.02.38-.19c.14.08-.13.17-.05.35.43-.36.55.15.88-.08.16.76.8.02,1.1.47l-.02-.18c.08-.18.1.1.16.14-.01-.14-.09-.16-.05-.26.64-.22,1.38.13,2.13.11.27-.02-.11-.92.3-.61v.34c.37-.52,1.01-.34,1.32-.87,0,.08.05.17,0,.19.2.16.35-.18.26-.35.08-.02.1.15.19.21.17.07.08-.39.25-.22.03.03.01.08,0,.11,0-.13.29-.16.08-.35.23,0,.22-.3.44-.26-.1-.29.35-.09.1-.45.27.36.49.06.44-.17.06.13.18.04.27.2.1-.1.13-.26-.05-.4.57.18.02-.66.64-.31.06-.5.16-.88.23-1.26.39.23-.15.38.25.61.03-.42-.22-.77.03-1.03.09-.06.16.13.21.19-.04-.4.31-.64.15-1.01.04.01.08.06.1.1,0-.06.1-.12-.1-.17l.04.07c-.31,0-.55-.39-.7-.42.55.23.21-.25.9.06-.03-.05-.11-.12-.25-.13.05-.05.13-.06.27.03-.07-.24-.28-.19-.27-.39.1.01.13.06.25.1-.18-.14-.37-.25-.28-.41.06.01.14,0,.13.05-.01-.32-.49-.48-.35-.79.44.04.13-.12.49-.2l-.14-.16-.17.1c-.01-.16-.3-.22-.22-.36l.18.07-.15-.24-.09.18c-.23-.08-.45.14-.4-.06.05.02-.03-.12.15-.27h0c-.14-.02-.27-.04-.22-.17.1-.07.39-.14.46-.19-.32.06-.23-.27-.57-.19.08-.01.26-.1.29-.13l-.25.07c.04-.09.07-.12.21-.19-.05-.2-.39.28-.31-.02.03,0,.05-.02.1,0-.02-.26-.38-.28-.39-.52.26-.28.18.1.4-.15-.24-.24-.75-.22-.88-.49v.07c-.4.35.05-.35-.24-.26.05,0,.24-.19.19-.15-.1-.2-.41-.18-.74-.23l.11-.09c-.02-.17-.22-.23-.29-.35-.11.09-.15.04-.22.23.05-.44-.18-.45-.4-.42-.22.03-.42.08-.46-.29.04,0,.14-.07.11-.09-.11,0-.22,0-.33.02-.06.22,0,.14-.02.33-.08.12-.19.19-.26.17.17-.11.12-.35.1-.49-.01.07-.06.14-.07.21-.02-.44-.16.44-.27.11l.04-.11c-.09.03-.19.18-.26.13.03-.27.11-.11.17-.32-.13,0-.33.45-.38.17.06-.06.13-.05.19-.12-.05-.33-.08-.25-.16-.32h0s-.19-.17-.19-.17l.04.09c-.23.65-.33.1-.55.54.2-.43.04-.25.07-.55-.05-.09-.14-.18-.11-.27-.1.24-.18-.2-.32.16-.01-.1-.11,0-.11-.24-.14.1.05.16.04.29-.15.36-.56-.34-.77.18-.2.27-.12.59-.25.81-.13-.12-.08-.35-.08-.35-.17-.1-.25-.03-.29.13-.02-.09-.07-.14-.16-.22-.07.07.12.34-.06.28-.04-.1-.11-.27-.12-.39-.06.14-.06.36-.1.49-.13-.12-.09-.25-.11-.36-.09.13-.21.33-.06.57l.12.02s-.16-.16-.17-.23c-.04-.24.19-.02.25.06l-.03.09c.4.42.2-.23.37-.3l.15.4c-.02-.12-.03-.25-.03-.38.08.08.2.28.17.37.18.13,0-.19.19,0,.02.03.03.05.03.07l.04-.14c.02.09.13.27.05.23.23.18.14-.38.3-.1v.03c.17-.21-.08-.31.02-.7.1.24.19.48.28.72l-.03-.3s.08.02.09.14c.06-.22-.04-.13-.02-.33.15.26.33-.18.38.31.03-.23-.12-.18,0-.34.05.52.15-.08.26.16-.04.27-.13.12-.03.37.08-.45.19.11.27.02.04-.37.2-.12.37-.21-.03.13.24.23.32.41l-.02.06c.12-.34.24-.23.37-.27-.08.21-.12.28-.2.36l.09.03c.06-.1.11-.15.18-.17l-.12.25c.12.01.36-.2.43.03.12-.22.17-.71.43-.78-.05.13-.15.34-.22.37.02,0,.1-.08.1-.01l-.17.18c.02.13.12-.16.17-.11-.09.18-.02.15-.1.28-.02.01-.01-.1-.07-.04.05.06.06.2.02.34.05-.1.13-.23.18-.23.12.05-.08.23-.07.35.09-.1.09.06.24-.19.03.02-.04.14-.07.22.12-.07.27.13.39-.17v-.03s0,0,.01,0h0s0,0,0,0c.37-.12.26.42.51.46l-.07.07c.18,0,.25.15.47.07.03.03-.07.19-.17.26.12.02.21-.04.19.17-.2.04-.09.12-.16,0,.02.15-.08.26.2.2-.22.12-.2.27-.11.27l.1-.18c.07.03.08.09.1.15l-.29.16c-.21.38.82.02.3.5.24-.05.09-.19.36-.26.02.13-.37.42-.36.45-.13.19.49-.05.42.14.11-.05.4-.18.55-.08,0,.14-.43.27-.55.23-.02-.02.01-.04.05-.05-.05-.02-.11-.05-.23.03l.12-.02c-.1.09-.04.21-.24.23.13.04.2-.01.24-.08-.12.16.03.2-.06.35.06-.03.2-.07.2-.05-.12.22.24.06.31.21-.17.09-.42,0-.28.13-.13.09-.32.02-.41,0,.22.11-.17.2-.21.25l-.09-.06c.06.03.05.06.05.08h.24s-.04.05-.14.04c.15.05.39,0,.6.11-.11.03.11.18-.21.15.14-.14-.31-.04-.34-.17.04.03.03.06-.02.09-.04,0-.06-.02-.08-.03-.31.09.34.13.29.29-.17-.06-.34-.04-.3,0,.02-.06.3.04.41.13-.16.07.07.14.05.2l.08-.05c.17.07.13.12.15.21-.13-.04-.06-.1-.13-.09.26.18-.38.08-.22.26-.13,0-.31-.12-.4-.11.17.21-.26.03-.15.21.23.07.18.04.35.23-.02-.09-.02-.18-.05-.27.09.09.17.18.25.28.04-.06-.07-.2-.02-.22.15.14.1.12.29.16-.35-.05.1.27-.18.28l-.52-.28c-.31,0,.15.41-.12.5h.13c.18.16-.05.13-.02.24-.16-.12-.24-.13-.35-.18.12.09-.1.11.2.38l-.26-.09c-.2.05.28.52.1.61-.12-.19-.27-.23-.3-.42-.04.04-.1.05,0,.15-.11-.06.08.31-.1.21.04.08.17.24.11.27-.03-.02-.06-.07-.06-.07.07.07,0,.17.2.29-.54-.34-.39.39-.84.05-.07.13-.16.28-.26.35-.02-.05-.05-.08-.02-.08-.24-.08.2.54-.08.46-.24-.23,0-.2-.11-.28-.33-.56-.16.19-.44-.09v-.05c-.17-.16-.09.31-.26.34,0,0-.02-.06-.04-.09.03.35-.12.54-.25.67-.04-.26.02-.15-.09-.38-.05.06.16.38.05.5-.09-.12-.22-.2-.32-.46l.12-.05c-.17-.32-.15.06-.24.02l-.04-.15c-.16.11-.07.48-.29.51l.05.11c-.03.41-.15-.19-.2.12l-.12-.38c-.05.11-.19.43-.33.52.04-.3.17-.46.23-.66-.07.02-.24.07-.25.27.02-.04.05-.14.09-.09-.04.32-.15.49-.31.5-.06-.76-.42-.15-.56-.75-.25.3-.5-.11-.78-.09.06.6-.09.01-.12.62-.08.03-.1.02-.11-.02l-.17-.4c-.02-.18.08-.12.09-.26-.14-.07-.02-.27-.09-.44-.01.22-.1.3-.16.21l.07.3c-.26.28-.08-.52-.33-.26l.1-.17c-.12.08-.34-.1-.59.35,0-.07.03-.24.09-.27-.19-.14-.71.3-.78-.07l.08-.13c-.06.02-.2.22-.18.06.03-.05.08-.13.07-.14-.04.04-.23.18-.25.07l.12-.12c-.11-.29-.53.18-.78.14.24-.37.16-.6.12-.7l.04-.05c-.18-.21-.6,0-.92-.06.2-.46-.27-.54-.22-.92-.04.08-.27.21-.33.2.03-.1-.35.05-.03-.19v.02c.29-.27.15-.31.1-.39l-.45.28c.24-.32.1-.42-.04-.51-.15-.09-.29-.19,0-.39-.14,0-.17-.07-.32-.07l.26-.1c.01-.18.03-.25-.1-.42l.21-.02c0-.1-.82.08-.86-.03l.41-.12c-.06-.2.31-.41-.1-.57.06,0,.18,0,.2.03.01-.09.29-.31-.29-.31.37.01.05-.19-.1-.32l.27.05c-.34-.13-.44-.16-.52-.3.04-.02.23.02.15.04.17-.06-.24-.13-.06-.22l.16.09c.05-.09-.05-.1-.23-.22-.1-.11.14-.18.38-.09-.14-.07-.3-.2-.21-.23.09.03.13.08.16.1.23-.07-.17-.39.14-.36.08.05.12.07.15.07-.08.11-.15.19-.16.17.22.11.31.06.59.29-.14-.14-.41-.48-.26-.51.02.01.04.02.08.04l.02.03s.02-.03,0-.08c.06,0,.09,0,.12-.01.17.12.16-.01.2-.04-.21-.18-.13-.21-.35-.31.02,0,.02.03,0,.07,0,.01,0,.02,0,.04l-.02-.02s-.04.07-.08.12c-.08-.12-.14-.24.02-.18-.12-.14-.23-.29-.28-.37.34.19.6.25.78.41,0-.23.2-.32,0-.81,0-.09.14.09.2.15,0,.06-.03.07,0,.14,0-.17.21-.21.05-.54.2.08.11.33.23.19l.03.11c.29.18.28-.09.35-.34.05-.26.17-.51.46-.19-.04-.04-.06-.05-.08-.11.26.09.46,0,.69-.1.22-.06.48-.1.64.21.09.12.15-.12.26-.27l-.05.3c.06-.1.13-.2.21-.3.13-.09.16.1.17.28.01.18,0,.32.22.16l.08-.19c.06.06.28.05.14.23.03-.03.15-.15.11-.05l-.09.13c.1-.03.22-.07.33-.09.02.2-.44.44-.35.6.08,0,.5-.14.57-.22-.02-.03.02-.13.14-.23l.12.02c.38-.27.85-.46.89-.91-.12,0-.24,0-.36.02l.12-.21.14.13c.09-.22-.1-.15-.24-.12.07-.1.11-.18.11-.25-.15.05-.32.12-.46.19.09-.16.31-.21.26-.39-.21.1-.18.37-.4.38.05-.23.17-.35-.03-.28.05-.11.12-.16.19-.17-.18.05-.28-.13-.46.06.03-.28-.35-.1-.16-.5-.08.08-.32.22-.41.22.36-.44-.34-.14-.14-.67-.26.4-.55.09-.82.33.02-.04.05-.11.07-.08-.13-.06-.15-.2-.24-.3-.04.39-.24.48-.34.72-.16-.38.09-.46.04-.82,0,.32-.28.32-.21.59-.13-.23-.11-.11-.2-.43.02.49-.11.1-.17.41-.2-.22-.11-.45-.27-.27-.12-.13.03-.33.03-.33ZM1.15,2.93h0s.03-.07.03-.09c0,.02-.01.04-.03.09ZM.96,3.23s.06-.08.09-.12c.09.04.17.11.14.13-.05-.05-.14-.01-.24,0ZM2.89,3.87s-.04.02-.09,0c0-.01.01-.03.01-.07l-.02-.03s.07.07.1.1Z" style="fill: #202020; stroke-width: 0px;"/>
        <path d="M2.65,3.58s0-.02,0-.03c-.02,0-.04-.02-.06-.02l.06.07v-.02Z" style="fill: #202020; stroke-width: 0px;"/>
        <path d="M12.26,2.47h0s0-.01.01-.03c0,.01,0,.02-.01.03Z" style="fill: #202020; stroke-width: 0px;"/>
        <polygon points=".46 8.06 .52 8.03 .45 8.03 .46 8.06" style="fill: #202020; stroke-width: 0px;"/>
        <path d="M11.23.89s0-.05,0-.08c0,.02,0,.05,0,.08Z" style="fill: #202020; stroke-width: 0px;"/>
        <path d="M10.48.63l-.1-.12c.04.07.07.1.1.12Z" style="fill: #202020; stroke-width: 0px;"/>
        <path d="M9.88.43s-.01.09-.02.12h0s.02-.12.02-.12Z" style="fill: #202020; stroke-width: 0px;"/>
        <path d="M15.54,7.35s0,.02,0,.03c.04.07.03.03,0-.03Z" style="fill: #202020; stroke-width: 0px;"/>
        <path d="M14.83,4.41c.06.01.11.02.15.04,0-.06,0-.1-.15-.04Z" style="fill: #202020; stroke-width: 0px;"/>
        <polygon points="13.98 10.47 13.98 10.46 13.96 10.48 13.98 10.47" style="fill: #202020; stroke-width: 0px;"/>
        <path d="M15.02,4.58c.04-.07.01-.1-.04-.13,0,.05-.02.1.04.13Z" style="fill: #202020; stroke-width: 0px;"/>
        <path d="M7.12,1.14h-.03s.02.04.03.05v-.05Z" style="fill: #202020; stroke-width: 0px;"/>
        <path d="M7.11,1.19v.05s.02-.02,0-.05Z" style="fill: #202020; stroke-width: 0px;"/>
        <path d="M7.1,1.35v-.11s-.04.03,0,.11Z" style="fill: #202020; stroke-width: 0px;"/>
        <path d="M7.95.78l-.03-.1s.01.05.03.1Z" style="fill: #202020; stroke-width: 0px;"/>
        <path d="M8.19.66c-.07,0-.24-.15-.3-.05l.03.08c-.02-.16.28.16.27-.02Z" style="fill: #202020; stroke-width: 0px;"/>
        <path d="M9.39,1.67l-.17-.06c.04.1.09.24.03.28.22.29-.07-.23.13-.22Z" style="fill: #202020; stroke-width: 0px;"/>
        <path d="M9.87,1.82c-.08.05,0,.16-.02.22.05-.1.07-.12.02-.22Z" style="fill: #202020; stroke-width: 0px;"/>
        <path d="M12.98,3.4l-.19.17c.07.02.07-.07.19-.17Z" style="fill: #202020; stroke-width: 0px;"/>
        <polygon points="14.5 3.19 14.58 3.04 14.36 3.14 14.5 3.19" style="fill: #202020; stroke-width: 0px;"/>
        <polygon points="13.16 4.51 13.12 4.5 13.24 4.54 13.16 4.51" style="fill: #202020; stroke-width: 0px;"/>
        <path d="M11.78,9.09l.2.24c0-.07-.2-.36-.2-.24Z" style="fill: #202020; stroke-width: 0px;"/>
        <path d="M9.56,10.44c-.07-.15-.16-.23-.17-.07.06,0,.15.11.17.07Z" style="fill: #202020; stroke-width: 0px;"/>
        <polygon points="3.04 7.52 3.15 7.5 3.03 7.48 3.04 7.52" style="fill: #202020; stroke-width: 0px;"/>
      </g>
    </g>
  </g>
</svg>