<?xml version="1.0" encoding="UTF-8"?>
<svg id="Layer_2" data-name="Layer 2" xmlns="http://www.w3.org/2000/svg" viewBox="0 0 14.01 13.61">
  <g id="Layer_30" data-name="Layer 30">
    <g>
      <path d="M3.09,2.31C.2,4.88,1.1,10.41,4.66,11.92s8.16-1.69,7.99-5.55S7.62-.28,4.2,1.54" style="fill: #eaeaea; stroke-width: 0px;"/>
      <g>
        <path d="M3.89.95c.02.08.12.25.16.2l-.12-.31-.04.11Z" style="fill: #202020; stroke-width: 0px;"/>
        <path d="M4.49,1.36c-.01-.17-.05-.46-.21-.72.06.32,0,.2.09.58-.03.06-.13-.06-.17-.17.02.08-.11-.03-.04.17.18.2.25.18.25-.05.05.06.07.15.09.2Z" style="fill: #202020; stroke-width: 0px;"/>
        <path d="M8.99,2.01v-.05s0,.04,0,.05Z" style="fill: #202020; stroke-width: 0px;"/>
        <path d="M11.01,3.83s-.05,0-.07.02c.03,0,.05,0,.07-.02Z" style="fill: #202020; stroke-width: 0px;"/>
        <path d="M10.97,4.4s0-.02,0-.03c-.02.02-.03.04,0,.03Z" style="fill: #202020; stroke-width: 0px;"/>
        <path d="M8.99,2.01l.02.13c.05-.09,0-.09-.02-.13Z" style="fill: #202020; stroke-width: 0px;"/>
        <path d="M4.9.36s-.02.05-.02.1c.01-.02.02-.03.04-.05v-.05Z" style="fill: #202020; stroke-width: 0px;"/>
        <path d="M7.77,1.86h-.02s-.03.07-.05.12l.07-.12Z" style="fill: #202020; stroke-width: 0px;"/>
        <path d="M6.89,1.77s.05-.26.06-.39c-.02.11-.04.17-.06.19,0,.05,0,.12,0,.2Z" style="fill: #202020; stroke-width: 0px;"/>
        <path d="M5.42,1.4l-.02.04s.01-.03.02-.04Z" style="fill: #202020; stroke-width: 0px;"/>
        <path d="M8.36,2.11s-.02.08-.03.1c.01-.03.02-.07.03-.1Z" style="fill: #202020; stroke-width: 0px;"/>
        <path d="M1.24,2.45s.03.02.04.03c-.02-.02-.03-.04-.04-.03Z" style="fill: #202020; stroke-width: 0px;"/>
        <polygon points="3.14 2.37 3.14 2.39 3.24 2.51 3.14 2.37" style="fill: #202020; stroke-width: 0px;"/>
        <path d="M10.99,5.21h0s-.03,0,0,0Z" style="fill: #202020; stroke-width: 0px;"/>
        <path d="M8.56,10.67c.18.19.01.35.24.55-.05-.1-.08-.45-.24-.55Z" style="fill: #202020; stroke-width: 0px;"/>
        <path d="M4.94.39s.03-.01.05-.02c-.02,0-.04,0-.05.02Z" style="fill: #202020; stroke-width: 0px;"/>
        <path d="M8.81,11.22h0s.02.02.02.02c0,0-.02-.01-.02-.02Z" style="fill: #202020; stroke-width: 0px;"/>
        <path d="M11.44,6.72s.09,0,.12-.01c-.03,0-.06,0-.12.01Z" style="fill: #202020; stroke-width: 0px;"/>
        <path d="M11.67,5.42l-.03.04s.03-.03.03-.04Z" style="fill: #202020; stroke-width: 0px;"/>
        <path d="M11.75,7.42s-.06.01-.03.04c.01,0,.02,0,.03,0-.04-.02-.05-.03,0-.04Z" style="fill: #202020; stroke-width: 0px;"/>
        <path d="M11.55,8.12s.04,0,.06,0v-.03s-.06.02-.06.02Z" style="fill: #202020; stroke-width: 0px;"/>
        <path d="M.25,5.51c.08-.01.17-.02.26-.01-.2,0-.25-.17-.26.01Z" style="fill: #202020; stroke-width: 0px;"/>
        <path d="M4.94.51c-.01-.07-.02-.11,0-.12l-.03.02s.02.08.03.1Z" style="fill: #202020; stroke-width: 0px;"/>
        <path d="M13.91,7.94l-.07.16s.06-.1.07-.16Z" style="fill: #202020; stroke-width: 0px;"/>
        <path d="M2.82,12.13h-.05s.02.02.05,0Z" style="fill: #202020; stroke-width: 0px;"/>
        <path d="M13.72,8.61c-.1,0-.17,0-.21.03.02.01.03.03.06.04l.15-.07Z" style="fill: #202020; stroke-width: 0px;"/>
        <path d="M.51,5.49h0s0,0,0,0Z" style="fill: #202020; stroke-width: 0px;"/>
        <path d="M.07,4.28c-.05.16.33.17.53.26.06.21-.28.01-.48.03.07.14.38.31.35.39-.06,0-.09,0-.16-.03.25.17-.06.37.3.56-.03,0-.06,0-.09,0,.19,0,.37.02.51.05,0,.06.22.14-.02.14.01-.04-.09-.05-.16-.08l.1.08c-.35.02-.11-.11-.36-.14.1.15.37.33.26.42-.34,0-.09-.25-.4-.13l.15-.15c-.55.07.05-.1-.53-.04-.12.22.14.27.03.49.19.06.28,0,.47.05.34.3-.85.24-.4.47.23.06.65.06.43.22l-.39-.03c-.02.22.56.08.32.32-.15-.02-.14-.15-.19-.12-.29.17.23.08.24.19l-.34.06c.08.22.34.43.46.65-.1,0-.22-.01-.3.06.23.27.1.66.03,1.03l.32.02s-.11.09-.17.08c-.07.15.18-.06.3-.04.04.06-.13.14-.23.13.3.12.73.33.53.67h-.1c-.03.21.61-.1.45.16h-.06c.08.38.5.57.35,1.06.36-.22.1.42.55.05-.08.35-.19.38-.1.74.04.08.35-.18.46-.16l-.2.23.31-.15-.18.33h.13s.02-.16.08-.22c.2-.02.16.38.08.52h.45c-.07.1-.15.1-.23.14.33-.15-.15.29.16.16.02-.07.11-.15.14-.2-.02.2.17.3.34.3l-.12.17c.23.18.57.18.87.27-.07-.13.08-.47.17-.47l-.07.32c.12-.17-.04-.14.14-.34.09.07-.04.38-.14.46l.17-.06c-.02.1-.07.13-.11.25.11-.18.15.39.32.08l-.02.1c.31.06.48-.02.73,0,.04-.28.13-.2.23-.41.16.1.35.33.57.31.15-.14.05-.24.11-.4.01.26.22.24.12.42.25-.05.33-.08.62-.31-.05-.1-.09-.14-.08-.23.05-.05.14.09.15.22v.03c.25-.41.96.57,1.11-.02v.03s.18-.36.18-.36c.14,0-.01.21.13.33.15-.5.5-.11.62-.49.52.6.62-.36,1.08-.1l-.11-.14c-.03-.19.13.04.19.05-.08-.11-.15-.09-.17-.2.38-.48,1.14-.51,1.73-.86.21-.14-.58-.72-.08-.65l.2.28c0-.31.15-.48.31-.66.14-.19.29-.38.26-.66.05.06.14.11.11.15.26.04.2-.3.02-.4.05-.05.16.07.27.08.17-.03-.17-.36.07-.3.04,0,.06.06.07.08-.08-.11.16-.26-.12-.32.2-.1.01-.35.21-.42-.26-.18.24-.24-.17-.39.43.15.45-.19.25-.35.13.07.16-.06.33.02.02-.13-.04-.26-.28-.28.57-.15-.34-.5.34-.56-.23-.41-.36-.73-.52-1.04.45-.03.09.35.55.32-.21-.33-.62-.45-.55-.76.05-.09.2,0,.28.03-.21-.28-.1-.61-.4-.81.04-.01.09,0,.13.02-.03-.05.03-.14-.16-.07l.07.03c-.26.17-.64,0-.8.05.59-.12.04-.28.79-.42-.05-.02-.16-.02-.28.03.02-.06.08-.11.25-.12-.18-.14-.35.01-.42-.14.09-.04.14-.03.25-.06-.21,0-.42,0-.4-.16.06-.02.12-.07.14-.03-.15-.21-.66-.1-.62-.41.4-.17.07-.15.37-.37-.05-.02-.12-.04-.18-.06l-.11.15c-.07-.1-.36-.03-.32-.18l.18-.02-.2-.14-.03.19c-.23.02-.36.3-.38.12.05,0-.07-.09.06-.28h0c-.12.03-.26.07-.25-.05.07-.1.32-.27.37-.33-.27.17-.26-.14-.55.04.07-.04.21-.18.23-.21l-.21.15c.02-.1.04-.13.15-.24-.09-.15-.29.38-.29.09.02,0,.05-.04.09-.04-.07-.22-.39-.12-.45-.33.19-.33.18.03.33-.26-.26-.13-.7.02-.87-.18l.02.06c-.32.43-.01-.32-.26-.18.05-.02.19-.23.15-.18-.1-.18-.38-.06-.68-.03l.09-.11c-.04-.15-.21-.19-.29-.29-.09.11-.13.07-.18.27-.05-.84-.72.15-.82-.52.04,0,.12-.09.09-.1l-.29.06c-.03.23,0,.14,0,.33-.06.12-.15.21-.21.2.14-.12.08-.36.06-.5,0,.07-.04.14-.05.21-.04-.43-.12.45-.23.14l.03-.12c-.08.05-.16.2-.23.16.01-.27.09-.11.13-.33-.11,0-.27.48-.32.2.05-.07.11-.06.16-.13-.06-.32-.08-.25-.15-.31h0s-.16-.16-.16-.16l.04.09c-.19.67-.28.1-.47.56.18-.43.04-.25.06-.55-.04-.08-.11-.18-.09-.26-.09.24-.15-.19-.27.16,0-.1-.09,0-.08-.25-.11.08.03.17.03.29-.14.32-.45-.36-.64.12-.18.21-.16.53-.29.74-.09-.14-.03-.36-.03-.36-.13-.11-.2-.07-.27.07,0-.09-.04-.15-.1-.25-.07.05.05.35-.09.24-.02-.11-.04-.28-.04-.4-.07.11-.11.31-.17.42-.08-.15-.03-.26-.03-.38-.09.1-.22.26-.15.51l.1.06s-.1-.21-.09-.26c.01-.24.16.03.19.12l-.04.09c.25.5.22-.16.37-.17l.06.41.03-.37c.06.1.13.32.09.39.14.18.04-.16.17.04.02.03.02.05.01.07l.05-.14c0,.09.08.28.01.24.18.19.18-.35.29-.05v.03c.18-.16-.04-.3.08-.68l.19.73v-.31s.06.03.06.15c.06-.22-.03-.13,0-.33.12.25.29-.14.33.34.03-.23-.11-.18,0-.34.04.52.13-.09.23.15-.04.27-.12.13-.03.37.07-.46.17.1.25.01.03-.36.18-.13.32-.23-.02.12.22.23.31.38v.06c.08-.35.19-.26.3-.31-.05.21-.09.29-.16.38l.08.02c.05-.11.09-.16.15-.19l-.09.26c.1.01.31-.26.39-.04.09-.24.1-.72.31-.83-.04.13-.11.36-.16.4.02-.01.08-.09.09-.03l-.13.2c.03.12.1-.17.14-.13-.07.19,0,.15-.07.29-.02.01-.02-.09-.06-.03.05.06.07.19.04.34.03-.11.09-.25.14-.26.11.03-.05.24-.03.35.08-.12.09.04.2-.23.03.01-.02.14-.04.22.11-.11.26.08.33-.23v-.03s0,0,0,0h0s0,0,0,0c.31-.17.3.33.52.32l-.05.09c.15-.03.25.08.44-.05.03.02-.03.19-.11.28.11-.01.19-.1.2.11-.17.09-.06.14-.15.05.04.13-.04.28.22.14-.19.17-.13.3-.05.27l.05-.19c.07,0,.1.06.12.11l-.24.24c-.1.42.76-.24.41.36.21-.12.03-.2.26-.35.05.11-.23.51-.21.53-.04.21.45-.23.45-.03.08-.09.31-.31.47-.29.04.12-.31.41-.43.42-.02-.01,0-.05.03-.07-.05,0-.12,0-.2.11l.1-.06c-.06.12.03.21-.15.3.13-.01.18-.09.19-.17-.06.2.13.15.09.33.04-.05.15-.15.16-.13-.03.25.23-.05.35.04-.12.16-.38.2-.19.23-.07.13-.27.17-.36.19.26-.01-.02.25-.04.32h-.11c.06,0,.07.02.08.05l.2-.13s-.01.08-.1.12c.15-.03.35-.2.57-.22-.09.09.18.09-.1.23.04-.18-.29.14-.38.05.04,0,.05.03.03.08-.03.02-.06.02-.08.02-.21.22.35-.08.41.05-.17.05-.3.15-.26.15-.02-.05.27-.13.41-.12-.11.13.12.07.12.12l.05-.08c.17-.03.17.02.24.08-.13.04-.11-.04-.16,0,.32,0-.27.25-.03.3-.1.07-.32.08-.39.13.25.06-.22.15-.02.23.23-.07.17-.07.41-.02l-.19-.17.36.07c0-.06-.16-.1-.13-.15.2.03.14.03.33-.04-.34.15.23.15,0,.29l-.59.07c-.25.15.35.21.18.41l.11-.06c.23.02.03.12.12.18-.2,0-.27.03-.39.05.15,0-.02.12.38.17l-.26.06c-.12.13.53.24.44.39-.2-.08-.35-.04-.49-.16-.01.05-.05.08.08.11-.13,0,.24.19.05.19.08.04.28.09.26.15-.04,0-.09-.02-.09-.02.1.02.11.12.33.13-.65-.01-.11.46-.65.41.02.13.01.27-.02.37-.05-.03-.09-.04-.06-.05-.22.04.47.33.21.39-.32-.08-.11-.16-.24-.17-.57-.29-.01.21-.4.11l-.02-.04c-.23-.05.1.29-.01.38,0,0-.04-.04-.08-.06.23.27.19.48.18.64-.17-.19-.07-.13-.28-.27,0,.07.34.25.31.39-.13-.06-.28-.07-.5-.24l.06-.09c-.31-.19-.08.11-.16.12l-.11-.11c-.06.16.21.42.05.54l.1.07c.19.35-.21-.1-.09.18l-.29-.27c.02.12.09.45.03.58-.13-.27-.11-.47-.18-.66-.04.05-.14.16-.04.33,0-.05-.04-.14.02-.11.14.28.14.47.03.55-.44-.63-.39.07-.81-.39-.04.35-.42.14-.62.27.35.5-.06.05.22.59-.04.06-.07.06-.09.03l-.32-.25c-.11-.15,0-.15-.06-.27-.13,0-.15-.21-.28-.34.1.2.08.3-.02.25l.2.23c-.06.36-.32-.43-.37-.07v-.2c-.06.14-.3.1-.27.58-.03-.07-.09-.22-.07-.27-.2-.03-.37.62-.58.33v-.15s-.04.29-.1.14c0-.06,0-.15-.02-.16-.01.05-.08.27-.14.19l.04-.17c-.2-.17-.29.4-.5.51.02-.44-.12-.58-.18-.67v-.06c-.18-.1-.41.31-.68.4.01-.51-.38-.32-.44-.67,0,.09-.16.31-.21.33,0-.1-.27.2-.07-.15h.01c.16-.35.02-.29-.03-.35l-.29.44c.12-.39-.02-.4-.18-.41-.16,0-.3-.03-.11-.32-.13.06-.17.02-.3.07l.2-.2c-.05-.14-.07-.21-.23-.3l.18-.1c-.04-.08-.71.42-.79.35l.32-.28c-.13-.13.11-.49-.31-.44.05-.03.16-.09.19-.07-.04-.08.09-.4-.41-.11.33-.18-.04-.18-.24-.21l.26-.1c-.36.07-.45.1-.6.03.02-.04.2-.11.15-.05.09-.14-.27.03-.18-.14l.18-.02c-.01-.1-.1-.06-.31-.05-.13-.03,0-.21.24-.3-.15.03-.37.04-.32-.04.09-.03.15-.03.18-.03.13-.21-.37-.17-.14-.35.09-.02.13-.04.16-.06.02.13.03.24,0,.24.25-.07.27-.18.63-.19-.2-.02-.64-.07-.55-.2.02,0,.05-.02.08-.03h.03s0-.04-.05-.05c.03-.04.06-.06.06-.09.2-.05.1-.13.1-.18-.28.04-.24-.03-.46.06.02-.01.03,0,.05.04,0,0,.01.02.03.02h-.02s.02.08.04.13c-.15-.02-.28-.04-.13-.13-.18,0-.37,0-.46-.01.38-.13.58-.29.81-.33-.18-.14-.13-.35-.66-.46-.07-.05.15-.06.23-.07.05.03.04.06.12.07-.14-.09-.05-.27-.42-.31.17-.12.34.08.28-.09l.11.03c.31-.14.09-.27-.11-.44-.21-.16-.37-.36.05-.45-.05.01-.07.02-.14.01.4-.3-.06-.95.6-1.1.15-.05-.06-.17-.18-.32l.28.12-.25-.28c-.13-.3.79.17.5-.28l-.18-.1c.08-.04.05-.28.22-.12-.02-.03-.14-.15-.04-.11l.12.1-.07-.32c.19-.03.44.45.6.33,0-.09-.17-.49-.26-.55-.03.02-.12-.01-.23-.13v-.12c-.3-.35-.56-.77-.95-.84l.08.33-.2-.12.09-.11c-.21-.09-.11.08-.06.21-.1-.07-.17-.11-.23-.12l.21.42c-.15-.11-.22-.3-.37-.28.1.19.36.22.37.4-.21-.08-.34-.21-.25-.02-.1-.07-.15-.13-.17-.19.06.16-.09.22.08.41-.26-.09-.11.27-.47,0,.07.08.2.32.17.39-.37-.4-.18.23-.64-.08.36.33,0,.45.15.73-.03-.02-.09-.08-.06-.08-.08.08-.23.05-.34.08.35.17.38.35.58.52-.4-.02-.4-.24-.75-.33.3.11.22.33.48.37-.25.01-.13.04-.46-.02.46.17.05.11.31.28-.28.06-.46-.1-.35.1-.16.03-.3-.15-.3-.15ZM.78,7.91h0s-.02-.05-.03-.06c0,.01.02.03.04.06ZM.84,8.19s0-.08-.02-.12c.09-.03.19-.04.19-.01-.07,0-.11.08-.18.14ZM2.64,7.29s0,.05-.06.06c0-.01-.02-.03-.04-.05h-.03c.05,0,.1,0,.14,0Z" style="fill: #202020; stroke-width: 0px;"/>
        <path d="M2.27,7.28s-.02,0-.02-.01c-.02.01-.04.02-.06.03h.09s0-.02,0-.02Z" style="fill: #202020; stroke-width: 0px;"/>
        <path d="M8.98,1.96h0s0-.02,0-.03c0,.01,0,.02,0,.03Z" style="fill: #202020; stroke-width: 0px;"/>
        <polygon points="2.46 12 2.51 11.95 2.45 11.97 2.46 12" style="fill: #202020; stroke-width: 0px;"/>
        <path d="M7.93.59s0-.05,0-.08c0,.02,0,.05,0,.08Z" style="fill: #202020; stroke-width: 0px;"/>
        <path d="M7.28.41l-.08-.11c.04.06.06.09.08.11Z" style="fill: #202020; stroke-width: 0px;"/>
        <path d="M6.76.23s-.01.09-.01.12h0s.01-.12.01-.12Z" style="fill: #202020; stroke-width: 0px;"/>
        <path d="M13.46,4.83s0,.01.02.02c.07.03.04,0-.02-.02Z" style="fill: #202020; stroke-width: 0px;"/>
        <path d="M11.67,2.95c.05-.01.11-.03.15-.02-.01-.05-.03-.08-.15.02Z" style="fill: #202020; stroke-width: 0px;"/>
        <polygon points="13.92 7.92 13.92 7.92 13.91 7.94 13.92 7.92" style="fill: #202020; stroke-width: 0px;"/>
        <path d="M11.88,3.01c.02-.07-.02-.09-.07-.09,0,.04.01.09.07.09Z" style="fill: #202020; stroke-width: 0px;"/>
        <path d="M4.42.49h-.03s.01.03.01.04l.02-.04Z" style="fill: #202020; stroke-width: 0px;"/>
        <path d="M4.4.53l-.02.04s.02-.01.02-.04Z" style="fill: #202020; stroke-width: 0px;"/>
        <path d="M4.36.67l.03-.09s-.05.01-.03.09Z" style="fill: #202020; stroke-width: 0px;"/>
        <path d="M5.15.4l-.02-.1s0,.05.02.1Z" style="fill: #202020; stroke-width: 0px;"/>
        <path d="M5.36.31c-.05,0-.17-.18-.23-.1v.08c.01-.16.22.2.23.02Z" style="fill: #202020; stroke-width: 0px;"/>
        <path d="M6.32,1.46s-.1-.05-.15-.07c.03.1.07.25.01.28.19.3-.05-.25.14-.21Z" style="fill: #202020; stroke-width: 0px;"/>
        <path d="M6.77,1.62c-.08.05,0,.16-.01.22.05-.1.06-.12.01-.22Z" style="fill: #202020; stroke-width: 0px;"/>
        <path d="M9.75,2.66l-.15.21c.07,0,.06-.08.15-.21Z" style="fill: #202020; stroke-width: 0px;"/>
        <polygon points="11.1 2.03 11.15 1.86 10.97 2.02 11.1 2.03" style="fill: #202020; stroke-width: 0px;"/>
        <polygon points="10.16 3.63 10.12 3.64 10.25 3.64 10.16 3.63" style="fill: #202020; stroke-width: 0px;"/>
        <path d="M11.35,7.91l.3.09c-.04-.06-.37-.18-.3-.09Z" style="fill: #202020; stroke-width: 0px;"/>
        <path d="M10.42,9.9c-.13-.09-.24-.13-.16.01.05-.02.17.03.16-.01Z" style="fill: #202020; stroke-width: 0px;"/>
        <polygon points="4.56 10.44 4.64 10.37 4.54 10.4 4.56 10.44" style="fill: #202020; stroke-width: 0px;"/>
      </g>
    </g>
  </g>
</svg>