<?xml version="1.0" encoding="UTF-8"?>
<svg id="Layer_2" data-name="Layer 2" xmlns="http://www.w3.org/2000/svg" viewBox="0 0 22.41 19.81">
  <g id="Layer_30" data-name="Layer 30">
    <g>
      <path d="M3.93,1.12C-1.04,6.12,1.51,16.16,8.26,18.17c6.76,2.02,14.39-4.98,12.96-11.89-.72-3.49-4.73-6.72-7.7-4.75" style="fill: #eaeaea; stroke-width: 0px;"/>
      <g>
        <path d="M13.16.98c.03.09.14.24.2.17l-.12-.31-.07.14Z" style="fill: #202020; stroke-width: 0px;"/>
        <path d="M13.95,1.24c0-.19,0-.5-.18-.75.04.34-.04.23.04.62-.05.07-.17-.03-.22-.14.02.09-.15,0-.09.2.23.17.33.12.36-.13.06.05.07.14.09.2Z" style="fill: #202020; stroke-width: 0px;"/>
        <path d="M19.81,4.15v-.06s0,.04,0,.06Z" style="fill: #202020; stroke-width: 0px;"/>
        <path d="M20.73,8.19s-.04-.05-.07-.05c.02.03.04.05.07.05Z" style="fill: #202020; stroke-width: 0px;"/>
        <path d="M20.33,8.87s.02-.03.03-.04c-.03.01-.05.03-.03.04Z" style="fill: #202020; stroke-width: 0px;"/>
        <path d="M19.81,4.15l-.03.15c.1-.05.04-.09.03-.15Z" style="fill: #202020; stroke-width: 0px;"/>
        <path d="M14.8.15s-.05.05-.07.1c.02-.02.05-.03.07-.05v-.05Z" style="fill: #202020; stroke-width: 0px;"/>
        <path d="M18.4,2.93l-.02-.02s-.07.05-.11.08l.13-.06Z" style="fill: #202020; stroke-width: 0px;"/>
        <path d="M17.26,2.2s.16-.22.23-.32c-.07.09-.12.13-.15.14-.03.05-.05.11-.08.18Z" style="fill: #202020; stroke-width: 0px;"/>
        <path d="M15.29,1.23l-.04.04s.02-.03.04-.04Z" style="fill: #202020; stroke-width: 0px;"/>
        <path d="M19.05,3.68s-.05.06-.07.07c.03-.02.05-.05.07-.07Z" style="fill: #202020; stroke-width: 0px;"/>
        <path d="M1.72,1.81s.03.02.04.03c-.02-.02-.03-.04-.04-.03Z" style="fill: #202020; stroke-width: 0px;"/>
        <polygon points="3.98 1.18 3.98 1.2 4.09 1.32 3.98 1.18" style="fill: #202020; stroke-width: 0px;"/>
        <path d="M19.73,10.02h0s-.02-.02,0,0Z" style="fill: #202020; stroke-width: 0px;"/>
        <path d="M11.57,17.29c.16.24-.18.34.05.6-.03-.11.13-.45-.05-.6Z" style="fill: #202020; stroke-width: 0px;"/>
        <path d="M14.85.18s.05-.01.08-.01c-.04,0-.06,0-.08.01Z" style="fill: #202020; stroke-width: 0px;"/>
        <path d="M11.63,17.89h0s.02.03.02.03c-.01-.01-.02-.02-.02-.03Z" style="fill: #202020; stroke-width: 0px;"/>
        <path d="M18.69,12.69s.08.03.12.04c-.02-.01-.06-.03-.12-.04Z" style="fill: #202020; stroke-width: 0px;"/>
        <path d="M20.05,10.9l-.05.04s.04-.03.05-.04Z" style="fill: #202020; stroke-width: 0px;"/>
        <path d="M18.32,13.85s-.07,0-.07.05c.01,0,.02,0,.03.01-.02-.04-.02-.06.03-.06Z" style="fill: #202020; stroke-width: 0px;"/>
        <path d="M17.49,14.76s.04.02.06.02l.02-.04h-.07Z" style="fill: #202020; stroke-width: 0px;"/>
        <path d="M.29,6.09c.08-.02.17-.03.26-.03-.2,0-.24-.23-.26.03Z" style="fill: #202020; stroke-width: 0px;"/>
        <path d="M14.82.31c0-.07,0-.11.03-.13-.02,0-.03.01-.05.02,0,.04,0,.08.02.1Z" style="fill: #202020; stroke-width: 0px;"/>
        <path d="M19.99,15.31l-.18.16c.06-.03.13-.09.18-.16Z" style="fill: #202020; stroke-width: 0px;"/>
        <path d="M2.98,15.87l-.06-.02s.03.03.06.02Z" style="fill: #202020; stroke-width: 0px;"/>
        <path d="M19.37,16c-.1-.04-.17-.05-.23-.04,0,.02.01.04.03.07l.2-.03Z" style="fill: #202020; stroke-width: 0px;"/>
        <path d="M.55,6.06h0s0,0,0,0Z" style="fill: #202020; stroke-width: 0px;"/>
        <path d="M.24,4.4c-.07.22.32.2.51.31.03.28-.3.05-.5.09.05.19.34.39.3.51-.06,0-.09.01-.16-.03.24.23-.07.52.26.78-.03,0-.07.01-.09.01.19,0,.37.02.51.05,0,.09.21.2-.04.2.02-.06-.08-.07-.15-.11l.09.11c-.36.04-.1-.15-.35-.19.08.21.34.47.22.6-.34,0-.06-.36-.39-.19l.16-.22c-.56.11.06-.14-.53-.05-.14.31.1.37,0,.68.19.08.28,0,.47.08.33.45-.86.31-.42.66.22.09.65.12.42.35l-.38-.07c-.04.31.54.16.31.48-.16-.05-.15-.23-.19-.18-.29.22.23.14.24.29l-.34.05c.08.32.36.65.45.99-.1,0-.21-.05-.31.05.25.42.14.94.03,1.43l.33.09s-.11.1-.17.08c-.06.19.18-.04.32,0,.05.09-.12.17-.23.13.33.23.76.64.56,1.04l-.1-.03c-.02.27.67.03.5.34l-.07-.02c.09.54.55.94.39,1.49.4-.15.1.56.62.28-.09.41-.24.4-.14.86.05.11.4-.07.54,0l-.25.19.37-.04-.23.31.14.06c-.02-.05.04-.18.11-.22.23.07.13.54.03.64l.54.19c-.1.08-.19.05-.29.05.42-.02-.2.26.18.24.03-.07.14-.11.19-.15-.05.22.15.42.35.51l-.17.13c.24.31.69.43,1.02.7-.06-.17.19-.45.3-.4l-.15.29c.18-.12-.03-.18.24-.28.1.12-.13.37-.27.4l.22.02c-.05.09-.11.1-.19.2.17-.11.1.46.4.22l-.04.09c.38.22.6.22.92.38.13-.25.22-.12.41-.29.19.17.37.48.66.57.25-.06.14-.2.28-.33-.07.25.22.33.02.45.35.1.47.08.96-.02-.03-.11-.07-.17-.02-.25.09-.02.16.14.12.26l-.03.02c.29-.14.53.12.79.32.26.19.54.35.76.1l-.02.03.43-.25c.19.05-.12.19.03.35.45-.43.73.01,1.09-.29.4.75,1.01-.21,1.49.17l-.06-.17c.06-.19.15.07.23.09-.05-.13-.15-.13-.11-.24.76-.42,1.77-.28,2.65-.57.32-.11-.27-.89.29-.7l.06.34c.34-.68,1.15-.68,1.43-1.35.02.08.08.16.03.2.25.11.39-.3.26-.46.09-.04.13.12.24.16.2.02.06-.45.27-.31.04.02.02.08.02.11,0-.14.33-.25.08-.39.26-.07.23-.41.47-.42-.14-.3.39-.19.09-.51.32.32.56-.05.48-.31.07.13.19-.01.3.16.1-.14.13-.32-.07-.44.62.08.03-.75.7-.48.07-.57.17-1.05.31-1.48.39.23-.22.44.2.66.08-.46-.17-.86.1-1.19.1-.07.15.14.2.21,0-.47.41-.73.28-1.2.04.02.07.07.09.12,0-.08.12-.15-.08-.21l.03.09c-.32,0-.5-.48-.65-.54.52.3.25-.3.9.1-.02-.06-.1-.15-.23-.17.06-.06.14-.06.27.06-.03-.29-.27-.25-.19-.48.1.02.12.08.22.13-.14-.17-.32-.33-.2-.51.06.02.14.02.12.08.03-.36-.41-.67-.16-1.01.41.16.17-.11.53-.09l-.1-.22-.18.07c.01-.18-.25-.35-.13-.5l.15.14-.06-.34-.15.19c-.19-.18-.47,0-.36-.22.04.05,0-.17.23-.26h0c-.12-.08-.23-.16-.15-.29.12-.04.42,0,.49-.02-.32-.07-.14-.41-.48-.49.08.03.28,0,.32,0l-.26-.04c.07-.09.11-.11.26-.11.01-.25-.46.14-.29-.18.02.02.06,0,.1.04.07-.31-.22-.53-.18-.82.34-.17.15.21.44.05-.16-.41-.67-.68-.73-1.06v.08c-.51.16.12-.36-.2-.43.06.02.29-.07.23-.06-.04-.28-.36-.43-.71-.67l.14-.03c.02-.2-.16-.38-.21-.55-.14.04-.18-.05-.3.12.16-.44-.08-.58-.33-.67-.25-.1-.49-.16-.44-.54.04.04.18,0,.15-.03l-.37-.17c-.13.19-.05.14-.12.33-.13.07-.27.08-.34.02.22,0,.24-.28.26-.43-.04.06-.11.11-.15.17.1-.44-.32.34-.35-.03l.08-.09c-.12-.01-.28.06-.35-.03.12-.25.16-.04.29-.21-.13-.09-.53.25-.5-.04.09-.03.17.02.27-.01.04-.34-.02-.29-.09-.39h0s-.16-.25-.16-.25l.02.11c-.5.5-.42-.08-.85.22.4-.29.14-.21.28-.48-.03-.11-.09-.24-.03-.3-.21.17-.14-.27-.45,0,.02-.09-.13-.05-.03-.28-.19.02-.01.17-.06.29-.32.23-.53-.56-1-.17-.35.16-.42.5-.68.65-.1-.16.06-.35.06-.35-.16-.16-.29-.1-.42.03.02-.09-.02-.16-.08-.26-.12.04-.02.36-.21.24,0-.11,0-.29.05-.4-.14.1-.25.32-.36.46-.09-.15.02-.28.04-.4-.16.13-.41.3-.35.56l.13.06c-.05.03-.11-.21-.08-.27.08-.25.23.02.27.11l-.08.09c.26.51.35-.22.59-.2v.42c.03-.12.08-.25.14-.37.06.1.11.33.03.4.15.19.1-.16.23.05.01.04,0,.06,0,.07l.12-.12c-.02.09.03.29-.05.23.21.25.36-.3.43.01l-.02.03c.32-.11.05-.31.35-.62.02.26.03.52.03.77l.09-.29s.09.05.05.17c.17-.18,0-.13.12-.31.09.3.48.01.35.48.13-.2-.09-.22.13-.32-.13.5.22-.02.27.27-.15.23-.21.04-.18.32.26-.38.2.21.34.17.18-.33.29,0,.53,0-.07.09.21.37.27.59l-.04.04c.25-.27.37-.11.52-.06-.15.16-.22.21-.34.24l.09.09c.1-.07.17-.09.26-.06l-.21.18c.13.1.49,0,.5.29.2-.16.39-.63.69-.56-.09.1-.26.27-.35.26.03,0,.14-.02.12.05l-.24.08c0,.15.18-.09.22-.01-.15.13-.06.14-.19.23-.03,0,.01-.11-.07-.08.04.09.02.25-.07.38.08-.08.2-.17.27-.14.12.13-.15.2-.17.34.13-.05.08.12.32-.05.03.04-.07.13-.13.19.16-.01.27.31.47.05v-.03s.02,0,.02,0h0s0,0,0,0c.41.11.2.62.43.82l-.09.04c.18.11.24.32.47.36.02.05-.12.18-.24.2.12.1.23.08.14.31-.21-.07-.13.09-.17-.09-.01.19-.17.26.14.36-.26.01-.28.2-.18.26l.15-.15c.06.08.06.16.06.24l-.34.03c-.35.38.76.51.12.86.24.07.14-.2.42-.15-.02.17-.48.37-.47.41-.17.22.48.18.36.42.12-.03.44-.06.54.12-.05.17-.5.19-.6.09,0-.04.03-.06.07-.05-.04-.05-.09-.12-.22-.06l.12.02c-.12.08-.12.29-.31.23.11.12.19.06.26-.03-.18.19,0,.32-.14.52.07-.03.22-.04.21,0-.2.29.2.16.21.39-.2.09-.42-.11-.31.13-.14.11-.31-.03-.4-.09.19.22-.21.31-.26.4l-.08-.11c.05.07.04.11.03.16h.24s-.06.09-.15.07c.14.1.4.05.57.22-.14.05.05.27-.26.21.18-.21-.31-.06-.3-.27.02.05,0,.09-.05.14-.04,0-.06-.03-.07-.04-.34.14.31.2.23.43-.16-.08-.34-.05-.31,0,.03-.09.3.05.4.18-.18.11.05.2,0,.28l.09-.07c.16.09.11.16.13.29-.13-.04-.06-.13-.13-.12.26.24-.42.14-.29.38-.14.03-.31-.13-.41-.1.13.27-.31.08-.22.34.24.05.19.02.34.25v-.38s.21.35.21.35c.05-.09-.04-.26.02-.3.13.18.08.14.28.18-.38-.02.07.35-.22.4l-.52-.28c-.32.09.05.51-.24.71l.14-.03c.18.16-.08.18-.05.32-.16-.11-.26-.1-.38-.13.12.08-.13.19.18.43l-.3-.03c-.24.13.27.56.06.73-.12-.19-.3-.19-.32-.41-.05.06-.13.1-.02.18-.13-.04.07.35-.13.29.05.08.2.23.12.29-.04-.02-.07-.06-.07-.06.07.06,0,.2.22.28-.63-.22-.49.57-1.02.36-.08.18-.19.38-.32.49-.03-.05-.06-.07-.03-.08-.3,0,.26.52-.08.53-.31-.16,0-.22-.14-.26-.44-.48-.19.27-.56.08v-.06c-.22-.09-.09.4-.31.48,0,0-.02-.05-.05-.08.07.35-.12.6-.25.8-.08-.25.01-.17-.16-.37-.06.08.24.34.12.51-.13-.09-.3-.11-.46-.35.05-.03.09-.07.14-.11-.25-.25-.19.13-.3.11l-.07-.14c-.21.16-.03.51-.31.62l.08.09c.02.42-.22-.14-.24.2l-.21-.34c-.05.14-.19.5-.35.63,0-.31.15-.51.2-.74-.09.05-.31.15-.29.35.03-.05.04-.16.1-.11,0,.33-.11.53-.32.6-.22-.75-.57.03-.88-.54-.28.34-.7.05-1.08.15.23.58-.11.03-.01.63-.09.05-.13.04-.15,0l-.33-.34c-.08-.17.08-.14.06-.28-.2-.03-.1-.25-.24-.4.04.22-.05.32-.17.25l.17.27c-.28.35-.26-.47-.53-.18l.09-.19c-.14.1-.5-.04-.69.44-.02-.07-.04-.24.03-.28-.32-.06-.84.38-1.06.05l.06-.14c-.07.03-.18.25-.22.09.02-.06.06-.14.04-.15-.04.04-.24.22-.3.11l.12-.14c-.25-.29-.61.2-.94.19.17-.41-.02-.63-.11-.74l.03-.05c-.3-.24-.73,0-1.16-.05.08-.53-.5-.65-.62-1.07,0,.09-.24.26-.31.24,0-.13-.38.04-.09-.24l.02.03c.23-.33.04-.38-.05-.49l-.4.35c.29-.75-.86-.57-.44-1.16-.16,0-.23-.08-.39-.08l.24-.16c-.1-.23-.1-.37-.32-.59l.2-.05c-.07-.15-.81.22-.91.08l.35-.25c-.18-.26.06-.7-.41-.82.06-.02.17-.06.21-.02-.05-.14.05-.6-.47-.35.34-.14-.07-.31-.28-.42l.27-.06c-.38-.02-.47,0-.63-.16.02-.06.2-.1.15-.02.09-.19-.29-.04-.21-.27l.19.02c-.03-.16-.12-.12-.34-.16-.14-.07,0-.33.24-.41-.15.01-.37-.03-.32-.14.09-.03.16,0,.19,0,.13-.3-.4-.34-.17-.58.09-.02.13-.04.16-.06.04.21.05.39.03.37.25-.05.26-.22.64-.16-.21-.09-.68-.26-.59-.44.02-.01.05-.02.09-.03h.03s0-.06-.05-.09c.04-.06.07-.09.07-.15.21-.04.1-.2.1-.29-.28.03-.24-.09-.47.04.02-.02.03.01.05.07,0,.01.01.03.03.03h-.03c.01.05.03.13.04.21-.15-.05-.27-.11-.13-.22-.18-.03-.37-.06-.46-.08.38-.16.57-.4.81-.44-.2-.25-.1-.6-.63-.78-.07-.08.15-.08.24-.11.05.05.04.1.12.12-.13-.15-.04-.45-.41-.51.17-.18.33.13.28-.13l.11.04c.33-.22.13-.44-.06-.69-.17-.24-.36-.53.1-.72-.06.03-.08.04-.15.04.25-.28.27-.62.31-.96.06-.33.19-.66.55-.84.17-.12-.04-.24-.15-.43l.29.11-.2-.33c-.07-.38.88,0,.65-.56l-.19-.08c.08-.09.14-.39.31-.23-.02-.03-.14-.16-.03-.13l.13.09v-.4c.23-.11.44.43.68.21.03-.13-.11-.59-.21-.63-.04.03-.16.03-.27-.07l.02-.15c-.32-.34-.58-.77-1.04-.73l.05.37-.22-.09.12-.16c-.23-.06-.14.13-.1.27-.1-.06-.19-.09-.25-.09l.19.46c-.16-.09-.21-.31-.39-.25.09.21.39.18.38.4-.24-.05-.36-.17-.3.04-.11-.06-.15-.13-.16-.2.03.18-.15.29.02.48-.28-.05-.15.37-.52.12.07.09.18.37.14.47-.35-.44-.24.33-.71.01.32.35-.06.59.07.94-.03-.03-.09-.09-.06-.1-.09.12-.24.1-.36.16.35.17.35.42.52.61-.42.03-.39-.26-.75-.34.3.11.17.41.44.44-.27.05-.14.07-.47.04.46.18.04.15.3.35-.28.12-.45-.09-.37.17-.17.06-.29-.18-.29-.18ZM.7,9.58h0s-.02-.08-.02-.1c0,.02.01.05.03.1ZM.79,9.98c0-.05,0-.11-.02-.18.09-.03.19-.03.2.01-.07-.01-.11.09-.17.17ZM2.6,8.91c.04.05,0,.08-.07.09,0-.03-.02-.06-.04-.09h-.03c.05,0,.1,0,.14,0Z" style="fill: #202020; stroke-width: 0px;"/>
        <path d="M2.23,8.85s-.02-.01-.02-.02c-.02.02-.04.03-.06.04h.09s0-.02,0-.02Z" style="fill: #202020; stroke-width: 0px;"/>
        <path d="M19.82,4.08h0s.01-.01.02-.03c0,.01-.02.02-.02.03Z" style="fill: #202020; stroke-width: 0px;"/>
        <polygon points="2.58 15.56 2.64 15.52 2.57 15.52 2.58 15.56" style="fill: #202020; stroke-width: 0px;"/>
        <path d="M19.07,1.82s.02-.05.02-.07c-.01.02-.02.04-.02.07Z" style="fill: #202020; stroke-width: 0px;"/>
        <path d="M18.28,1.19l-.07-.16c.03.08.05.13.07.16Z" style="fill: #202020; stroke-width: 0px;"/>
        <path d="M17.64.69s-.05.07-.06.1h0s.06-.1.06-.1Z" style="fill: #202020; stroke-width: 0px;"/>
        <path d="M21.83,11.5s0,.02,0,.03c.03.09.02.03,0-.03Z" style="fill: #202020; stroke-width: 0px;"/>
        <path d="M21.8,7.79c.05.04.1.07.13.11.02-.06.03-.12-.13-.11Z" style="fill: #202020; stroke-width: 0px;"/>
        <polygon points="20.01 15.29 20.01 15.29 19.99 15.31 20.01 15.29" style="fill: #202020; stroke-width: 0px;"/>
        <path d="M21.93,8.07c.06-.06.05-.12,0-.17-.02.05-.05.11,0,.17Z" style="fill: #202020; stroke-width: 0px;"/>
        <path d="M14.02.32h-.05s0,.04.01.05l.03-.05Z" style="fill: #202020; stroke-width: 0px;"/>
        <path d="M13.99.37l-.03.05s.04-.02.03-.05Z" style="fill: #202020; stroke-width: 0px;"/>
        <path d="M13.89.51l.07-.1s-.08.02-.07.1Z" style="fill: #202020; stroke-width: 0px;"/>
        <path d="M15.19.2v-.1s0,.06,0,.1Z" style="fill: #202020; stroke-width: 0px;"/>
        <path d="M15.53.17c-.08-.02-.22-.22-.33-.15v.08c.05-.16.26.24.33.07Z" style="fill: #202020; stroke-width: 0px;"/>
        <path d="M16.57,1.6l-.19-.15c.01.12.02.27-.08.27.17.39,0-.25.27-.12Z" style="fill: #202020; stroke-width: 0px;"/>
        <path d="M17.13,1.98c-.12,0-.07.14-.1.2.11-.06.13-.07.1-.2Z" style="fill: #202020; stroke-width: 0px;"/>
        <path d="M20.34,5.57l-.24.08c.07.07.09-.03.24-.08Z" style="fill: #202020; stroke-width: 0px;"/>
        <path d="M21.9,6.21s.09-.09.14-.14h-.24s.08.09.11.14Z" style="fill: #202020; stroke-width: 0px;"/>
        <polygon points="20.17 7.09 20.13 7.05 20.24 7.19 20.17 7.09" style="fill: #202020; stroke-width: 0px;"/>
        <path d="M17.46,14.42l.24.2c0-.09-.24-.34-.24-.2Z" style="fill: #202020; stroke-width: 0px;"/>
        <path d="M14.72,16.8c-.11-.12-.24-.17-.23,0,.08-.02.21.06.23,0Z" style="fill: #202020; stroke-width: 0px;"/>
        <polygon points="5.19 14.76 5.31 14.74 5.16 14.71 5.19 14.76" style="fill: #202020; stroke-width: 0px;"/>
      </g>
    </g>
  </g>
</svg>