<?xml version="1.0" encoding="UTF-8"?>
<svg id="Layer_2" data-name="Layer 2" xmlns="http://www.w3.org/2000/svg" viewBox="0 0 9.82 12.51">
  <g id="Layer_30" data-name="Layer 30">
    <g>
      <path d="M3.51,2.89C-.18,4.36,1.27,11.24,5.24,11.1c3.79-1.81,4.88-7.56,2.01-10.63" style="fill: #eaeaea; stroke-width: 0px;"/>
      <g>
        <path d="M7.74.01c-.07.05-.21.19-.16.19l.26-.2h-.1Z" style="fill: #202020; stroke-width: 0px;"/>
        <path d="M7.43.61c.15-.07.4-.22.61-.43-.27.17-.18.08-.49.29-.05,0,.04-.12.14-.19-.07.05.02-.09-.15.03-.16.21-.13.26.06.17-.05.06-.12.1-.17.14Z" style="fill: #202020; stroke-width: 0px;"/>
        <path d="M8.3,3.72l.04-.03s-.03.02-.04.03Z" style="fill: #202020; stroke-width: 0px;"/>
        <path d="M8.17,5.62s-.04-.02-.07-.03c.02.02.04.03.07.03Z" style="fill: #202020; stroke-width: 0px;"/>
        <path d="M7.77,5.89s.02,0,.02-.01c-.03,0-.05,0-.02.01Z" style="fill: #202020; stroke-width: 0px;"/>
        <path d="M8.3,3.72l-.09.07c.11-.01.07-.04.09-.07Z" style="fill: #202020; stroke-width: 0px;"/>
        <path d="M8.37.5s-.05,0-.09.02c.02,0,.03,0,.05,0l.04-.03Z" style="fill: #202020; stroke-width: 0px;"/>
        <path d="M7.85,2.97h0s-.08,0-.13.01h.14Z" style="fill: #202020; stroke-width: 0px;"/>
        <path d="M7.59,2.42s.25-.09.37-.13c-.11.04-.16.05-.19.05-.05.02-.11.05-.18.09Z" style="fill: #202020; stroke-width: 0px;"/>
        <path d="M7.54,1.29h-.04s.03,0,.04,0Z" style="fill: #202020; stroke-width: 0px;"/>
        <path d="M7.92,3.41s-.08.02-.1.03l.1-.03Z" style="fill: #202020; stroke-width: 0px;"/>
        <path d="M2.03,2.22s.02.03.03.04c-.01-.03-.02-.04-.03-.04Z" style="fill: #202020; stroke-width: 0px;"/>
        <polygon points="3.54 2.96 3.53 2.98 3.59 3.12 3.54 2.96" style="fill: #202020; stroke-width: 0px;"/>
        <path d="M7.3,6.35h0s-.02-.01,0,0Z" style="fill: #202020; stroke-width: 0px;"/>
        <path d="M4.92,9.92c.06.26,0,.32.07.61-.01-.11-.02-.44-.07-.61Z" style="fill: #202020; stroke-width: 0px;"/>
        <path d="M8.36.54s.02.01.02.02c0-.02,0-.02-.02-.02Z" style="fill: #202020; stroke-width: 0px;"/>
        <path d="M4.99,10.52h0s0,.03,0,.03c0-.01,0-.02,0-.03Z" style="fill: #202020; stroke-width: 0px;"/>
        <path d="M7.05,7.56s.08.03.12.04c-.03-.01-.06-.02-.12-.04Z" style="fill: #202020; stroke-width: 0px;"/>
        <path d="M7.77,6.82h-.04s.04,0,.04,0Z" style="fill: #202020; stroke-width: 0px;"/>
        <path d="M7.17,8.19s-.06-.02-.04.02c.01,0,.02,0,.03.01-.03-.02-.04-.04,0-.03Z" style="fill: #202020; stroke-width: 0px;"/>
        <path d="M6.9,8.64s.03.02.05.02v-.02s-.05,0-.05,0Z" style="fill: #202020; stroke-width: 0px;"/>
        <path d="M.62,4.26c.08.01.17.04.25.06-.19-.07-.21-.2-.25-.06Z" style="fill: #202020; stroke-width: 0px;"/>
        <path d="M8.25.6c.06-.04.09-.05.11-.06h-.03s-.07.04-.08.06Z" style="fill: #202020; stroke-width: 0px;"/>
        <path d="M9.08,9.32l-.1.08s.07-.04.1-.08Z" style="fill: #202020; stroke-width: 0px;"/>
        <path d="M.92,9.39h-.04s0,0,.04,0Z" style="fill: #202020; stroke-width: 0px;"/>
        <path d="M8.84,9.71c-.09-.04-.15-.05-.2-.05.02.02.03.03.05.05h.14Z" style="fill: #202020; stroke-width: 0px;"/>
        <path d="M.87,4.33h0s0,0,0,0Z" style="fill: #202020; stroke-width: 0px;"/>
        <path d="M.67,3.27c-.09.11.27.24.43.38.02.17-.27-.08-.45-.14.04.14.31.36.27.41-.06-.02-.08-.02-.14-.07.22.22-.11.26.18.5-.03,0-.06-.01-.09-.02.18.06.35.13.47.18-.01.04.18.16-.05.09.02-.02-.07-.06-.13-.1l.08.08c-.34-.09-.08-.11-.32-.2.05.14.29.34.18.38-.33-.09-.06-.21-.37-.21.05-.02.1-.05.16-.07-.54-.1.07-.06-.5-.18-.15.13.1.24-.04.37.17.09.27.07.44.16.27.3-.87-.05-.48.23.21.1.62.2.37.26l-.37-.12c-.07.15.53.19.25.3-.15-.05-.11-.14-.16-.12-.31.05.2.11.19.19l-.34-.04c.03.18.25.38.3.55-.1-.02-.2-.05-.31-.02.16.23-.04.47-.24.72l.29.07s-.13.04-.19.03c-.11.09.19,0,.3.03.02.05-.17.08-.26.05.26.14.59.35.3.55l-.09-.02c-.1.14.61.03.36.18h-.05c-.08.27.27.46-.11.78.41-.09-.11.31.46.13-.22.23-.33.23-.43.51,0,.07.37-.06.46-.03l-.28.13.33-.05-.31.2.1.03s.1-.11.18-.15c.16.03-.09.32-.22.4l.36.09c-.11.06-.17.04-.25.05.34-.04-.27.18.05.15.05-.05.16-.09.22-.12-.13.15-.05.27.07.32l-.19.1c.05.2.33.28.46.45.03-.12.32-.34.39-.32l-.23.23c.18-.1.05-.13.29-.23.02.08-.25.28-.36.32h.15c-.07.07-.12.09-.22.16.18-.1-.13.36.17.16l-.07.07c.16.17.33.15.48.26.18-.21.2-.12.38-.26.04.14,0,.43.18.49.18-.06.16-.18.29-.3-.13.22.02.28-.15.4.19.06.25.08.55.01.02-.11.02-.16.07-.23.05-.02.04.14-.02.25l-.02.02c.2-.11.27.09.37.3.1.21.22.4.39.17l-.02.02c.1-.07.19-.14.28-.23.1.05-.09.18-.04.35.26-.4.52.1.77-.17.14.36.37.46.52.26.16-.15.31-.32.56-.18l-.1-.15c-.01-.19.13.05.2.05-.08-.12-.15-.1-.16-.21.29-.39.87-.27,1.35-.43.16-.08-.54-.75-.12-.57l.18.28c-.05-.52.5-.44.43-.92.05.06.12.13.1.15.22.1.16-.18,0-.3.05-.02.15.1.24.14.15.03-.14-.32.07-.2.03.02.05.06.06.08-.07-.1.15-.14-.1-.27.18-.01.03-.25.21-.23-.23-.22.23-.08-.13-.34.38.25.42.02.27-.15.11.09.16.02.3.14.04-.08,0-.18-.21-.28.55.12-.25-.47.4-.23-.12-.33-.16-.59-.19-.82.42.18-.05.23.39.41-.08-.26-.42-.51-.24-.66.08-.03.17.09.24.14-.11-.25.17-.36,0-.6.04.01.08.04.11.07,0-.04.08-.06-.11-.11l.05.05c-.3-.03-.56-.3-.72-.35.55.21.18-.12.88.16-.03-.03-.12-.09-.25-.11.05-.02.13-.01.27.06-.08-.15-.3-.16-.27-.27.1.02.13.05.24.09-.17-.1-.35-.2-.25-.27.06.02.14.02.13.05.01-.17-.44-.36-.24-.5.42.12.15-.04.52.01l-.1-.11h-.18c.02-.07-.24-.18-.11-.23l.14.08-.05-.16-.15.07c-.18-.1-.47-.05-.35-.14.04.02.01-.08.24-.1h0c-.11-.05-.24-.1-.14-.15.12,0,.41.04.49.04-.31-.06-.08-.2-.41-.26.08.02.27.03.31.03l-.25-.04c.08-.03.12-.04.28-.03.05-.11-.47.02-.27-.11.02.01.06,0,.1.03.11-.13-.15-.26-.03-.38.38-.04.09.11.41.06-.07-.19-.47-.36-.39-.54l-.04.04c-.53.02.25-.15,0-.22.04.02.29,0,.24,0,.08-.13-.15-.23-.35-.38h.14c.11-.09.04-.19.08-.28-.14,0-.12-.04-.31.02.72-.4-.49-.33.07-.68,0,.02.13.02.13,0l-.17-.14c-.22.08-.13.06-.29.15-.14.02-.25,0-.26-.03.17.02.35-.11.47-.19-.07.03-.14.04-.21.07.36-.22-.45.13-.22-.07l.12-.03c-.07-.02-.23,0-.22-.06.24-.11.13,0,.34-.07-.04-.06-.53.06-.3-.1.08,0,.1.04.18.04.27-.18.19-.16.21-.22h0s.08-.16.08-.16l-.07.06c-.68.19-.19-.12-.65-.03.44-.08.23-.09.51-.21.06-.06.13-.15.21-.17-.24.05.13-.18-.22-.09.09-.05-.02-.06.2-.16-.11-.03-.14.1-.25.15-.35.06.21-.44-.28-.35-.24-.03-.52.13-.72.12.11-.12.31-.17.31-.17.08-.14.04-.18-.1-.16.08-.04.13-.09.2-.17-.06-.03-.31.18-.24.04.09-.06.24-.15.35-.19-.11,0-.3.06-.41.06.12-.12.23-.13.33-.18-.11-.01-.25-.06-.47.09l-.05.1s.17-.16.22-.17c.21-.08-.01.13-.09.19h-.08c-.42.39.18.09.22.18l-.36.22.34-.13c-.08.08-.26.22-.34.22-.13.16.15-.04,0,.13-.03.03-.04.03-.06.04l.13-.02c-.08.04-.24.17-.21.11-.15.22.35-.03.1.18h-.03c.19.06.27-.14.63-.23l-.61.45.27-.14s0,.06-.12.11c.21-.05.11-.07.3-.14-.21.2.22.12-.21.36.22-.08.13-.15.31-.15-.46.26.12.04-.07.21-.25.1-.15-.02-.34.14.43-.16-.04.16.06.17.33-.14.19.05.34.08-.11.04-.11.23-.22.35l-.06.02c.35-.11.31,0,.4.04-.21.06-.3.08-.4.08l.02.05c.12-.02.18-.02.23,0l-.27.07c.04.07.36.06.21.2.25-.06.66-.26.86-.19-.13.04-.36.1-.42.09.02,0,.12,0,.07.04h-.24c-.09.08.2,0,.19.03-.19.05-.13.06-.28.09-.02,0,.07-.05,0-.05-.02.05-.13.13-.27.17.11-.03.26-.06.29-.04.03.07-.23.08-.32.14.14-.01,0,.07.3,0,0,.02-.13.05-.21.08.13.01.07.18.37.08h.02s0-.01.01,0h0s0,0,0,0c.31.09-.1.3.02.42h-.1c.12.08.08.18.29.22,0,.02-.18.07-.29.07.08.06.19.06.03.15-.18-.05-.15.03-.13-.06-.08.08-.24.1.04.18-.26-.02-.31.06-.24.1l.18-.06s.01.08-.01.11l-.33-.02c-.41.14.68.3,0,.39.23.05.17-.08.44-.03-.05.07-.53.12-.53.14-.19.08.48.13.34.22.12,0,.44.02.54.11-.05.07-.51.03-.6-.02,0-.02.03-.02.07-.02-.04-.03-.09-.06-.22-.05l.12.02c-.13.02-.13.12-.32.07.1.07.19.05.26.02-.18.07-.02.14-.15.22.07,0,.21,0,.2.02-.16.11.21.1.25.2-.19.02-.42-.1-.29.03-.13.03-.31-.05-.4-.09.2.12-.18.12-.24.15l-.08-.06s.04.06.04.08l.24.03s-.05.04-.15.01c.15.06.39.07.58.17-.13,0,.1.14-.21.07.13-.08-.31-.07-.34-.16.03.03.03.05-.02.06-.04,0-.06-.02-.08-.03-.3.03.33.13.3.24-.17-.06-.33-.07-.3-.04.01-.04.29.06.41.14-.15.03.08.1.05.13l.08-.02c.17.06.13.09.17.16-.13-.04-.08-.07-.14-.07.28.15-.35.02-.18.16-.13,0-.32-.1-.4-.1.19.15-.26,0-.11.14.23.06.18.03.38.18l-.11-.2.29.21s-.11-.14-.06-.15c.17.11.11.09.31.13-.36-.06.15.19-.1.18l-.55-.22c-.27,0,.22.29.02.35h.11c.21.11,0,.09.06.17-.18-.09-.25-.09-.37-.13.13.06-.05.08.29.27l-.26-.06c-.14.05.45.38.33.44-.17-.13-.32-.16-.42-.29-.02.03-.07.04.05.11-.12-.04.18.21,0,.15.07.06.24.17.21.19-.04-.02-.08-.05-.08-.05.08.05.08.12.29.21-.58-.23-.14.31-.63.1,0,.1,0,.21-.03.28-.04-.04-.08-.06-.05-.06-.21-.04.41.39.17.36-.29-.15-.1-.16-.21-.2-.52-.4-.02.16-.35-.02l-.02-.04c-.2-.1.11.27,0,.3,0,0-.04-.04-.07-.07.2.27.19.44.18.57-.16-.2-.06-.13-.26-.3,0,.06.3.29.29.4-.12-.08-.24-.13-.44-.32l.04-.06c-.27-.23-.06.08-.13.06l-.1-.12c-.04.12.21.41.09.47l.09.08c.19.34-.19-.13-.06.13l-.26-.3c.03.1.11.4.08.51-.13-.27-.15-.45-.21-.62-.04.02-.1.11,0,.28,0-.04-.05-.13,0-.09.14.28.17.45.09.51-.41-.64-.31-.04-.67-.52.06.29-.14-.05-.17,0,.15.6-.02.02.09.63-.03.04-.04.03-.05-.01-.04-.12-.07-.25-.09-.37,0-.18,0-.13,0-.27,0-.05,0-.26,0-.42,0,.22-.01.31,0,.23-.01.09-.02.19-.02.28-.06.32.01-.51-.1-.2l.06-.19c-.07.13-.13-.05-.31.42.01-.07.05-.23.08-.27-.06-.1-.44.44-.4.09l.07-.13s-.16.23-.11.08c.03-.05.08-.13.07-.14-.03.04-.17.2-.16.11l.1-.13c.01-.22-.37.28-.53.28.26-.36.28-.53.29-.62l.04-.05c-.05-.13-.42.15-.64.13.3-.39-.05-.36.09-.63-.06.06-.28.19-.33.19.06-.08-.31.08.04-.13h0c.32-.22.2-.22.18-.27l-.46.26c.59-.48-.45-.23.15-.6-.13.02-.15-.02-.29,0l.26-.1c.03-.12.04-.16-.06-.26l.2-.04c0-.07-.8.17-.83.1l.4-.14c-.04-.12.29-.32-.12-.35.06-.01.18-.03.2-.02,0-.06.25-.26-.32-.14.37-.06.02-.13-.16-.18l.28-.02c-.36-.01-.46,0-.57-.08.03-.02.22-.04.15,0,.14-.08-.28-.03-.13-.12l.18.02c.02-.07-.07-.06-.28-.08-.11-.04.07-.14.32-.15-.15,0-.36-.04-.29-.08.1,0,.15,0,.18.02.19-.11-.33-.18-.05-.25.09,0,.14,0,.17,0,0,.09-.02.16-.04.15.26,0,.3-.06.66,0-.19-.05-.63-.16-.49-.22.03,0,.05,0,.09,0h.03s0-.02-.04-.03c.04-.02.08-.03.08-.05.21.01.12-.06.14-.09-.28-.03-.23-.07-.46-.06.02,0,.03.01.04.04,0,0,.01.01.03.02h-.02s0,.05,0,.08c-.14-.04-.25-.08-.09-.11-.18-.04-.36-.09-.44-.11.4,0,.62-.06.86-.04-.15-.13-.06-.24-.55-.44-.06-.05.16,0,.24.01.05.03.03.05.1.08-.11-.09,0-.18-.35-.31.18-.03.31.14.28.02l.1.05c.3,0,.1-.15-.05-.31-.16-.16-.28-.35.1-.27-.05,0-.07-.01-.13-.04.2-.05.2-.19.25-.33.04-.13.09-.29.38-.18.13.03-.03-.14-.12-.3l.22.21-.17-.31c-.06-.28.58.45.41,0l-.13-.16c.07,0,.08-.18.2.03-.01-.03-.09-.19-.02-.11l.08.14c0-.1-.02-.2-.02-.3.14.06.27.57.39.54,0-.07-.07-.49-.12-.58-.02,0-.09-.06-.15-.21l.02-.1c-.17-.43-.28-.91-.58-1.12v.32s-.13-.19-.13-.19l.09-.06c-.14-.16-.1.03-.08.16-.06-.1-.12-.17-.16-.2l.1.45c-.1-.15-.12-.35-.25-.39.05.21.25.33.23.49-.15-.16-.23-.31-.2-.12-.07-.1-.1-.17-.1-.23.02.15-.12.14-.01.36-.21-.19-.13.18-.38-.18.04.1.12.35.09.4-.25-.48-.19.12-.54-.33.25.41-.09.36,0,.64-.02-.03-.07-.1-.04-.09-.08.03-.2-.04-.3-.06.29.27.28.42.43.62-.35-.16-.33-.33-.62-.54.25.2.14.34.37.47-.23-.08-.13-.02-.41-.18.39.3.02.11.24.33-.26-.05-.4-.23-.35-.05-.16-.03-.24-.22-.24-.22ZM.65,6.09h0s0-.04,0-.05c0,.01,0,.03.02.05ZM.65,6.29s.01-.05.01-.09c.1,0,.2,0,.19.03-.07-.01-.12.03-.2.06ZM2.62,6.06s-.02.03-.08.02c0-.01-.01-.02-.03-.04h-.03c.05,0,.1.01.14.02Z" style="fill: #202020; stroke-width: 0px;"/>
        <path d="M2.25,5.98s-.02,0-.02-.01c-.03,0-.05,0-.06,0l.09.02h0Z" style="fill: #202020; stroke-width: 0px;"/>
        <path d="M8.34,3.69h0s.02,0,.04,0c-.01,0-.02,0-.03,0Z" style="fill: #202020; stroke-width: 0px;"/>
        <polygon points=".7 9.22 .76 9.19 .7 9.2 .7 9.22" style="fill: #202020; stroke-width: 0px;"/>
        <path d="M9.04,2.49s.05-.02.06-.04c-.02,0-.04.02-.06.04Z" style="fill: #202020; stroke-width: 0px;"/>
        <path d="M8.94,2.04l.07-.1s-.06.08-.07.1Z" style="fill: #202020; stroke-width: 0px;"/>
        <path d="M8.93,1.65s-.08.03-.11.04h0s.11-.04.11-.04Z" style="fill: #202020; stroke-width: 0px;"/>
        <path d="M9.58,7.34s0,.01,0,.02c.04.05.03.02,0-.02Z" style="fill: #202020; stroke-width: 0px;"/>
        <path d="M9.26,5.55s.1.04.13.06c.03-.03.03-.05-.13-.06Z" style="fill: #202020; stroke-width: 0px;"/>
        <polygon points="9.09 9.31 9.09 9.31 9.08 9.32 9.09 9.31" style="fill: #202020; stroke-width: 0px;"/>
        <path d="M9.37,5.69c.06-.02.05-.05.02-.08-.02.02-.05.05-.02.08Z" style="fill: #202020; stroke-width: 0px;"/>
        <path d="M8.18.23v-.02s-.03.02-.04.03h.04Z" style="fill: #202020; stroke-width: 0px;"/>
        <path d="M8.14.23h-.04s.01.02.04,0Z" style="fill: #202020; stroke-width: 0px;"/>
        <path d="M8.03.25h.08s-.01-.04-.08,0Z" style="fill: #202020; stroke-width: 0px;"/>
        <path d="M8.38.69l.09-.05s-.05.03-.09.05Z" style="fill: #202020; stroke-width: 0px;"/>
        <path d="M8.48.8s.13-.2.05-.2l-.07.04c.14-.06-.15.23.02.16Z" style="fill: #202020; stroke-width: 0px;"/>
        <path d="M7.69,1.92l.02-.13c-.09.07-.2.16-.25.13-.22.26.2-.14.23,0Z" style="fill: #202020; stroke-width: 0px;"/>
        <path d="M7.68,2.27c-.07-.03-.14.07-.2.09.1-.01.13-.01.2-.09Z" style="fill: #202020; stroke-width: 0px;"/>
        <path d="M8.2,4.42h-.26s.1,0,.26,0Z" style="fill: #202020; stroke-width: 0px;"/>
        <polygon points="9.54 4.85 9.7 4.8 9.47 4.78 9.54 4.85" style="fill: #202020; stroke-width: 0px;"/>
        <polygon points="7.71 5.08 7.68 5.06 7.77 5.13 7.71 5.08" style="fill: #202020; stroke-width: 0px;"/>
        <path d="M6.74,8.42l.27.17c-.03-.06-.32-.26-.27-.17Z" style="fill: #202020; stroke-width: 0px;"/>
        <path d="M5.96,9.77c-.11-.11-.21-.16-.14-.03.04,0,.15.07.14.03Z" style="fill: #202020; stroke-width: 0px;"/>
        <polygon points="3.16 8.52 3.27 8.49 3.17 8.49 3.16 8.52" style="fill: #202020; stroke-width: 0px;"/>
      </g>
    </g>
  </g>
</svg>