<?xml version="1.0" encoding="UTF-8"?>
<svg id="Layer_2" data-name="Layer 2" xmlns="http://www.w3.org/2000/svg" viewBox="0 0 10.13 11.24">
  <g id="Layer_30" data-name="Layer 30">
    <g>
      <path d="M3.74,1.05C-.11,2.49,1.02,9.58,5.13,9.74S10.93,2.93,7.21,1.19" style="fill: #eaeaea; stroke-width: 0px;"/>
      <g>
        <path d="M7.49.59c-.05.07-.12.25-.08.24l.17-.28-.09.05Z" style="fill: #202020; stroke-width: 0px;"/>
        <path d="M7.43,1.26c.11-.12.3-.34.42-.62-.2.25-.14.13-.36.44-.05.02,0-.13.06-.23-.05.07-.02-.1-.13.08-.07.25-.03.29.12.14-.02.07-.08.14-.11.19Z" style="fill: #202020; stroke-width: 0px;"/>
        <path d="M8.73,4l.03-.03s-.03.02-.03.03Z" style="fill: #202020; stroke-width: 0px;"/>
        <path d="M8.51,5.82s-.04-.03-.07-.03c.02.02.04.03.07.03Z" style="fill: #202020; stroke-width: 0px;"/>
        <path d="M8.09,6.02s.02,0,.03-.01c-.03,0-.05,0-.03.01Z" style="fill: #202020; stroke-width: 0px;"/>
        <path d="M8.73,4l-.09.06c.11-.01.07-.04.09-.06Z" style="fill: #202020; stroke-width: 0px;"/>
        <path d="M8.3.86s-.05.02-.08.05c.02,0,.03,0,.05-.01l.03-.04Z" style="fill: #202020; stroke-width: 0px;"/>
        <path d="M8.26,3.34h0s-.08.01-.13.03l.13-.03Z" style="fill: #202020; stroke-width: 0px;"/>
        <path d="M7.96,2.88s.24-.13.34-.19c-.1.05-.15.08-.18.08-.04.03-.1.07-.16.11Z" style="fill: #202020; stroke-width: 0px;"/>
        <path d="M7.73,1.86l-.04.02s.02-.01.04-.02Z" style="fill: #202020; stroke-width: 0px;"/>
        <path d="M8.33,3.74s-.07.02-.1.03l.1-.03Z" style="fill: #202020; stroke-width: 0px;"/>
        <path d="M2.3.32s.02.03.03.04c-.01-.03-.02-.04-.03-.04Z" style="fill: #202020; stroke-width: 0px;"/>
        <polygon points="3.77 1.12 3.76 1.14 3.82 1.29 3.77 1.12" style="fill: #202020; stroke-width: 0px;"/>
        <path d="M7.6,6.4h0s-.02-.01,0,0Z" style="fill: #202020; stroke-width: 0px;"/>
        <path d="M4.66,8.5c-.02.26-.16.28-.17.58.03-.11.18-.4.17-.58Z" style="fill: #202020; stroke-width: 0px;"/>
        <path d="M8.29.9s.02,0,.03.02c0-.02-.02-.02-.03-.02Z" style="fill: #202020; stroke-width: 0px;"/>
        <path d="M4.5,9.08h0s0,.03,0,.03c0-.01,0-.02,0-.03Z" style="fill: #202020; stroke-width: 0px;"/>
        <path d="M7.22,7.45s.07.04.1.06c-.02-.02-.05-.04-.1-.06Z" style="fill: #202020; stroke-width: 0px;"/>
        <path d="M8,6.89h-.04s.04,0,.04,0Z" style="fill: #202020; stroke-width: 0px;"/>
        <path d="M7.23,8.04s-.05-.03-.04,0c.01,0,.02.01.03.02-.02-.03-.03-.05,0-.03Z" style="fill: #202020; stroke-width: 0px;"/>
        <path d="M6.88,8.36s.03.03.04.04v-.02s-.04-.02-.04-.02Z" style="fill: #202020; stroke-width: 0px;"/>
        <path d="M.83,2.22c.08.02.16.05.24.08-.18-.08-.19-.21-.24-.08Z" style="fill: #202020; stroke-width: 0px;"/>
        <path d="M8.2.99c.05-.05.07-.08.09-.09h-.03s-.05.06-.06.09Z" style="fill: #202020; stroke-width: 0px;"/>
        <path d="M8.82,9.6l-.11.06s.08-.03.11-.06Z" style="fill: #202020; stroke-width: 0px;"/>
        <path d="M.63,7.24h-.04s0,0,.04,0Z" style="fill: #202020; stroke-width: 0px;"/>
        <path d="M8.45,9.94c-.08-.06-.14-.09-.18-.1.01.02.02.04.04.06l.14.04Z" style="fill: #202020; stroke-width: 0px;"/>
        <path d="M1.07,2.31h0s0,0,0,0Z" style="fill: #202020; stroke-width: 0px;"/>
        <path d="M.94,1.26c-.09.1.26.26.41.4,0,.17-.26-.11-.45-.17.02.13.28.37.24.42-.05-.03-.08-.03-.14-.08.21.23-.12.25.16.51-.03,0-.06-.02-.09-.03.17.07.34.16.46.22-.02.04.17.18-.05.08.02-.02-.07-.07-.13-.11l.07.09c-.33-.11-.08-.11-.31-.23.05.14.26.36.14.38-.32-.12-.02-.2-.35-.24l.17-.05c-.53-.15.07-.05-.49-.22-.17.11.06.24-.08.36.16.1.26.09.43.2.25.32-.86-.13-.49.18.2.11.61.25.35.29l-.36-.15c-.09.14.5.23.21.31-.14-.06-.09-.15-.14-.14-.32.02.18.13.17.2l-.33-.06c.02.17.23.39.27.57-.1-.02-.2-.07-.31-.05.12.24-.11.46-.31.68l.29.09s-.13.03-.19,0c-.11.08.19.01.3.05.02.05-.17.06-.26.03.24.16.52.4.23.56l-.09-.02c-.11.13.61.09.35.21l-.05-.02c-.1.27.18.49-.2.76.42-.05-.13.29.45.17-.25.21-.36.19-.51.45-.01.06.38-.02.46.02l-.29.09h.34s-.33.15-.33.15l.1.04s.11-.1.2-.12c.16.05-.12.3-.27.36l.33.13c-.12.04-.17.02-.25.02.34,0-.29.15.02.15.06-.04.17-.06.23-.09-.16.13-.09.25.03.31l-.2.08c.04.19.28.31.37.49.05-.12.37-.29.43-.26l-.27.19c.19-.07.08-.12.32-.18,0,.08-.29.24-.4.26l.15.02c-.08.06-.13.07-.24.13.19-.08-.17.32.15.17l-.08.06c.13.18.28.19.4.32.22-.18.21-.08.41-.19,0,.15-.05.4.08.49.18-.02.19-.15.34-.24-.17.19-.04.28-.23.36.17.09.2.14.52.11.04-.1.05-.15.11-.21.06-.01.01.14-.07.23l-.03.02c.41-.19.12.98.59.62l-.02.02.32-.17c.08.08-.13.15-.13.33.39-.31.35.2.63,0-.03.79.55.05.69.56v-.18c.08-.17.06.11.1.16,0-.14-.05-.17,0-.26.24-.06.46-.02.71.08.25.08.53.26.8.25.2,0-.12-.92.2-.57l.03.34c.12-.24.29-.29.47-.34.16-.07.34-.14.4-.37.02.08.07.16.04.18.18.18.25-.12.14-.29.06,0,.1.14.19.21.15.08,0-.35.15-.18.03.03.03.08.03.1-.03-.12.19-.11,0-.31.18.03.11-.24.29-.18-.15-.27.26-.02-.02-.36.3.34.42.12.31-.09.08.11.15.05.26.2.06-.07.05-.19-.13-.34.52.23-.13-.52.47-.15-.02-.35-.06-.64-.02-.87.38.24-.09.23.31.48-.03-.29-.31-.59-.1-.7.08-.02.16.12.21.17-.06-.27.21-.35.07-.62.04.02.07.05.1.09,0-.04.1-.05-.09-.13l.04.05c-.29-.07-.51-.37-.66-.44.52.28.21-.1.86.27-.03-.04-.1-.1-.23-.15.05-.02.13,0,.26.09-.05-.16-.28-.2-.24-.3.09.03.12.07.23.12-.16-.12-.33-.24-.22-.3.06.02.13.04.12.07.02-.17-.41-.41-.18-.52.4.16.15-.02.52.06l-.09-.12h-.18c.02-.09-.23-.22-.1-.26l.14.09-.04-.17-.15.06c-.17-.12-.46-.08-.34-.17.03.03.02-.07.24-.08h0c-.11-.06-.23-.12-.13-.16.12,0,.41.07.49.07-.3-.08-.05-.2-.38-.29.08.02.27.05.31.05l-.25-.06c.08-.03.12-.03.28,0,.05-.11-.47,0-.26-.12.02.01.06.01.1.04.11-.13-.15-.27-.02-.38.38-.03.09.11.41.08-.06-.2-.43-.38-.36-.56l-.04.03c-.53,0,.25-.14,0-.22.04.02.3,0,.24,0,.07-.13-.15-.24-.33-.39h.14c.11-.09.03-.2.07-.29-.14,0-.13-.04-.31.03.68-.43-.48-.31.04-.7.01.02.14.02.13,0l-.19-.13c-.21.1-.12.08-.27.17-.14.03-.25.03-.27,0,.17,0,.34-.14.45-.23-.06.03-.14.05-.2.08.34-.25-.43.17-.23-.05l.11-.05c-.07-.02-.23.02-.22-.04.23-.14.13-.01.33-.11-.05-.06-.5.11-.3-.07.08-.01.1.03.18.02.25-.21.18-.18.19-.25h0s.05-.17.05-.17l-.05.07c-.65.29-.22-.09-.66.07.42-.15.22-.13.47-.29.05-.07.1-.17.17-.21-.23.09.09-.21-.24-.06.07-.06-.03-.06.17-.2-.11-.02-.12.12-.22.19-.31.12.09-.49-.36-.3-.24.03-.48.26-.67.3.07-.15.25-.25.25-.25.04-.16-.02-.18-.14-.13.06-.06.09-.13.14-.22-.06-.01-.24.27-.22.11.07-.08.19-.22.28-.29-.11.03-.27.15-.38.19.08-.15.18-.19.26-.27-.11.02-.26.02-.42.24v.11s.1-.21.14-.24c.17-.14.03.13-.02.21l-.07.03c-.27.5.2.02.27.1l-.28.32.28-.23c-.05.1-.18.29-.25.31-.08.2.13-.08.02.13-.02.03-.03.05-.05.05l.12-.06c-.06.06-.18.23-.17.16-.09.24.32-.12.13.13h-.02c.2,0,.22-.2.55-.38l-.49.57.23-.2s0,.05-.09.13c.19-.1.09-.1.26-.21-.15.22.23.07-.14.39.2-.12.1-.17.27-.2-.4.34.12.02-.03.22-.23.14-.15.01-.31.2.39-.23-.02.15.08.14.31-.19.19,0,.34.02-.1.05-.11.25-.2.37l-.06.02c.34-.14.31-.04.4,0-.2.08-.29.1-.39.12l.02.05c.11-.03.18-.04.23-.02l-.26.09c.04.05.37.01.21.17.25-.07.66-.3.85-.24-.13.05-.36.12-.42.11.02,0,.12,0,.07.03l-.23.03c-.09.07.19-.03.18,0-.19.06-.13.07-.28.1-.02,0,.07-.05,0-.04-.02.05-.13.13-.27.18.11-.03.26-.07.29-.05.03.07-.22.08-.31.15.14-.02,0,.06.3,0,0,.02-.13.06-.21.08.14,0,.08.16.38.06h.02s0-.01.01,0h0s0,0,0,0c.33.08-.13.3,0,.4h-.1c.12.08.08.17.3.22,0,.02-.17.06-.29.06.08.05.19.06.03.15-.17-.06-.15.02-.12-.06-.09.08-.25.09.02.17-.25-.03-.32.05-.25.08l.18-.05s.01.07-.01.11l-.33-.03c-.41.1.68.32-.01.36.22.07.18-.06.44,0-.06.07-.54.07-.55.09-.2.06.47.16.32.24.12,0,.43.05.53.15-.06.07-.5-.01-.59-.07,0-.02.03-.02.07-.01-.04-.03-.08-.07-.21-.07l.12.03c-.12.01-.13.1-.31.04.1.07.19.06.25.04-.18.05-.02.13-.16.19.07,0,.21.02.2.04-.18.09.2.11.22.22-.19,0-.41-.14-.29,0-.13.02-.3-.08-.39-.13.2.14-.19.09-.24.11l-.08-.07s.04.06.03.08l.23.06s-.05.03-.15,0c.14.08.38.11.56.23-.12,0,.09.15-.21.04.13-.06-.3-.1-.32-.2.03.03.02.05-.02.05-.03,0-.06-.03-.07-.04-.3-.02.31.17.27.26-.16-.08-.32-.11-.29-.08.02-.03.28.1.39.19-.15,0,.06.11.03.13h.08c.16.08.12.1.15.17-.13-.06-.07-.08-.13-.09.26.18-.34-.03-.18.13-.12-.02-.3-.15-.38-.16.17.18-.25-.04-.12.11.22.1.17.07.34.23l-.07-.2.26.24s-.08-.15-.04-.15c.15.13.1.1.29.18-.34-.12.12.21-.13.15l-.51-.3c-.27-.06.17.3-.03.33l.11.02c.18.15-.02.09.04.18-.16-.12-.23-.14-.34-.2.12.09-.06.06.24.31l-.24-.12c-.14,0,.36.45.23.49-.14-.17-.27-.23-.35-.38-.02.02-.07.02.03.11-.1-.07.14.25-.02.14.05.07.2.22.16.24-.03-.03-.07-.07-.07-.07.07.07.05.14.23.27-.5-.37-.21.23-.62-.11-.01.1-.04.2-.09.26-.03-.05-.06-.08-.03-.07-.17-.1.26.5.05.38-.21-.25-.04-.17-.13-.26-.35-.55-.06.13-.31-.17v-.04c-.15-.18,0,.27-.09.27,0,0-.02-.05-.04-.09.09.34.02.47-.04.58-.06-.25,0-.14-.11-.38-.02.04.15.39.09.48-.07-.12-.16-.23-.24-.49l.06-.03c-.14-.33-.07.03-.13-.02l-.04-.15c-.07.08.01.46-.11.47l.03.11c0,.4-.09-.21-.11.08l-.08-.39c-.02.1-.1.39-.18.47.03-.3.1-.45.12-.62-.04,0-.12.04-.13.23.01-.04.02-.14.04-.08-.02.31-.09.47-.18.47,0-.77-.22-.17-.24-.79-.15.26-.22-.16-.35-.13-.09.58-.04.01-.19.61-.05.03-.06,0-.05-.03,0-.13,0-.26,0-.39.03-.18.07-.12.11-.25-.05-.07.05-.26.07-.42-.06.21-.12.29-.13.2l-.05.28c-.21.27.11-.51-.09-.24l.1-.17c-.09.09-.14-.05-.42.34.03-.07.1-.22.14-.24-.04-.12-.51.29-.42,0l.1-.11s-.21.19-.13.06c.04-.05.1-.11.1-.12-.04.03-.21.16-.18.07l.13-.11c.05-.23-.41.17-.58.15.32-.3.35-.46.39-.55l.05-.04c-.03-.14-.43.03-.66,0,.34-.32.02-.38.18-.63-.06.05-.31.15-.36.15.06-.07-.32.04.04-.12h0c.35-.18.22-.19.21-.24l-.49.2c.67-.42-.41-.29.22-.59-.14,0-.15-.04-.28-.04l.27-.07c.05-.11.07-.17-.02-.27l.2-.02c0-.06-.82.09-.85.02l.41-.1c-.04-.12.33-.29-.07-.36.06,0,.18-.01.2,0,0-.06.26-.23-.31-.17.38-.03.02-.12-.15-.19h.28c-.35-.04-.45-.05-.55-.13.04-.02.22-.02.15,0,.15-.06-.26-.05-.11-.13l.18.03c.02-.07-.07-.06-.28-.11-.11-.05.07-.13.33-.12-.15-.02-.36-.07-.28-.11.1,0,.15.02.18.03.19-.09-.3-.2-.02-.25.09.01.14.01.17.01-.02.08-.05.15-.07.14.26.02.31-.03.66.06-.18-.06-.58-.21-.45-.26.03,0,.05,0,.09,0h.03s0-.02-.03-.04c.05-.01.08-.02.08-.04.21.03.12-.05.14-.08-.28-.05-.22-.09-.46-.1.02,0,.03.01.04.04,0,0,.01.01.03.02h-.02s0,.05,0,.08c-.14-.05-.25-.11-.09-.11-.17-.06-.35-.12-.44-.14.39.03.61-.01.85.04-.12-.13-.03-.24-.5-.47-.05-.05.15.02.24.03.04.03.03.05.1.08-.11-.1,0-.18-.33-.34.18-.01.3.17.28.05l.1.06c.31.03.13-.12-.02-.3-.15-.17-.27-.37.11-.27-.05-.01-.07-.02-.12-.04.2-.03.23-.15.27-.3.04-.14.11-.29.39-.15.12.04-.03-.14-.11-.31l.2.22-.16-.32c-.05-.28.56.47.41.02l-.12-.17c.06.01.09-.18.19.03-.01-.03-.09-.19-.02-.11l.08.14v-.3c.12.06.25.57.36.55,0-.07-.05-.49-.1-.58-.02,0-.08-.07-.14-.21l.02-.1c-.16-.44-.26-.91-.55-1.14v.32s-.13-.19-.13-.19l.09-.06c-.14-.17-.1.02-.08.16-.06-.1-.11-.17-.15-.2l.09.45c-.1-.16-.11-.35-.23-.4.04.21.23.34.22.5-.15-.16-.22-.32-.19-.13-.07-.1-.09-.17-.09-.23.01.15-.12.13-.02.36-.19-.2-.14.16-.38-.21.04.1.11.35.08.4-.23-.49-.18.11-.51-.35.23.42-.1.35-.03.64-.02-.03-.06-.1-.04-.09-.09.02-.21-.07-.31-.09.27.28.26.44.4.64-.34-.18-.31-.35-.59-.57.24.21.13.34.35.49-.22-.1-.12-.03-.4-.2.37.32.02.11.22.34-.26-.07-.38-.26-.34-.08-.16-.04-.23-.23-.23-.23ZM.71,4.01h0s0-.04,0-.05c0,.01,0,.03.01.05ZM.68,4.21s.02-.05.03-.08c.1,0,.2.03.19.05-.06-.02-.13.02-.21.04ZM2.67,4.16s-.02.02-.08.02c0-.01-.01-.02-.03-.04h-.03c.05,0,.1.02.14.03Z" style="fill: #202020; stroke-width: 0px;"/>
        <path d="M2.31,4.05s-.02,0-.02-.01c-.03,0-.05,0-.06,0l.08.03h0Z" style="fill: #202020; stroke-width: 0px;"/>
        <path d="M8.77,3.97h0s.02,0,.04,0c-.01,0-.02,0-.03,0Z" style="fill: #202020; stroke-width: 0px;"/>
        <polygon points=".42 7.07 .49 7.04 .42 7.04 .42 7.07" style="fill: #202020; stroke-width: 0px;"/>
        <path d="M9.4,2.76s.04-.03.06-.04c-.02,0-.04.02-.06.04Z" style="fill: #202020; stroke-width: 0px;"/>
        <path d="M9.26,2.3l.05-.11c-.03.05-.04.09-.05.11Z" style="fill: #202020; stroke-width: 0px;"/>
        <path d="M9.16,1.91s-.07.04-.1.06h0s.1-.06.1-.06Z" style="fill: #202020; stroke-width: 0px;"/>
        <path d="M9.72,7.65s0,.01,0,.02c.04.05.03.02,0-.02Z" style="fill: #202020; stroke-width: 0px;"/>
        <path d="M9.59,5.83s.09.05.12.07c.03-.03.04-.05-.12-.07Z" style="fill: #202020; stroke-width: 0px;"/>
        <polygon points="8.83 9.59 8.82 9.59 8.82 9.6 8.83 9.59" style="fill: #202020; stroke-width: 0px;"/>
        <path d="M9.7,5.98c.06-.02.05-.05.02-.08-.02.02-.06.04-.02.08Z" style="fill: #202020; stroke-width: 0px;"/>
        <path d="M8.01.65v-.02s-.03.03-.04.04l.04-.02Z" style="fill: #202020; stroke-width: 0px;"/>
        <path d="M7.97.67l-.04.02s.02,0,.04-.02Z" style="fill: #202020; stroke-width: 0px;"/>
        <path d="M7.86.72l.07-.04s-.02-.03-.07.04Z" style="fill: #202020; stroke-width: 0px;"/>
        <path d="M8.37,1.05l.07-.08s-.04.04-.07.08Z" style="fill: #202020; stroke-width: 0px;"/>
        <path d="M8.5,1.13s.07-.23-.01-.22l-.05.06c.12-.1-.07.27.07.16Z" style="fill: #202020; stroke-width: 0px;"/>
        <path d="M8,2.4s0-.08,0-.12c-.07.08-.17.19-.21.18-.17.29.17-.18.22-.06Z" style="fill: #202020; stroke-width: 0px;"/>
        <path d="M8.03,2.73c-.07-.01-.13.09-.18.12.1-.03.12-.04.18-.12Z" style="fill: #202020; stroke-width: 0px;"/>
        <path d="M8.62,4.67h-.26s.1,0,.26,0Z" style="fill: #202020; stroke-width: 0px;"/>
        <polygon points="9.93 5.15 10.09 5.1 9.86 5.07 9.93 5.15" style="fill: #202020; stroke-width: 0px;"/>
        <polygon points="8.1 5.27 8.06 5.25 8.15 5.32 8.1 5.27" style="fill: #202020; stroke-width: 0px;"/>
        <path d="M6.79,8.11l.21.24c-.02-.06-.24-.33-.21-.24Z" style="fill: #202020; stroke-width: 0px;"/>
        <path d="M5.77,8.97c-.04-.15-.09-.24-.09-.09.03.02.09.14.09.09Z" style="fill: #202020; stroke-width: 0px;"/>
        <polygon points="2.96 6.66 3.07 6.64 2.97 6.63 2.96 6.66" style="fill: #202020; stroke-width: 0px;"/>
      </g>
    </g>
  </g>
</svg>