<?xml version="1.0" encoding="UTF-8"?>
<svg id="Layer_2" data-name="Layer 2" xmlns="http://www.w3.org/2000/svg" viewBox="0 0 37 28.58">
  <g id="Layer_30" data-name="Layer 30">
    <g>
      <path d="M15.32,2.55C9.61.38,2.72,4.9,1.58,10.9s2.77,12.27,8.32,14.82,12.25,1.75,17.65-1.09c4.07-2.14,7.76-5.77,8.3-10.33.62-5.22-3.24-10.24-8.11-12.21s-10.44-1.37-15.43.26" style="fill: #eaeaea; stroke-width: 0px;"/>
      <g>
        <path d="M12.09,1.72c-.02.1.07.27.19.19v-.35s-.19.15-.19.15Z" style="fill: #202020; stroke-width: 0px;"/>
        <path d="M13.21,2.02c.12-.2.23-.52.04-.79-.08.35-.16.23-.22.65-.13.08-.27-.03-.29-.15-.02.1-.24,0-.25.22.26.19.49.13.67-.15.07.06.05.15.05.21Z" style="fill: #202020; stroke-width: 0px;"/>
        <path d="M26.99,2.32l-.07-.07s.04.05.07.07Z" style="fill: #202020; stroke-width: 0px;"/>
        <path d="M33.43,7.52s-.08-.05-.11-.04c.05.04.09.07.11.04Z" style="fill: #202020; stroke-width: 0px;"/>
        <path d="M33.82,8.91s-.01-.05-.02-.08c-.01.04-.01.08.02.08Z" style="fill: #202020; stroke-width: 0px;"/>
        <path d="M26.99,2.32l.18.18c.05-.1-.08-.12-.18-.18Z" style="fill: #202020; stroke-width: 0px;"/>
        <path d="M14.92.74s-.08.07-.11.12c.04-.02.07-.04.11-.06v-.05Z" style="fill: #202020; stroke-width: 0px;"/>
        <path d="M23.31,1.73h-.07s-.05.07-.07.12l.14-.12Z" style="fill: #202020; stroke-width: 0px;"/>
        <path d="M20.45,1.65c.06.01.08-.27.1-.39-.04.12-.08.17-.14.2,0,.05.01.12.03.2Z" style="fill: #202020; stroke-width: 0px;"/>
        <path d="M15.83,1.71l-.07.06s.05-.04.07-.06Z" style="fill: #202020; stroke-width: 0px;"/>
        <path d="M25.3,2.15s0,.08,0,.1c0-.03,0-.07,0-.1Z" style="fill: #202020; stroke-width: 0px;"/>
        <path d="M11.9.69s0,.03,0,.05c.02-.03.02-.05,0-.05Z" style="fill: #202020; stroke-width: 0px;"/>
        <polygon points="15.29 2.62 15.24 2.62 15.18 2.76 15.29 2.62" style="fill: #202020; stroke-width: 0px;"/>
        <path d="M34.32,11.33s0-.01,0-.01c-.05-.05-.03-.02,0,.01Z" style="fill: #202020; stroke-width: 0px;"/>
        <path d="M19.72,25.93c.3.22-.4.37.04.6-.05-.1.31-.49-.04-.6Z" style="fill: #202020; stroke-width: 0px;"/>
        <path d="M15.01.76s.08-.02.12-.03c-.06,0-.09.01-.12.03Z" style="fill: #202020; stroke-width: 0px;"/>
        <path d="M19.76,26.53h0s.05.02.05.02c-.02,0-.03-.02-.05-.02Z" style="fill: #202020; stroke-width: 0px;"/>
        <path d="M33.94,16.72s.09,0,.14,0c-.03,0-.07-.01-.14,0Z" style="fill: #202020; stroke-width: 0px;"/>
        <path d="M35.08,12.67l-.03.11s.03-.08.03-.11Z" style="fill: #202020; stroke-width: 0px;"/>
        <path d="M33.18,18.86c-.05.04-.1.03-.11.12.02,0,.03,0,.04,0-.01-.05,0-.09.07-.12Z" style="fill: #202020; stroke-width: 0px;"/>
        <path d="M31.62,20.69s.05,0,.07,0l.04-.06-.12.06Z" style="fill: #202020; stroke-width: 0px;"/>
        <path d="M4.19,4.13c.1.02.19.06.27.1-.17-.12.1-.44-.27-.1Z" style="fill: #202020; stroke-width: 0px;"/>
        <path d="M14.96.89c0-.07.01-.11.05-.14-.03,0-.06.02-.08.03,0,.04,0,.08.03.1Z" style="fill: #202020; stroke-width: 0px;"/>
        <path d="M34.92,20.23l-.29.34c.1-.08.2-.21.29-.34Z" style="fill: #202020; stroke-width: 0px;"/>
        <path d="M3.61,22.19l-.09-.06s.05.06.09.06Z" style="fill: #202020; stroke-width: 0px;"/>
        <path d="M33.82,21.6c-.13,0-.22.01-.31.05,0,.03,0,.06.02.09l.29-.14Z" style="fill: #202020; stroke-width: 0px;"/>
        <path d="M4.46,4.23h0s0,0,0,0Z" style="fill: #202020; stroke-width: 0px;"/>
        <path d="M6.46,1.99c-.39.21,0,.41.03.64-.38.34-.35-.12-.59-.19-.22.27-.22.68-.42.8-.05-.04-.1-.03-.1-.12-.11.41-.77.63-.82,1.15-.04,0-.07-.02-.1-.04.17.1.3.23.38.34-.14.12-.09.39-.3.26.08-.07.02-.15,0-.24-.02.07-.04.14-.06.21-.36-.13.1-.27-.07-.45-.2.34-.29.86-.56.99-.29-.19.39-.56-.1-.49l.41-.23c-.62-.14.22-.17-.4-.35-.49.38-.38.59-.83,1,.06.23.24.15.3.37-.25.85-1.11,0-1.1.8.1.27.43.54,0,.79l-.25-.33c-.35.48.31.56-.2.97-.09-.16.1-.47.02-.41-.45.21.06.35-.07.62l-.34-.09c-.13.29-.16.64-.22.98-.06.34-.1.68-.14,1.03-.09-.06-.16-.21-.3-.08-.03.45-.16.9-.26,1.35-.13.45-.27.9-.38,1.32l.28.33c0,.07-.14.14-.19.06-.12.33.19.02.3.17.03.18-.16.25-.25.13.14.29.3.69.39,1.09.12.4.18.79.07,1.12l-.1-.1c-.04.49.7.39.53.86l-.07-.07c.1,1.02.77,1.93.68,2.81.43-.05.29.97.84.75.01.64-.14.54.12,1.34.09.2.48.07.69.24l-.25.18.48.1-.18.38.21.15c-.05-.09-.02-.25.06-.3.33.23.44.86.32.98.27.18.53.36.82.51-.1.07-.24,0-.39-.04.58.13-.17.29.36.41,0-.09.15-.11.2-.14.03.29.4.66.75.84l-.2.11c.49.51,1.21.85,1.85,1.29-.18-.23.08-.5.29-.41l-.1.32c.23-.09-.13-.23.25-.28.22.18-.03.42-.23.42l.36.09c-.03.09-.13.09-.21.19.23-.1.36.62.73.4l-.03.09c.7.37,1.07.43,1.67.64.12-.26.32-.1.57-.25.39.23.8.62,1.35.74.41-.04.17-.2.38-.32-.04.25.5.37.18.48.65.13.84.13,1.69.08-.07-.11-.16-.18-.1-.25.15-.02.32.15.28.27l-.04.02c.94-.25,2.09.96,2.86.42l-.04.03c.26-.09.51-.18.76-.29.35.03-.2.2.06.35.81-.46,1.32-.02,1.97-.38.31.35.78.25,1.26.13.48-.14.96-.33,1.37-.17l-.08-.16c.14-.22.24.04.38.05-.05-.13-.23-.1-.15-.23,1.44-.58,3.14-.69,4.69-1.25.55-.22-.11-.97.74-.92l-.03.39c.86-.89,2.13-1.2,2.87-2.18,0,.1.05.18-.05.25.35.05.73-.55.61-.7.15-.1.14.11.3.12.29-.04.28-.64.53-.55.04.01,0,.1-.02.15.05-.19.59-.49.28-.58.4-.22.52-.67.87-.82-.08-.38.63-.46.33-.81.32.31.79-.37.76-.73.06.16.26-.12.35.08.19-.27.28-.56.06-.65.79-.23.23-1.23.99-1.21.21-.99.38-1.88.46-2.74.44.14-.2.94.25,1.04.08-.87-.21-1.41.02-2.19.09-.2.18.14.24.23-.02-.43-.01-.83.02-1.22,0-.39-.02-.78-.16-1.13.04,0,.09.07.13.15-.01-.15.04-.35-.16-.31l.07.13c-.27.24-.69-.49-.85-.49.61.15.05-.71.83-.46-.05-.09-.17-.19-.3-.14,0-.14.08-.2.26-.09-.23-.49-.4-.25-.5-.7.1-.02.15.06.28.07-.23-.19-.49-.35-.54-.74.06,0,.12-.06.16.05-.23-.64-.87-.86-1.01-1.58.48,0,.01-.28.32-.49l-.28-.3-.08.23c-.15-.31-.56-.41-.61-.72l.26.13-.4-.5.08.38c-.34-.18-.37.29-.53-.13.08.05-.19-.26-.12-.53h0c-.2-.06-.38-.12-.47-.36.05-.12.35-.22.39-.31-.35.08-.58-.54-.97-.46.1,0,.25-.14.26-.18l-.28.08c-.05-.16-.04-.21.09-.3-.3-.36-.23.44-.48-.09.04.02.06-.03.15,0-.31-.48-.9-.59-1.2-1.01.12-.39.41.21.47-.15-.63-.43-1.5-.55-2.05-.99l.09.11c-.34.4-.33-.48-.77-.44.09,0,.24-.21.19-.16-.39-.31-.97-.33-1.7-.44l.13-.1c-.23-.21-.68-.34-.96-.47-.13.1-.29.03-.25.25-.71-1.04-1.82-.03-2.52-.8.1,0,.26-.08.18-.09l-.73.03c.03.24.08.15.2.35-.11.12-.31.21-.48.18.33-.11.04-.37-.09-.51.02.07-.04.15-.03.22-.33-.44-.1.46-.58.15l.03-.12c-.19.05-.37.19-.57.15-.07-.27.2-.12.23-.33-.29,0-.58.49-.83.21.12-.07.29-.07.42-.14-.27-.32-.31-.24-.52-.3h.02c-.16-.05-.33-.09-.49-.13l.13.08c-.35.71-.73.13-1.19.62.44-.46.06-.25.08-.56-.13-.08-.32-.16-.27-.25-.21.26-.4-.18-.7.22-.02-.1-.25.02-.22-.23-.29.11.09.16.07.29-.42.37-1.13-.28-1.72.27-.53.29-.57.62-1.04.89-.2-.12.07-.38.07-.38-.31-.08-.51-.01-.75.15.03-.09-.04-.15-.14-.24-.2.07-.06.38-.37.31.02-.12.04-.3.12-.43-.23.15-.43.39-.66.53-.11-.15.09-.29.15-.42-.27.14-.7.35-.72.63l.21.04c-.1.04-.11-.21-.05-.28.19-.27.38,0,.41.08l-.16.11c.33.5.7-.27,1.07-.33l-.06.44.29-.42c.1.09.21.3.04.4.3.15.2-.19.47-.02.03.03.02.05,0,.07l.23-.18c-.03.1.1.28-.07.25.49.14.67-.44.9-.16l-.03.03c.61-.25,0-.32.43-.74l.43.7.02-.31c.07,0,.2,0,.19.13.22-.24-.06-.13.06-.34.35.24.87-.22.98.25.09-.24-.32-.15,0-.34.14.51.39-.12.7.1-.07.28-.35.15-.05.37.15-.47.56.06.8-.02,0-.36.52-.18.93-.28-.03.12.76.21,1.12.38l-.02.06c.1-.36.49-.27.78-.3-.04.22-.1.3-.26.38l.26.03c.08-.11.16-.16.34-.18l-.1.26c.35.02.75-.21,1.16.05.08-.25-.23-.77.29-.85,0,.14-.04.37-.18.41.04-.01.17-.09.24,0l-.24.19c.18.14.15-.17.31-.11-.05.19.09.17.03.31-.04,0-.12-.11-.2-.05.17.08.37.24.4.41.01-.11.06-.26.2-.25.35.07.06.25.23.41.12-.11.29.09.38-.19.1.03.08.17.09.26.21-.08.81.23.72-.13l-.04-.04s.02,0,.03,0h0s0,0,0,0c.68-.08,1.1.61,1.67.75l-.05.09c.36.07.73.3,1.04.27.09.06.11.29.01.36.26.09.36,0,.58.36-.32-.02,0,.17-.3-.05.24.27.2.44.66.45-.26.13.02.4.18.45-.02-.1-.04-.2-.07-.29.17.08.27.21.39.33l-.28.2c.24.73,1.41.35,1.28,1.21.29-.02-.13-.39.18-.46.19.28.04.84.1.91.13.44.63.02.81.46.06-.11.28-.35.59-.13.15.31-.2.62-.39.5-.05-.06-.04-.11,0-.13-.09-.07-.21-.14-.24.03l.12-.03c-.01.2.23.56,0,.58.22.14.22-.02.18-.2.08.43.33.55.42.97.03-.09.12-.21.15-.15.16.61.33.14.55.51-.07.29-.43.1-.12.42-.01.28-.27.16-.4.11.38.25.09.7.12.9l-.15-.15c.09.09.12.18.15.27l.19-.17c0,.12.03.21-.07.24.18.07.36-.2.62-.02-.08.18.24.44-.06.56,0-.49-.3.12-.44-.26.05.07.07.16.06.27-.03.02-.07,0-.09-.03-.18.49.41.12.47.6-.18-.03-.32.15-.27.22-.02-.18.28-.13.44.03-.09.32.14.32.13.49l.06-.19c.18.05.16.21.23.43-.14.02-.1-.2-.16-.12.32.24-.29.55-.12.88-.13.15-.33,0-.42.12.21.38-.26.36-.14.75.25-.07.2-.1.38.21-.02-.22-.03-.44-.07-.66.11.15.19.3.28.46.04-.2-.08-.43-.04-.54.18.22.12.2.33.12-.38.23.12.58-.16.86l-.58-.13c-.36.37.11.87-.24,1.4l.16-.15c.19.15-.08.37-.08.59-.18-.09-.29,0-.44.02.13.05-.18.4.14.61l-.36.13c-.31.38.22.77-.1,1.16-.1-.24-.34-.13-.3-.48-.08.13-.19.23-.08.31-.14.01-.04.51-.27.53.03.11.18.25.06.39-.04,0-.08-.06-.08-.06.08.06-.08.31.2.31-.79.02-.89,1.14-1.6,1.08-.2.3-.48.64-.72.87-.02-.06-.06-.07,0-.1-.45.16.16.62-.38.79-.41-.08.11-.31-.1-.3-.46-.46-.42.46-.94.36l.04-.08c-.33-.02-.37.57-.76.77,0,0-.01-.06-.05-.08-.06.44-.49.83-.81,1.12-.01-.28.1-.21-.1-.39-.15.12.26.33-.04.58-.18-.06-.47-.04-.63-.26l.3-.18c-.33-.23-.39.23-.59.25l-.05-.15c-.46.28-.29.65-.83.86l.1.08c-.14.48-.33-.09-.51.3l-.24-.33c-.15.18-.54.62-.87.83.1-.35.46-.64.64-.9-.19.07-.64.27-.67.5.07-.07.13-.19.23-.16-.13.38-.39.65-.8.77-.17-.75-1.09.15-1.54-.36-.63.46-1.41.22-2.22.38.38.54-.24.06-.1.65-.19.07-.27.07-.29.03l-.64-.3c-.16-.16.17-.15.14-.29-.42,0-.2-.24-.49-.37.08.21-.12.33-.36.25.12.09.24.18.36.26-.57.36-.54-.49-1.11-.13l.18-.2c-.3.14-1.1,0-1.42.48-.05-.07-.11-.25.02-.28-.7-.11-1.66.39-2.18,0l.08-.14c-.14.02-.28.23-.42.05.02-.06.08-.14.02-.16-.08.04-.4.19-.56.07l.19-.14c-.63-.36-1.15.16-1.76.05.14-.43-.34-.71-.56-.89l.03-.05c-.72-.35-1.39-.21-2.14-.44-.16-.64-1.24-1.01-1.63-1.72.03.14-.23.25-.37.2-.07-.18-.58-.09-.29-.37l.04.05c.16-.38-.15-.56-.34-.76l-.41.34c0-.52-.34-.85-.71-1.13-.34-.29-.65-.58-.49-.94-.22-.06-.32-.26-.53-.34l.24-.14c-.21-.45-.3-.67-.63-1.18h.24c-.14-.28-.94,0-1.08-.3l.35-.26c-.26-.55-.09-1.23-.63-1.68.06,0,.18-.02.22.06-.06-.28.03-1.09-.52-.88.36-.08-.06-.6-.28-.91l.28.02c-.4-.22-.48-.23-.61-.61.03-.1.22-.09.15.03.13-.31-.28-.23-.15-.61l.19.14c0-.31-.07-.29-.28-.46-.1-.21.09-.61.35-.63-.16-.05-.34-.25-.24-.43.1-.01.15.06.17.1.27-.48-.24-.84.14-1.13.09.01.14,0,.18-.02-.13.39-.15.72-.18.69.25.04.34-.27.66.04-.18-.28-.46-.8-.27-1.08.03,0,.05-.02.1-.02l.02.04c.04-.06.03-.13,0-.2.06-.09.12-.13.16-.22.21.03.24-.3.3-.45-.27-.09-.15-.28-.43-.18.03-.02.02.04,0,.15,0,.03,0,.05,0,.08l-.02-.02c-.03.1-.08.24-.13.39-.09-.17-.15-.34.06-.46-.14-.14-.28-.31-.34-.39.43-.08.84-.37,1.08-.31.06-.53.49-1.04.23-1.63.02-.17.22-.05.32-.04-.01.09-.07.17-.04.26.05-.32.49-.7.25-1,.36-.18.13.38.4-.05l.04.13c.57-.15.64-.6.83-1.04.18-.42.4-.9,1.09-.89-.09,0-.13.01-.18-.03.61-.24,1.14-.62,1.7-.96.29-.15.58-.32.89-.41.32-.08.64-.12.97-.09.37.04.35-.2.53-.42l.13.28.31-.42c.53-.29.95.62,1.59.19l-.08-.21c.24.04.78-.09.71.16.03-.03.1-.2.18-.08v.16s.61-.17.61-.17c.42.21-.19.58.4.79.23,0,.79-.24.75-.36-.09-.04-.21-.17-.17-.32h.25c.19-.44.58-.81.05-1.32l-.52.14-.08-.26.38.1c-.15-.27-.35-.13-.52-.05,0-.13-.05-.23-.13-.28l-.53.36c-.03-.19.26-.32-.02-.47-.24.17.13.44-.23.51-.18-.24-.1-.41-.38-.27-.02-.12.04-.19.15-.23-.24.1-.62.03-.75.26-.22-.27-.76.04-.75-.39-.07.11-.39.38-.59.41.33-.56-.78.03-.76-.51-.2.54-1,.38-1.39.81.02-.04.05-.13.09-.12-.28.05-.4-.06-.6-.09.09.38-.29.59-.4.92-.45-.22.01-.51-.22-.8.13.29-.43.53-.22.73-.33-.11-.25-.01-.51-.25.17.46-.19.17-.24.55-.44-.03-.3-.36-.6-.02-.25-.03,0-.37,0-.37ZM1.03,10.01h0c.01-.08.03-.15.03-.2,0,.04-.01.1-.03.2ZM.84,10.8c.03-.1.06-.21.09-.34.1,0,.19.05.17.12-.05-.06-.16.11-.26.22ZM3.14,9.81c0,.11-.06.13-.12.12.01-.05.03-.11.03-.19l-.03-.02s.09.06.12.09Z" style="fill: #202020; stroke-width: 0px;"/>
        <path d="M2.86,9.5s0-.03,0-.05c-.03.01-.06.02-.08.04l.07.07.02-.06Z" style="fill: #202020; stroke-width: 0px;"/>
        <path d="M26.91,2.24h.01s-.02-.02-.02-.04c0,.02,0,.02,0,.04Z" style="fill: #202020; stroke-width: 0px;"/>
        <polygon points="2.96 21.54 3.02 21.5 2.92 21.48 2.96 21.54" style="fill: #202020; stroke-width: 0px;"/>
        <path d="M23.05.41s-.02-.05-.05-.08c0,.02.02.05.05.08Z" style="fill: #202020; stroke-width: 0px;"/>
        <path d="M21.21.25l-.26-.1c.11.05.2.09.26.1Z" style="fill: #202020; stroke-width: 0px;"/>
        <path d="M19.78.14c-.02.05-.02.09-.02.12h0s.02-.12.02-.12Z" style="fill: #202020; stroke-width: 0px;"/>
        <path d="M36.95,12.45s0,.04.02.06c.06.14.03.04-.02-.06Z" style="fill: #202020; stroke-width: 0px;"/>
        <path d="M33.84,6.27c.08.03.17.05.24.09-.06-.11-.11-.19-.24-.09Z" style="fill: #202020; stroke-width: 0px;"/>
        <polygon points="34.95 20.19 34.95 20.19 34.92 20.23 34.95 20.19" style="fill: #202020; stroke-width: 0px;"/>
        <path d="M34.27,6.62c-.03-.13-.1-.2-.19-.26.04.09.09.2.19.26Z" style="fill: #202020; stroke-width: 0px;"/>
        <path d="M13.69,1.03h-.07s0,.04,0,.05l.06-.05Z" style="fill: #202020; stroke-width: 0px;"/>
        <path d="M13.63,1.08l-.06.05s.06-.02.06-.05Z" style="fill: #202020; stroke-width: 0px;"/>
        <path d="M13.43,1.24l.13-.11c-.05.01-.12.02-.13.11Z" style="fill: #202020; stroke-width: 0px;"/>
        <path d="M15.55.71v-.1s0,.06,0,.1Z" style="fill: #202020; stroke-width: 0px;"/>
        <path d="M16.1.57c-.14,0-.38-.14-.55-.04v.08c.06-.17.46.15.55-.04Z" style="fill: #202020; stroke-width: 0px;"/>
        <path d="M18.59,1.47l-.46-.03c.09.1.21.23.01.28.61.26-.15-.23.45-.25Z" style="fill: #202020; stroke-width: 0px;"/>
        <path d="M20.01,1.52c-.24.07.01.16,0,.22.15-.11.19-.13,0-.22Z" style="fill: #202020; stroke-width: 0px;"/>
        <path d="M29.62,3.81l-.16.2c.17.07.06-.08.16-.2Z" style="fill: #202020; stroke-width: 0px;"/>
        <polygon points="32.01 3.95 31.97 3.7 31.74 3.82 32.01 3.95" style="fill: #202020; stroke-width: 0px;"/>
        <polygon points="31.61 6.07 31.53 6.04 31.8 6.18 31.61 6.07" style="fill: #202020; stroke-width: 0px;"/>
        <path d="M31.75,20.21l.27.18c.04-.13-.2-.39-.27-.18Z" style="fill: #202020; stroke-width: 0px;"/>
        <path d="M26.03,24.56c-.14-.11-.37-.12-.42.07.16-.05.36,0,.42-.07Z" style="fill: #202020; stroke-width: 0px;"/>
        <path d="M6.18,21.51l.18.03c-.09-.04-.17-.08-.24-.13l.07.11Z" style="fill: #202020; stroke-width: 0px;"/>
      </g>
    </g>
  </g>
</svg>