<?xml version="1.0" encoding="UTF-8"?>
<svg id="Layer_2" data-name="Layer 2" xmlns="http://www.w3.org/2000/svg" viewBox="0 0 15.7 16.51">
  <g id="Layer_30" data-name="Layer 30">
    <g>
      <path d="M10.96,1.99C7.03.19,1.76,3.27,1.39,7.58s4.3,8.23,8.48,7.12,6.3-6.82,3.85-10.39c-2.07-.3-4.23.11-6.05,1.14" style="fill: #eaeaea; stroke-width: 0px;"/>
      <g>
        <path d="M7.36,4.87c.02.09.13.25.17.18l-.12-.31-.05.13Z" style="fill: #202020; stroke-width: 0px;"/>
        <path d="M8.04,5.2c0-.18-.04-.47-.22-.72.07.32,0,.21.09.59-.04.07-.15-.04-.2-.15.02.09-.13-.01-.06.19.2.18.29.14.3-.1.05.05.07.14.09.2Z" style="fill: #202020; stroke-width: 0px;"/>
        <path d="M13.62,5.05v-.05s0,.04,0,.05Z" style="fill: #202020; stroke-width: 0px;"/>
        <path d="M14.08,8.44s-.04-.04-.07-.05c.02.03.04.05.07.05Z" style="fill: #202020; stroke-width: 0px;"/>
        <path d="M13.64,8.98s.02-.02.03-.03c-.03,0-.05.02-.03.03Z" style="fill: #202020; stroke-width: 0px;"/>
        <path d="M13.62,5.05l-.05.13c.09-.06.05-.08.05-.13Z" style="fill: #202020; stroke-width: 0px;"/>
        <path d="M8.55,4.1s-.02.06-.03.1c.01-.02.03-.04.04-.05l-.02-.05Z" style="fill: #202020; stroke-width: 0px;"/>
        <path d="M12.49,4.96h-.03s-.02.08-.03.14l.05-.14Z" style="fill: #202020; stroke-width: 0px;"/>
        <path d="M11.27,5.08s0-.27,0-.39c0,.12-.02.17-.04.2,0,.05.02.12.04.2Z" style="fill: #202020; stroke-width: 0px;"/>
        <path d="M9.24,5.06l-.02.05s.01-.03.02-.05Z" style="fill: #202020; stroke-width: 0px;"/>
        <path d="M13.1,5.05s-.03.08-.04.1l.04-.1Z" style="fill: #202020; stroke-width: 0px;"/>
        <path d="M9.7.25s0,.03,0,.05c.01-.03.02-.05,0-.05Z" style="fill: #202020; stroke-width: 0px;"/>
        <polygon points="10.93 2.05 10.9 2.06 10.83 2.2 10.93 2.05" style="fill: #202020; stroke-width: 0px;"/>
        <path d="M13.03,9.88h0s-.02-.02,0,0Z" style="fill: #202020; stroke-width: 0px;"/>
        <path d="M5.82,13.05c-.02.28-.31.19-.3.53.04-.1.34-.32.3-.53Z" style="fill: #202020; stroke-width: 0px;"/>
        <path d="M8.6,4.12s.03-.02.05-.02c-.03,0-.04,0-.05.02Z" style="fill: #202020; stroke-width: 0px;"/>
        <path d="M5.52,13.57h0s0,.03,0,.03c0-.01,0-.02,0-.03Z" style="fill: #202020; stroke-width: 0px;"/>
        <path d="M12,11.97s.08.05.11.06c-.02-.02-.05-.04-.11-.06Z" style="fill: #202020; stroke-width: 0px;"/>
        <path d="M13.31,10.67l-.05.03s.04-.02.05-.03Z" style="fill: #202020; stroke-width: 0px;"/>
        <path d="M11.61,12.9s-.06-.02-.06.03c.01,0,.02.01.03.02-.01-.04-.01-.06.03-.05Z" style="fill: #202020; stroke-width: 0px;"/>
        <polygon points="10.8 13.46 10.85 13.5 10.87 13.47 10.8 13.46" style="fill: #202020; stroke-width: 0px;"/>
        <path d="M5.7.8c.05.06.1.14.14.22-.09-.18.07-.32-.14-.22Z" style="fill: #202020; stroke-width: 0px;"/>
        <path d="M8.61,4.25c-.02-.07-.02-.1-.01-.13l-.03.03s.03.08.04.1Z" style="fill: #202020; stroke-width: 0px;"/>
        <path d="M12.99,14.65c-.07.04-.12.08-.19.11.07-.01.14-.06.19-.11Z" style="fill: #202020; stroke-width: 0px;"/>
        <path d="M.25,7.92l-.03-.05s0,.04.03.05Z" style="fill: #202020; stroke-width: 0px;"/>
        <path d="M12.27,15.16c-.09-.06-.15-.09-.21-.1,0,.02,0,.04.02.08l.19.02Z" style="fill: #202020; stroke-width: 0px;"/>
        <path d="M5.84,1.02h0s0,0,0,0Z" style="fill: #202020; stroke-width: 0px;"/>
        <path d="M7.01.02c-.21.03-.03.37-.03.59-.21.14-.16-.25-.28-.41-.13.14-.16.49-.26.51-.02-.06-.05-.07-.05-.15-.07.33-.45.13-.49.55-.02-.03-.04-.05-.05-.08.09.16.15.34.19.47-.07.04-.06.27-.17.06.05-.01.02-.1.01-.18l-.04.13c-.2-.3.07-.16-.02-.4-.13.17-.2.51-.36.46-.16-.3.24-.22-.04-.43l.24.04c-.34-.44.13-.01-.21-.49-.31.02-.24.27-.53.3.02.2.14.24.16.44-.18.48-.66-.62-.72-.08.04.24.23.61-.05.53l-.14-.37c-.25.12.16.55-.21.49-.04-.15.11-.22.05-.24-.32-.15,0,.25-.1.33l-.22-.26c-.22.2-.31.61-.51.84-.05-.09-.08-.2-.2-.24-.21.38-.65.56-1.09.73l.13.31s-.14-.03-.16-.1c-.18.05.14.12.18.26-.04.08-.2-.02-.24-.11.01.19,0,.42-.07.6-.05.2-.15.36-.36.4l-.05-.09c-.22.14.39.51.05.55l-.03-.06c-.32.38-.29.94-.8,1.17.39.18-.33.43.25.59-.33.21-.42.11-.68.49-.04.11.34.21.38.34l-.31-.02.32.2-.37.08.08.13s.14-.1.23-.09c.14.19-.22.46-.38.48.08.16.18.3.29.45-.12,0-.18-.07-.26-.13.34.22-.32.08,0,.28.07-.04.18,0,.25,0-.17.13-.14.4-.03.57H.08c.03.36.27.7.39,1.06.04-.16.4-.25.48-.16l-.29.15c.22,0,.07-.14.36-.1.01.14-.31.22-.44.18l.17.12c-.09.04-.15.03-.27.06.21-.01-.19.41.18.37l-.08.05c.15.36.35.45.51.72.25-.14.25,0,.49-.04.04.23,0,.55.17.76.22.07.22-.1.4-.13-.2.17-.01.36-.24.37.24.21.31.28.72.44.05-.1.05-.17.13-.21.07.02.03.19-.07.27h-.03c.57.02.26,1.28.91,1.07h-.03s.46,0,.46,0c.11.14-.19.1-.18.3.57-.14.52.39.94.32-.1.78.84.37,1,.9l.04-.17c.15-.13.07.13.13.19.03-.13-.04-.18.04-.26.77.06,1.49.64,2.36.84.32.04.16-.93.54-.52l-.09.34c.3-.2.6-.23.91-.29.31-.04.62-.09.85-.36,0,.08.02.18-.04.2.19.19.45-.14.38-.32.09,0,.08.16.18.23.18.09.17-.41.33-.22.03.03,0,.09-.01.11.03-.14.36-.15.17-.36.26.01.32-.29.54-.25-.07-.32.39-.09.18-.47.24.38.54.08.5-.18.05.14.18.03.26.21.12-.11.17-.27,0-.43.59.2.12-.69.71-.33.15-.51.27-.93.4-1.32.36.27-.22.38.17.65.08-.44-.1-.81.17-1.08.1-.05.14.15.19.22.02-.43.42-.63.32-1.05.04.02.07.07.08.12.01-.07.12-.12-.07-.19l.03.08c-.31-.03-.47-.48-.61-.55.5.32.26-.23.88.2-.02-.05-.09-.14-.22-.18.06-.04.15-.04.27.08-.02-.26-.26-.26-.19-.46.09.03.12.08.22.14-.15-.17-.3-.32-.17-.47.05.03.14.03.12.08.07-.31-.37-.62-.12-.9.4.18.16-.08.53-.04l-.07-.2-.19.04c.04-.16-.23-.33-.09-.44l.14.13-.04-.3-.16.15c-.18-.17-.47-.03-.35-.22.03.04.02-.14.24-.21h0c-.11-.08-.24-.16-.15-.27.12-.03.41.03.49.01-.31-.08-.09-.37-.43-.45.08.03.27.02.31,0l-.25-.05c.08-.07.12-.09.27-.09.04-.22-.46.1-.28-.17.02.02.06,0,.1.04.07-.27-.23-.47-.13-.72.36-.14.12.19.42.06-.11-.35-.61-.61-.6-.95l-.02.07c-.51.12.17-.31-.13-.39.05.02.3-.06.24-.04-.01-.23-.29-.43-.64-.68l.13-.04c.01-.22-.17-.43-.22-.64-.12.06-.15-.04-.25.19.02-.13.06-.29,0-.33-.04-.05-.1-.08-.17-.09-.13-.02-.29.01-.44.06-.29.09-.52.21-.71-.12.05,0,.12-.11.08-.12l-.33.12c.02.23.04.14.11.32-.04.14-.13.24-.21.24.14-.15,0-.37-.07-.5.01.07,0,.15,0,.22-.17-.41-.02.46-.25.19v-.12c-.08.07-.14.23-.24.2-.05-.27.08-.13.08-.35-.13.02-.22.52-.35.26.05-.08.13-.09.17-.16-.15-.3-.16-.22-.26-.26h.01s-.24-.11-.24-.11l.07.08c-.08.71-.32.16-.47.65.14-.46,0-.25-.04-.55-.07-.07-.17-.15-.16-.24-.06.26-.22-.16-.3.22-.03-.09-.11.01-.14-.23-.12.1.07.16.08.28-.13.37-.59-.28-.77.25-.2.25-.14.58-.3.81-.13-.12-.06-.36-.06-.36-.17-.1-.26-.03-.33.11,0-.09-.06-.15-.13-.23-.08.06.07.35-.11.27-.02-.11-.06-.28-.05-.4-.08.13-.11.34-.19.47-.1-.14-.04-.27-.04-.38-.1.12-.27.29-.19.55l.12.05s-.12-.2-.11-.26c.02-.24.19.02.24.1l-.05.09c.31.49.27-.22.45-.25l.09.41.03-.38c.07.09.18.3.12.38.18.15.05-.18.22,0,.02.03.02.05.02.07l.07-.15c0,.09.11.27.03.24.26.16.21-.4.38-.12v.03c.22-.21-.07-.3.04-.71l.33.69-.05-.3s.09.01.11.13c.05-.23-.05-.12-.04-.33.2.23.36-.21.48.26,0-.24-.17-.15-.05-.34.14.5.16-.12.33.09,0,.27-.13.15.03.37,0-.46.25.06.34-.04-.04-.36.21-.18.37-.31,0,.12.35.17.51.3v.06c.02-.37.19-.3.31-.38,0,.22-.03.31-.09.41h.11c.03-.12.06-.18.14-.22l-.03.27c.16,0,.31-.31.4-.12.09-.25-.01-.72.27-.87-.03.14-.09.37-.15.42.02-.02.09-.11.11-.05-.05.07-.1.15-.14.22.04.11.09-.19.15-.16-.07.19,0,.14-.07.29-.02.02-.02-.08-.06,0,.05.04.07.16.02.31.04-.11.11-.26.17-.28.12,0-.08.23-.09.34.11-.14.06.03.24-.23.02.03-.07.16-.12.23.11-.07.14.16.34-.12v-.03s.02,0,.02,0h0s0,0,0,0c.16-.01.2.13.2.26-.01.14-.04.28.07.38l-.09.04c.16.1.19.28.42.33.01.05-.15.16-.26.17.1.09.21.08.1.28-.2-.07-.14.07-.15-.08-.05.16-.19.22.11.32-.25,0-.3.16-.22.22l.17-.13c.05.07.03.14.02.21h-.33c-.36.32.76.47.07.73.23.07.16-.16.43-.1-.04.15-.52.29-.52.32-.18.17.49.18.34.37.12-.02.44-.02.54.14-.06.15-.51.13-.6.03,0-.03.03-.05.07-.04-.04-.05-.08-.11-.22-.07l.12.03c-.13.06-.13.24-.32.17.1.11.19.07.26,0-.18.15-.03.27-.18.42.07-.02.21-.02.21.01-.2.23.2.16.21.35-.2.06-.41-.13-.3.08-.14.08-.31-.06-.4-.12.2.21-.23.24-.29.31l-.07-.1c.04.06.03.1.01.13l.24.03c-.05.03-.07.07-.16.04.13.1.39.08.56.25-.13.03.06.24-.24.16.16-.16-.3-.09-.3-.27.03.04.01.08-.04.11-.04,0-.06-.03-.07-.05-.32.08.3.2.22.39-.15-.09-.33-.09-.31-.04.03-.07.29.08.38.2-.18.07.04.18,0,.23l.09-.05c.15.1.1.15.11.27-.13-.05-.05-.12-.12-.12.24.24-.4.07-.28.29-.14,0-.3-.15-.39-.14.12.25-.29.02-.2.26.22.09.18.05.32.27,0-.11,0-.22,0-.33l.21.34c.05-.08-.04-.24.02-.26.13.17.08.14.27.2-.37-.08.07.33-.23.31l-.49-.33c-.33,0,.05.46-.22.58h.13c.17.17-.08.14-.06.27-.15-.13-.24-.14-.35-.2.11.09-.13.13.14.41l-.27-.09c-.21.08.22.56.02.66-.1-.2-.26-.25-.26-.45-.05.04-.12.05-.03.16-.11-.07.03.33-.13.22.03.09.16.26.09.29-.03-.03-.06-.08-.06-.08.06.08-.02.17.17.31-.54-.38-.48.41-.93.03-.1.12-.23.26-.34.34-.02-.06-.04-.09,0-.08-.23-.08.12.58-.17.46-.22-.26.05-.2-.06-.29-.26-.6-.21.16-.46-.15l.02-.05c-.15-.17-.17.32-.36.3,0,0,0-.06-.02-.1-.04.34-.26.5-.43.62.03-.25.06-.14,0-.39-.07.04.07.41-.08.49-.07-.14-.19-.25-.22-.53l.14-.02c-.1-.35-.18.02-.26-.04v-.16c-.2.05-.21.47-.45.42l.02.12c-.16.38-.1-.23-.25.05v-.4c-.09.09-.35.37-.53.39.14-.26.34-.39.47-.56-.08,0-.28,0-.35.18.04-.03.1-.12.12-.05-.15.28-.32.4-.5.36.2-.73-.4-.28-.34-.91-.37.19-.49-.3-.79-.4-.15.58-.1-.03-.35.53-.09,0-.12-.02-.11-.06l-.04-.45c.04-.18.13-.08.19-.2-.12-.13.07-.26.06-.46-.09.2-.21.24-.25.12l-.03.31c-.38.14.1-.52-.26-.4l.17-.11c-.16.02-.33-.26-.75.05.03-.07.11-.21.18-.22-.15-.24-.85-.05-.79-.45l.12-.08c-.07-.01-.27.12-.2-.04.05-.04.13-.08.12-.11-.06.01-.29.06-.28-.05l.17-.06c-.04-.32-.59-.09-.83-.24.37-.25.35-.5.37-.63l.06-.03c-.09-.3-.59-.29-.86-.52.35-.35-.03-.67.17-1.01-.07.06-.34.07-.39.02.07-.08-.33-.14.07-.2v.03c.38-.12.26-.23.26-.33l-.53.04c.35-.19.29-.35.21-.53-.07-.17-.18-.35.18-.39-.12-.08-.1-.16-.22-.25l.28.05c.11-.17.12-.25.14-.49l.18.09c.05-.11-.74-.37-.71-.51l.41.09c.05-.24.51-.29.25-.67.05.03.16.09.16.13.04-.1.45-.22-.07-.48.33.19.16-.19.09-.4l.22.17c-.24-.3-.31-.36-.28-.55.05,0,.2.11.11.1.2-.01-.15-.24.07-.28l.1.16c.1-.09.02-.14-.09-.34-.04-.15.23-.15.42,0-.1-.12-.2-.31-.09-.32.08.06.1.12.11.15.29-.02,0-.48.31-.38.06.07.1.09.13.11-.14.11-.24.21-.25.18.18.18.3.12.48.45-.07-.21-.21-.66-.02-.65.02.01.04.03.07.06v.03s.05-.04.05-.09c.06,0,.1.01.13-.01.14.16.19,0,.25-.04-.17-.22-.07-.24-.28-.38.02,0,0,.04-.02.08,0,.01-.01.02,0,.04v-.02s-.09.08-.14.13c-.05-.15-.07-.28.09-.21-.08-.17-.16-.34-.19-.43.32.26.6.33.75.52.09-.25.35-.36.23-.88.03-.09.14.1.2.16,0,.06-.05.08-.03.15.05-.18.3-.22.17-.56.22.08.06.34.24.2l.02.11c.31.19.37-.08.47-.35.09-.28.25-.5.57-.2-.04-.04-.07-.05-.09-.11.58.17,1.1-.52,1.67,0,.15.1.17-.12.27-.3l.02.3.18-.33c.28-.24.29.76.63.36v-.21c.1.06.36-.04.28.18.02-.03.09-.2.1-.09l-.04.15c.11-.07.21-.12.32-.17.15.18-.23.58,0,.7.11-.03.45-.33.46-.43-.04-.02-.06-.13,0-.28l.13-.04c.2-.42.51-.81.34-1.22l-.31.19v-.24s.19.05.19.05c-.02-.23-.15-.08-.27.01.02-.12.02-.21,0-.27l-.34.35c.03-.18.2-.31.09-.46-.15.17-.03.42-.22.5-.04-.23.03-.39-.13-.24.01-.12.06-.19.12-.23-.14.11-.3,0-.41.22-.05-.28-.36,0-.28-.44-.05.09-.24.32-.34.33.24-.51-.36-.06-.27-.62-.17.46-.51.17-.74.45.01-.04.04-.12.06-.09-.13-.03-.18-.18-.27-.26,0,.39-.2.49-.28.74-.19-.37.05-.46-.02-.82.03.31-.26.34-.17.6-.15-.21-.12-.1-.22-.41.04.49-.1.1-.16.41-.21-.21-.12-.45-.29-.27-.12-.13.02-.33.02-.33ZM3.24,2.73h0s.05-.06.06-.07c-.01.02-.03.04-.06.07ZM2.96,2.97s.08-.07.12-.1c.07.06.13.15.1.17-.03-.06-.13-.04-.22-.06ZM4.75,4.01c-.01.06-.06.03-.1-.02.01-.02.03-.04.04-.08l-.02-.03s.06.09.07.12Z" style="fill: #202020; stroke-width: 0px;"/>
        <path d="M4.59,3.67s0-.02,0-.03c-.02-.01-.04-.02-.06-.03l.04.08.02-.02Z" style="fill: #202020; stroke-width: 0px;"/>
        <path d="M13.64,4.99h0s.01-.01.02-.03c0,.01-.01.02-.02.03Z" style="fill: #202020; stroke-width: 0px;"/>
        <polygon points=".12 7.45 .19 7.46 .13 7.42 .12 7.45" style="fill: #202020; stroke-width: 0px;"/>
        <path d="M12.31,3.68s-.01-.05-.03-.07c0,.02.01.04.03.07Z" style="fill: #202020; stroke-width: 0px;"/>
        <path d="M11.46,3.66l-.13-.09c.06.05.1.08.13.09Z" style="fill: #202020; stroke-width: 0px;"/>
        <path d="M10.79,3.6s0,.09,0,.12h0s0-.12,0-.12Z" style="fill: #202020; stroke-width: 0px;"/>
        <path d="M15.04,11.42s0,.02,0,.03c.02.08.02.03,0-.03Z" style="fill: #202020; stroke-width: 0px;"/>
        <path d="M15.18,8.18s.1.07.12.11c.03-.05.04-.1-.12-.11Z" style="fill: #202020; stroke-width: 0px;"/>
        <polygon points="13.01 14.64 13 14.63 12.99 14.65 13.01 14.64" style="fill: #202020; stroke-width: 0px;"/>
        <path d="M15.28,8.43c.06-.05.05-.1.02-.14-.02.04-.06.1-.02.14Z" style="fill: #202020; stroke-width: 0px;"/>
        <path d="M7.99,4.31h-.03s.01.03.02.05l.02-.05Z" style="fill: #202020; stroke-width: 0px;"/>
        <path d="M7.97,4.36l-.02.05s.03-.02.02-.05Z" style="fill: #202020; stroke-width: 0px;"/>
        <path d="M7.91,4.5l.04-.1s-.06.02-.04.1Z" style="fill: #202020; stroke-width: 0px;"/>
        <path d="M8.86,4.1l-.03-.1s0,.05.03.1Z" style="fill: #202020; stroke-width: 0px;"/>
        <path d="M9.1,3.98c-.07,0-.22-.15-.29-.06l.02.08c0-.16.27.17.27-.01Z" style="fill: #202020; stroke-width: 0px;"/>
        <path d="M10.44,4.92l-.21-.04c.06.1.14.23.06.28.31.26-.11-.23.16-.24Z" style="fill: #202020; stroke-width: 0px;"/>
        <path d="M11.07,4.96c-.09.07.03.16.03.22.05-.11.06-.13-.03-.22Z" style="fill: #202020; stroke-width: 0px;"/>
        <path d="M13.9,6.2l-.25.06c.05.06.1-.03.25-.06Z" style="fill: #202020; stroke-width: 0px;"/>
        <polygon points="15.37 6.8 15.51 6.69 15.28 6.68 15.37 6.8" style="fill: #202020; stroke-width: 0px;"/>
        <polygon points="13.61 7.48 13.57 7.45 13.67 7.57 13.61 7.48" style="fill: #202020; stroke-width: 0px;"/>
        <path d="M10.83,13.17l.18.26c.01-.08-.17-.38-.18-.26Z" style="fill: #202020; stroke-width: 0px;"/>
        <path d="M8.18,14.15c-.03-.16-.1-.27-.16-.12.06.03.12.16.16.12Z" style="fill: #202020; stroke-width: 0px;"/>
        <polygon points="2.63 8.37 2.75 8.42 2.65 8.32 2.63 8.37" style="fill: #202020; stroke-width: 0px;"/>
      </g>
    </g>
  </g>
</svg>