<?xml version="1.0" encoding="UTF-8"?>
<svg id="Layer_2" data-name="Layer 2" xmlns="http://www.w3.org/2000/svg" viewBox="0 0 33.44 24.17">
  <g id="Layer_30" data-name="Layer 30">
    <g>
      <path d="M5.45,3.55C.86,4.16.59,11.05,3.14,14.91c4.34,6.54,13.23,9.65,20.7,7.26,3.22-1.04,6.28-3.15,7.58-6.28,2.05-4.93-1.08-10.9-5.82-13.35s-10.5-2.03-15.6-.46" style="fill: #eaeaea; stroke-width: 0px;"/>
      <g>
        <path d="M9.82,1.43c-.01.09.06.27.17.2l-.02-.34-.15.14Z" style="fill: #202020; stroke-width: 0px;"/>
        <path d="M10.74,1.8c.09-.19.16-.51,0-.78-.05.34-.11.23-.15.63-.1.07-.22-.05-.24-.17-.02.09-.19-.02-.2.2.22.2.4.16.53-.1.06.06.04.15.05.21Z" style="fill: #202020; stroke-width: 0px;"/>
        <path d="M21.74,1.65l-.06-.05s.04.04.06.05Z" style="fill: #202020; stroke-width: 0px;"/>
        <path d="M27.59,4.68s-.08-.01-.1,0c.05.01.09.02.1,0Z" style="fill: #202020; stroke-width: 0px;"/>
        <path d="M28.12,5.71s-.02-.04-.03-.06c0,.04,0,.07.03.06Z" style="fill: #202020; stroke-width: 0px;"/>
        <path d="M21.74,1.65l.15.14c.04-.1-.07-.1-.15-.14Z" style="fill: #202020; stroke-width: 0px;"/>
        <path d="M12.06.64s-.06.06-.08.11c.03-.02.06-.04.09-.06v-.05Z" style="fill: #202020; stroke-width: 0px;"/>
        <path d="M18.77,1.55h-.05s-.03.08-.05.13l.1-.13Z" style="fill: #202020; stroke-width: 0px;"/>
        <path d="M16.5,1.63c.05,0,.05-.27.07-.4-.02.12-.06.17-.1.2,0,.05.01.12.04.2Z" style="fill: #202020; stroke-width: 0px;"/>
        <path d="M12.82,1.64l-.06.05s.04-.04.06-.05Z" style="fill: #202020; stroke-width: 0px;"/>
        <path d="M20.37,1.75s0,.08,0,.1c0-.03,0-.07,0-.1Z" style="fill: #202020; stroke-width: 0px;"/>
        <path d="M2.12,3.84s.02.02.04.03c0-.03-.02-.05-.04-.03Z" style="fill: #202020; stroke-width: 0px;"/>
        <polygon points="5.46 3.63 5.42 3.65 5.44 3.81 5.46 3.63" style="fill: #202020; stroke-width: 0px;"/>
        <path d="M29.05,7.48h0c-.05-.04-.03-.01,0,0Z" style="fill: #202020; stroke-width: 0px;"/>
        <path d="M23.35,21.09c.28.18-.24.4.15.58-.06-.1.15-.49-.15-.58Z" style="fill: #202020; stroke-width: 0px;"/>
        <path d="M12.13.66s.06-.02.1-.02c-.05,0-.08,0-.1.02Z" style="fill: #202020; stroke-width: 0px;"/>
        <path d="M23.5,21.68h0s.04.02.04.02c-.02,0-.03-.01-.04-.02Z" style="fill: #202020; stroke-width: 0px;"/>
        <path d="M30.78,11.52s.08-.04.12-.06c-.03,0-.06.02-.12.06Z" style="fill: #202020; stroke-width: 0px;"/>
        <path d="M30.12,8.2v.09s0-.07,0-.09Z" style="fill: #202020; stroke-width: 0px;"/>
        <path d="M31.23,13.23s-.07.06-.04.12c.01,0,.03,0,.04-.02-.04-.03-.05-.06,0-.1Z" style="fill: #202020; stroke-width: 0px;"/>
        <path d="M30.88,15.01s.04,0,.06-.01v-.06s-.06.07-.06.07Z" style="fill: #202020; stroke-width: 0px;"/>
        <path d="M.43,10.64c.07-.06.16-.1.24-.13-.2.06-.3-.26-.24.13Z" style="fill: #202020; stroke-width: 0px;"/>
        <path d="M12.1.8c0-.07,0-.11.03-.13l-.06.03s.01.08.03.1Z" style="fill: #202020; stroke-width: 0px;"/>
        <path d="M33.44,13.49l-.08.37c.04-.1.07-.23.08-.37Z" style="fill: #202020; stroke-width: 0px;"/>
        <path d="M10,22.16h-.08s.05.02.08,0Z" style="fill: #202020; stroke-width: 0px;"/>
        <path d="M33.2,14.95c-.11.04-.18.1-.23.16.02.02.03.04.06.06l.17-.22Z" style="fill: #202020; stroke-width: 0px;"/>
        <path d="M.67,10.51h0s0,0,0,0Z" style="fill: #202020; stroke-width: 0px;"/>
        <path d="M0,8.13c-.04.36.34.2.55.29.07.41-.29.17-.49.3.08.27.43.47.41.65-.06.01-.08.05-.16,0,.28.26.04.8.44,1.07-.03.03-.06.04-.09.05.18-.07.37-.09.5-.1.02.14.26.23.02.32,0-.09-.1-.08-.18-.12l.12.14c-.33.18-.14-.19-.39-.16.13.29.5.58.43.82-.33.11-.2-.51-.45-.15l.07-.37c-.48.35,0-.22-.52.11,0,.5.26.51.26,1,.21.06.26-.1.47-.04.5.55-.7.75-.11,1.1.26.05.68-.05.58.36l-.4.02c.13.46.59.05.56.59-.17-.02-.27-.28-.28-.2-.14.41.29.12.39.33l-.29.19c.25.44.77.81,1.11,1.2-.1.03-.24.02-.26.18.53.44.79,1.19,1.09,1.8h.38s-.03.16-.11.15c.08.27.15-.11.31-.1.11.09,0,.26-.12.25.47.18,1.27.5,1.38,1.06h-.12c.18.35.7-.19.78.24h-.08c.26.29.59.53.9.77.31.22.58.46.71.82.32-.28.55.59.91.1.23.47.07.5.52.99.13.11.4-.2.61-.17l-.14.28.4-.17-.03.4h.21c-.06-.04-.09-.18-.04-.26.33,0,.57.52.52.66l.77.03c-.06.11-.19.1-.31.14.48-.15-.05.33.38.19-.02-.08.09-.16.12-.22.1.23.47.4.78.41l-.12.18c.51.2,1.12.26,1.71.4-.19-.14-.05-.49.13-.49v.33c.15-.17-.16-.16.13-.35.21.09.06.39-.09.47l.29-.05c0,.1-.08.13-.12.25.15-.17.4.43.63.12v.1c.6.12.89.03,1.38.09.05-.28.23-.19.4-.39.34.12.73.36,1.16.37.31-.12.1-.23.24-.39.01.27.45.24.22.43.52-.05.67-.06,1.32-.27-.08-.1-.16-.15-.12-.24.12-.04.27.1.26.23l-.03.03c.68-.44,1.79.61,2.31-.06l-.03.03.55-.38c.29,0-.13.22.11.34.55-.55,1.04-.2,1.49-.61.65.61,1.41-.53,2.11-.33l-.1-.15c.07-.22.21.02.33,0-.07-.12-.22-.08-.17-.2,1.04-.72,2.43-1,3.59-1.77.42-.29-.4-.87.33-.97l.1.36c.44-.95,1.42-1.5,1.65-2.54.03.09.12.14.06.22.33-.04.4-.67.23-.76.09-.12.17.05.31.01.22-.13-.05-.61.21-.61.04,0,.05.09.05.13-.04-.17.26-.6-.04-.57.24-.31.13-.7.35-.95-.26-.26.28-.59-.13-.74.46.12.46-.59.26-.84.13.09.16-.19.34-.08.03-.27-.05-.52-.29-.48.53-.5-.43-.96.22-1.27-.31-.77-.62-1.43-.91-2.05.46-.1.23.72.68.58-.31-.63-.82-.85-.92-1.48,0-.17.22.02.31.04-.41-.54-.44-1.19-.94-1.58.04-.02.11.01.16.05-.06-.09-.06-.27-.24-.16l.1.07c-.18.29-.74-.09-.9-.02.61-.14-.16-.54.63-.67-.07-.04-.2-.07-.31.02-.02-.11.02-.19.22-.17-.31-.28-.41-.05-.61-.34.08-.06.16-.02.28-.05-.27-.04-.53-.07-.65-.36.06-.02.1-.1.15-.02-.33-.42-.96-.36-1.18-.91.43-.17-.02-.24.22-.52l-.3-.14-.04.22c-.19-.19-.54-.16-.62-.41l.25.03c-.13-.1-.28-.19-.42-.28l.12.29c-.33-.03-.29.37-.49.07.08.02-.19-.17-.16-.43h0c-.18.01-.35.02-.45-.16.03-.12.28-.31.3-.39-.29.18-.57-.29-.88-.11.09-.03.2-.2.2-.24l-.23.15c-.06-.14-.06-.17.05-.3-.3-.23-.15.46-.42.07.04,0,.05-.04.13-.04-.33-.32-.81-.29-1.12-.56.05-.39.36.07.37-.27-.57-.21-1.29-.08-1.78-.36l.08.08c-.25.46-.31-.38-.66-.23.08-.02.18-.25.14-.2-.34-.21-.8-.1-1.39-.08l.1-.12c-.19-.18-.57-.19-.8-.3-.1.12-.23.07-.18.28-.63-.9-1.45.21-2.04-.47.08,0,.2-.1.13-.11-.19.03-.38.05-.57.09.03.23.07.14.18.32-.08.13-.24.24-.37.23.25-.15.01-.37-.09-.5.02.07-.02.15-.02.22-.28-.42-.06.46-.45.18l.02-.12c-.15.05-.28.23-.44.19-.07-.27.16-.13.16-.35-.23.02-.43.52-.64.25.09-.08.23-.08.32-.16-.23-.31-.26-.23-.42-.27h.02s-.39-.12-.39-.12l.1.08c-.24.72-.57.16-.91.65.33-.46.04-.25.04-.56-.1-.07-.26-.15-.23-.24-.16.26-.33-.16-.54.22-.02-.1-.19.01-.18-.24-.23.1.08.16.07.29-.31.37-.91-.28-1.35.25-.41.27-.43.6-.8.84-.17-.12.04-.37.04-.37-.25-.09-.41-.03-.59.12.02-.09-.04-.15-.12-.25-.16.06-.03.37-.28.28.01-.11.02-.29.08-.42-.18.13-.33.36-.51.49-.1-.15.06-.28.1-.41-.21.13-.55.3-.55.58l.17.06c-.08.03-.1-.21-.05-.28.14-.25.3.02.34.11l-.13.1c.29.52.55-.24.85-.27l-.03.43.22-.4c.09.09.18.31.05.4.25.16.15-.18.37,0,.03.03.02.05,0,.07l.17-.16c-.02.09.09.28-.04.25.4.17.52-.41.71-.13l-.03.03c.47-.23,0-.31.31-.73l.37.71v-.31c.06,0,.16.01.16.13.16-.24-.05-.13.03-.34.29.23.68-.22.79.26.06-.24-.26-.15-.01-.34.13.51.3-.12.56.09-.05.28-.27.16-.02.37.1-.47.45.07.63-.03-.01-.36.41-.19.73-.31-.02.13.61.18.91.32v.06c.05-.37.36-.29.59-.36-.02.22-.06.31-.18.4h.21c.05-.11.12-.18.26-.21l-.07.27c.27,0,.58-.28.92-.07.05-.25-.22-.74.19-.87,0,.14-.01.38-.12.42.03-.02.13-.1.19-.03l-.18.21c.15.12.11-.18.24-.14-.03.2.08.15.04.31-.04.01-.1-.1-.16-.03.14.05.31.19.34.35,0-.11.03-.26.15-.28.28.02.06.25.21.37.09-.13.24.05.29-.24.08.02.07.16.09.24.16-.1.66.09.57-.25l-.03-.03h.03s0,0,0,0h0c.53-.18.93.38,1.4.41l-.03.09c.3-.02.62.12.87,0,.08.03.12.24.04.34.22,0,.29-.08.52.18-.27.08,0,.17-.25.04.23.18.21.35.59.23-.2.19.05.38.2.36l-.09-.24c.15.03.25.1.36.18l-.21.27c.26.61,1.21-.13,1.18.7.25-.11-.15-.3.11-.46.19.19.13.72.18.77.16.34.54-.19.75.14.04-.12.21-.4.5-.3.18.2-.09.58-.27.54-.05-.03-.05-.08-.02-.11-.09-.02-.21-.05-.21.11l.1-.07c.02.16.28.4.09.48.21.05.19-.09.13-.23.11.35.36.36.51.67.01-.08.08-.21.11-.17.22.47.31,0,.57.23-.01.26-.37.23-.04.38.04.23-.22.23-.34.24.38.07.22.53.28.68l-.17-.06c.1.04.14.1.19.16l.14-.21c.02.1.07.16-.02.22.18-.01.28-.29.57-.26-.02.16.32.25.08.46-.12-.39-.24.21-.46-.04.06.03.1.1.12.2-.02.03-.06.02-.09.01-.05.46.39-.05.59.28-.18.05-.24.24-.18.28-.08-.13.22-.21.41-.15,0,.29.21.19.26.32v-.16c.17-.04.21.09.34.22-.12.07-.16-.1-.18-.02.38.04-.09.53.2.69-.06.16-.3.14-.34.27.32.19-.09.37.17.59.2-.16.14-.16.42-.02-.1-.15-.21-.29-.33-.43.15.06.31.12.44.19-.04-.16-.26-.26-.26-.36.24.08.18.09.34-.06-.24.33.35.34.2.67l-.57.17c-.13.41.48.54.43,1.05l.07-.17c.24.02.1.29.22.42-.2.02-.26.12-.37.2.14-.03.02.34.42.34l-.23.23c-.09.38.57.42.51.81-.22-.12-.35.05-.51-.2,0,.12-.04.23.1.23-.11.06.24.35.04.46.08.06.29.1.25.24-.04.01-.1-.01-.1-.01.1.01.11.24.34.14-.31.16-.37.42-.4.69-.03.27-.06.53-.38.61-.03.27-.05.61-.16.84-.05-.04-.09-.04-.05-.07-.31.23.44.44.06.71-.38.03-.05-.27-.22-.21-.6-.26-.14.46-.62.48v-.07c-.28.04-.05.54-.29.77,0,0-.04-.05-.08-.06.13.38-.07.79-.23,1.09-.11-.25,0-.2-.23-.33-.07.13.33.25.18.51-.17-.03-.4.04-.61-.14.06-.06.12-.13.18-.2-.34-.15-.24.25-.38.3l-.09-.13c-.26.31-.02.6-.38.88l.11.06c.04.46-.3-.05-.32.33l-.29-.27c-.07.17-.25.64-.46.86,0-.33.19-.65.26-.91-.13.08-.43.32-.39.53.04-.07.05-.19.13-.18.01.37-.14.63-.43.8-.33-.69-.84.24-1.31-.2-.39.49-1.05.34-1.64.58.41.49-.17.08.05.65-.14.08-.2.09-.22.05l-.55-.23c-.15-.14.1-.17.05-.3-.33.04-.2-.21-.45-.31.1.2-.03.33-.23.3l.32.2c-.37.44-.5-.38-.88,0l.1-.21c-.21.15-.84.15-1.01.68-.05-.07-.13-.23-.03-.28-.56-.04-1.22.67-1.69.35l.04-.15c-.1.04-.18.28-.32.13,0-.06.04-.15,0-.16-.05.05-.28.27-.43.18l.12-.17c-.55-.17-.87.38-1.36.45.03-.45-.39-.6-.6-.71v-.06c-.61-.16-1.13.23-1.76.24-.14-.28-.43-.39-.76-.49-.32-.12-.68-.23-.93-.45.06.1-.12.32-.24.33-.11-.12-.48.17-.32-.21l.04.03c.03-.41-.27-.42-.47-.51l-.23.48c-.27-.9-1.56-.39-1.56-1.15-.19.06-.34-.04-.53,0l.14-.24c-.31-.26-.45-.39-.91-.58l.19-.12c-.22-.16-.73.49-.96.36l.17-.39c-.41-.27-.58-.84-1.17-.85.05-.04.13-.13.2-.09-.17-.15-.48-.76-.81-.28.25-.28-.33-.37-.64-.44l.22-.17c-.41.1-.48.16-.78.01-.03-.08.11-.2.13-.08-.07-.27-.33.04-.42-.28l.2-.04c-.15-.21-.21-.13-.46-.09-.19-.05-.27-.42-.1-.6-.14.07-.39.1-.43-.06.06-.08.14-.07.18-.07-.1-.45-.63-.32-.59-.72.07-.06.1-.1.11-.14.19.27.34.5.31.49.2-.16.08-.4.49-.44-.27-.05-.84-.1-.89-.38.01-.02.03-.05.05-.08h.04c-.01-.06-.07-.09-.13-.1,0-.09,0-.15-.04-.21.17-.14-.04-.3-.1-.41-.24.14-.29-.02-.41.22,0-.03.04,0,.1.07.02.01.03.03.05.03h-.03c.05.07.11.17.18.27-.17-.01-.33-.05-.27-.25-.19.03-.39.05-.49.06.25-.35.31-.75.51-.89-.33-.28-.42-.81-1.02-.89-.09-.09.11-.17.18-.24.07.05.08.13.16.14-.19-.18-.22-.64-.6-.61.1-.32.36.09.22-.29l.12.03c.23-.44-.08-.69-.31-1-.25-.3-.47-.67-.08-1.11-.05.06-.07.09-.13.1.08-.25.1-.5.13-.75.02-.25,0-.51.03-.76.03-.51.16-1.03.59-1.34.21-.19,0-.31-.08-.55l.29.1c-.05-.13-.1-.27-.14-.41,0-.24.25-.3.5-.31.25-.01.42-.07.46-.38l-.18-.12c.17-.07.4-.43.49-.21,0-.04-.06-.22.06-.15l.08.14c.08-.13.18-.28.28-.42.35-.02.17.57.6.5.13-.09.38-.56.31-.65-.07,0-.2-.05-.24-.21l.17-.12c-.05-.46.1-.98-.53-1.18-.11.12-.22.25-.32.37l-.19-.19.33-.09c-.24-.16-.32.05-.41.21-.07-.1-.15-.16-.25-.16-.08.19-.14.39-.2.57-.13-.14.02-.4-.28-.38-.08.26.34.29.13.54-.27-.11-.32-.28-.41,0-.09-.08-.09-.18-.04-.27-.1.24-.43.37-.36.63-.35-.1-.44.51-.74.18.03.13,0,.49-.09.64-.23-.6-.41.54-.83.16.23.45-.25.91-.18,1.4-.03-.04-.09-.11-.05-.13-.12.21-.27.22-.4.34.36.16.33.52.52.76-.42.18-.41-.27-.78-.28.3.07.21.56.48.52-.27.16-.15.16-.49.21.48.12.04.22.31.43-.27.27-.46.02-.35.38-.16.15-.31-.18-.31-.18ZM2.65,15.5h0s-.08-.09-.1-.11c.02.02.05.06.11.11ZM3.02,16c-.04-.07-.09-.15-.15-.23.07-.07.16-.11.19-.06-.07.01-.03.16-.04.29ZM3.95,13.9c.08.05.04.1,0,.14-.02-.03-.05-.07-.1-.11h-.03c.05-.01.1-.03.14-.03Z" style="fill: #202020; stroke-width: 0px;"/>
        <path d="M3.55,13.96s-.03,0-.04-.02c-.01.03-.02.05-.03.08l.09-.02-.03-.04Z" style="fill: #202020; stroke-width: 0px;"/>
        <path d="M21.67,1.59h.01s-.01-.02-.02-.04c0,.01,0,.02,0,.04Z" style="fill: #202020; stroke-width: 0px;"/>
        <polygon points="9.3 21.97 9.33 21.91 9.25 21.94 9.3 21.97" style="fill: #202020; stroke-width: 0px;"/>
        <path d="M18.5.26s-.02-.05-.04-.07c0,.02.02.04.04.07Z" style="fill: #202020; stroke-width: 0px;"/>
        <path d="M17.04.2l-.21-.09c.09.05.16.08.21.09Z" style="fill: #202020; stroke-width: 0px;"/>
        <path d="M15.9.13c-.01.05-.01.09-.01.12h0s0-.12,0-.12Z" style="fill: #202020; stroke-width: 0px;"/>
        <path d="M31.76,7.27s.02.03.03.04c.1.07.05.02-.03-.04Z" style="fill: #202020; stroke-width: 0px;"/>
        <path d="M27.8,3.47c.08,0,.15,0,.22,0-.06-.08-.12-.13-.22,0Z" style="fill: #202020; stroke-width: 0px;"/>
        <polygon points="33.44 13.45 33.44 13.45 33.44 13.49 33.44 13.45" style="fill: #202020; stroke-width: 0px;"/>
        <path d="M28.21,3.64c-.04-.1-.11-.15-.19-.16.05.07.1.15.19.16Z" style="fill: #202020; stroke-width: 0px;"/>
        <path d="M11.08.86h-.06s0,.04,0,.05l.05-.05Z" style="fill: #202020; stroke-width: 0px;"/>
        <path d="M11.03.9l-.05.05s.05-.01.05-.05Z" style="fill: #202020; stroke-width: 0px;"/>
        <path d="M10.88,1.05l.1-.1s-.1.02-.1.1Z" style="fill: #202020; stroke-width: 0px;"/>
        <path d="M12.56.64v-.1s0,.06,0,.1Z" style="fill: #202020; stroke-width: 0px;"/>
        <path d="M12.99.52c-.11,0-.31-.16-.44-.07v.08c.04-.17.38.17.44-.02Z" style="fill: #202020; stroke-width: 0px;"/>
        <path d="M15.02,1.47l-.37-.03c.08.1.18.23.02.28.49.26-.13-.23.35-.25Z" style="fill: #202020; stroke-width: 0px;"/>
        <path d="M16.15,1.51c-.19.06.02.16,0,.22.11-.11.14-.13,0-.22Z" style="fill: #202020; stroke-width: 0px;"/>
        <path d="M23.99,2.51l-.11.23c.15.02.04-.09.11-.23Z" style="fill: #202020; stroke-width: 0px;"/>
        <path d="M25.98,1.96l-.07-.21-.17.18c.08.01.16.02.24.04Z" style="fill: #202020; stroke-width: 0px;"/>
        <path d="M25.86,3.99h-.07c.08,0,.16.03.24.05l-.17-.05Z" style="fill: #202020; stroke-width: 0px;"/>
        <path d="M30.75,14.64l.31.04c-.03-.11-.37-.21-.31-.04Z" style="fill: #202020; stroke-width: 0px;"/>
        <path d="M27.95,19.2c-.14-.08-.33-.07-.32.11.11-.06.29-.03.32-.11Z" style="fill: #202020; stroke-width: 0px;"/>
        <polygon points="11.8 20.35 11.95 20.29 11.72 20.29 11.8 20.35" style="fill: #202020; stroke-width: 0px;"/>
      </g>
    </g>
  </g>
</svg>