<?xml version="1.0" encoding="UTF-8"?>
<svg id="Layer_2" data-name="Layer 2" xmlns="http://www.w3.org/2000/svg" viewBox="0 0 30.85 24.05">
  <g id="Layer_30" data-name="Layer 30">
    <g>
      <path d="M6.95,6.48C2.63,6.09.07,12.1,2.09,15.93s6.57,5.55,10.83,6.34c3.15.58,6.48.83,9.49-.27,6.67-2.44,9.32-12.08,4.82-17.58S12.74-.39,9.03,5.67" style="fill: #eaeaea; stroke-width: 0px;"/>
      <g>
        <path d="M8.47,5.32c.05.08.23.16.26.05l-.23-.25-.03.2Z" style="fill: #202020; stroke-width: 0px;"/>
        <path d="M9.43,5.02c-.05-.2-.18-.5-.48-.61.17.31.05.25.27.59-.03.12-.2.1-.29.02.05.08-.17.11-.03.27.3.02.41-.12.36-.41.08,0,.13.09.17.14Z" style="fill: #202020; stroke-width: 0px;"/>
        <path d="M19.03,1.15l-.07-.04s.04.03.07.04Z" style="fill: #202020; stroke-width: 0px;"/>
        <path d="M25.03,3.26s-.08,0-.1.01c.05.01.09.02.1-.01Z" style="fill: #202020; stroke-width: 0px;"/>
        <path d="M25.62,4.2s-.02-.04-.03-.05c0,.04,0,.06.03.05Z" style="fill: #202020; stroke-width: 0px;"/>
        <path d="M19.03,1.15c.06.03.11.07.17.11.02-.11-.09-.09-.17-.11Z" style="fill: #202020; stroke-width: 0px;"/>
        <path d="M9.85,3.3s-.02.09-.01.14c.01-.03.03-.07.04-.1l-.03-.04Z" style="fill: #202020; stroke-width: 0px;"/>
        <path d="M16.23,1.68h-.05c0,.05-.01.1-.01.15l.06-.15Z" style="fill: #202020; stroke-width: 0px;"/>
        <path d="M14.19,2.36s-.04-.28-.07-.4c.02.12,0,.19-.02.22.02.05.05.11.1.17Z" style="fill: #202020; stroke-width: 0px;"/>
        <path d="M11.01,3.76l-.02.07s.02-.05.02-.07Z" style="fill: #202020; stroke-width: 0px;"/>
        <path d="M17.76,1.52s.02.08.03.1c0-.03-.01-.07-.03-.1Z" style="fill: #202020; stroke-width: 0px;"/>
        <path d="M3.74,5.93s.02.03.03.04c0-.03,0-.05-.03-.04Z" style="fill: #202020; stroke-width: 0px;"/>
        <polygon points="6.94 6.55 6.91 6.56 6.89 6.72 6.94 6.55" style="fill: #202020; stroke-width: 0px;"/>
        <path d="M26.55,5.84h0c-.05-.03-.03-.01,0,0Z" style="fill: #202020; stroke-width: 0px;"/>
        <path d="M22.58,20.65c.29.15-.17.43.23.56-.07-.09.07-.51-.23-.56Z" style="fill: #202020; stroke-width: 0px;"/>
        <path d="M9.92,3.28s.04-.05.07-.08c-.04.03-.06.05-.07.08Z" style="fill: #202020; stroke-width: 0px;"/>
        <path d="M22.8,21.21h0s.04.01.04.01c-.02,0-.03,0-.04-.01Z" style="fill: #202020; stroke-width: 0px;"/>
        <path d="M28.16,9.74s.08-.04.12-.06c-.03,0-.06.02-.12.06Z" style="fill: #202020; stroke-width: 0px;"/>
        <path d="M27.6,6.5v.09s0-.07,0-.09Z" style="fill: #202020; stroke-width: 0px;"/>
        <path d="M28.63,11.45s-.06.06-.02.12c.01,0,.02-.01.03-.02-.04-.02-.06-.05-.01-.11Z" style="fill: #202020; stroke-width: 0px;"/>
        <path d="M28.42,13.27s.04-.02.06-.02v-.06s-.06.08-.06.08Z" style="fill: #202020; stroke-width: 0px;"/>
        <path d="M.27,11.87c.08-.04.17-.06.26-.07-.2,0-.22-.33-.26.07Z" style="fill: #202020; stroke-width: 0px;"/>
        <path d="M9.96,3.42c-.04-.06-.05-.1-.04-.13l-.04.06s.05.06.08.07Z" style="fill: #202020; stroke-width: 0px;"/>
        <path d="M30.84,11.62c-.02.12-.03.23-.06.34.04-.09.06-.22.06-.34Z" style="fill: #202020; stroke-width: 0px;"/>
        <path d="M9.76,22.7h-.08s.05.03.08,0Z" style="fill: #202020; stroke-width: 0px;"/>
        <path d="M30.71,12.99c-.11.05-.17.1-.21.16.02.02.04.04.07.05l.15-.21Z" style="fill: #202020; stroke-width: 0px;"/>
        <path d="M.54,11.8h0s0,0,0,0Z" style="fill: #202020; stroke-width: 0px;"/>
        <path d="M.53,9.33c-.15.33.27.29.44.44-.05.41-.33.08-.55.15.01.29.28.57.22.75-.06,0-.09.03-.16-.03.19.32-.15.79.15,1.15-.04.02-.07.02-.1.03.19-.02.38,0,.51.02-.02.14.21.28-.04.31.01-.09-.08-.1-.15-.15l.09.16c-.36.1-.1-.22-.36-.25.09.32.35.68.24.89-.35.04-.08-.54-.4-.24l.16-.35c-.56.23.05-.22-.54-.01-.14.5.12.56.05,1.06.19.1.28-.05.47.05.35.63-.8.63-.28,1.09.25.1.65.05.54.45l-.41-.03c.1.49.6.12.5.67-.17-.03-.23-.32-.25-.24-.19.41.26.16.36.38l-.3.17c.13.23.31.46.5.67.2.19.4.38.56.59-.1.03-.24,0-.26.17.52.48.82,1.21,1.17,1.83l.39-.03s-.01.17-.1.17c.11.26.14-.13.3-.12.12.09.02.26-.1.26.51.13,1.3.4,1.5.91l-.12.02c.23.31.67-.28.8.13h-.08c.59.54,1.46.67,1.81,1.31.27-.35.63.48.89-.06.3.42.14.49.66.88.15.08.35-.27.56-.27l-.09.29.36-.22.03.39.2-.02c-.07-.04-.11-.18-.08-.26.32-.05.62.41.59.56l.74-.08c-.04.12-.17.13-.28.18.44-.21-.01.33.39.14-.03-.08.07-.17.09-.23.12.22.5.31.79.29l-.1.2c.5.16,1.08.11,1.65.21-.19-.13-.08-.49.09-.49v.33c.15-.18-.14-.15.12-.36.2.07.08.39-.05.47l.27-.07c0,.1-.07.14-.1.26.13-.18.4.39.61.06v.1c.58.08.86,0,1.33.02.03-.28.21-.2.37-.42.34.12.71.36,1.14.34.3-.14.09-.24.23-.4.02.26.44.23.22.42.51-.05.66-.06,1.29-.31-.08-.1-.16-.14-.12-.23.11-.05.27.09.26.21l-.03.03c.65-.43,1.8.53,2.28-.14l-.03.03c.18-.13.35-.28.52-.42.28-.03-.11.23.14.33.51-.59,1.03-.28,1.44-.78.34.24.73.11,1.05-.17.33-.26.64-.55,1.03-.51l-.13-.13c.03-.22.21-.03.32-.06-.1-.1-.22-.02-.21-.16.86-.94,2.15-1.55,3.05-2.58.33-.37-.61-.73.05-1l.2.32c.16-1.01.96-1.73.96-2.73.05.08.15.11.12.2.29-.11.24-.69.05-.75.07-.13.18.02.3-.04.2-.15-.15-.56.1-.6.04,0,.06.07.07.11-.08-.16.16-.58-.14-.52.2-.31.03-.67.23-.91-.29-.22.22-.57-.21-.68.44.08.45-.57.23-.8.14.08.14-.19.33-.09,0-.26-.09-.49-.32-.45.55-.48-.43-.9.22-1.21-.15-.36-.29-.71-.43-1.04-.16-.33-.3-.64-.42-.95.44-.09.21.71.66.58-.33-.61-.76-.85-.88-1.47,0-.17.22.02.31.05-.2-.27-.29-.57-.39-.85-.13-.27-.27-.53-.51-.73.04-.02.11.01.16.05-.06-.09-.06-.27-.24-.16l.1.07c-.18.29-.75-.09-.89-.02.61-.15-.16-.53.63-.68-.08-.04-.21-.06-.32.02-.03-.11.02-.18.21-.18-.33-.27-.42-.03-.63-.32.08-.06.15-.02.27-.06-.27-.04-.51-.07-.64-.36.06-.02.09-.1.15-.03-.39-.37-.98-.29-1.23-.82.42-.21-.05-.23.17-.52l-.32-.11-.02.22c-.21-.17-.55-.1-.66-.34h.25c-.15-.08-.29-.18-.44-.25.05.09.09.19.14.28-.32,0-.25.39-.47.11.08,0-.21-.13-.21-.39h0c-.17.03-.35.08-.46-.1.02-.13.24-.34.25-.42-.26.2-.58-.24-.88,0,.08-.05.17-.22.17-.27l-.21.18c-.07-.12-.07-.17,0-.3-.31-.19-.09.48-.4.12.04,0,.04-.05.12-.05-.35-.29-.82-.18-1.16-.4,0-.39.36.02.33-.32-.29-.06-.61-.04-.92-.04-.31.02-.61.04-.87-.06l.09.06c-.17.51-.35-.34-.67-.14.07-.03.13-.27.1-.22-.37-.14-.8.06-1.37.17l.08-.13c-.22-.16-.58-.07-.83-.14-.07.14-.21.12-.12.31-.38-.39-.74-.27-1.06-.1-.33.16-.63.33-1.01.06.08-.02.17-.15.1-.14-.18.07-.35.16-.53.24.09.22.1.12.25.27-.04.15-.17.29-.3.32.2-.2-.08-.36-.22-.46.03.06.02.15.04.22-.38-.34.06.46-.38.28v-.12c-.14.09-.22.29-.38.31-.14-.23.11-.17.06-.38-.21.09-.26.62-.53.43.06-.1.19-.15.26-.25-.31-.23-.31-.14-.48-.14h.02s-.42,0-.42,0l.12.05c-.02.73-.48.35-.64.92.14-.55-.05-.25-.16-.54-.12-.03-.3-.05-.3-.15-.06.3-.37-.04-.44.39-.06-.08-.17.1-.26-.14-.17.19.13.12.17.24-.13.48-.97.1-1.14.8-.24.44-.1.74-.3,1.12-.21-.03-.15-.34-.15-.34-.27.03-.39.16-.45.4-.03-.09-.11-.11-.23-.14-.1.14.17.33-.08.4-.05-.1-.14-.26-.16-.4-.08.21-.09.49-.16.69-.17-.07-.11-.26-.14-.39-.11.22-.31.56-.13.79l.16-.06c-.04.08-.21-.11-.21-.19-.03-.29.27-.16.35-.1l-.05.15c.53.27.33-.48.57-.68l.21.38-.04-.46c.12.03.31.17.25.32.28,0,.02-.24.31-.18.04.01.05.04.04.06l.07-.22c.03.09.22.2.09.23.42-.03.24-.6.54-.43v.04c.29-.41-.16-.28-.07-.79l.64.49-.13-.28s.15-.05.2.06c.05-.28-.1-.09-.11-.32.35.11.51-.48.8-.07-.03-.25-.29-.05-.14-.31.31.43.23-.21.55-.09.05.27-.19.23.11.36-.08-.47.43-.09.55-.25-.14-.35.32-.29.57-.5.03.13.61-.02.92.05v.06c-.03-.37.28-.37.47-.49.04.22.02.31-.07.43l.19-.05c.02-.13.07-.2.19-.27v.28c.25-.09.48-.41.84-.27,0-.26-.38-.67-.01-.89.03.14.07.37-.02.44.03-.02.1-.13.17-.08l-.12.25c.17.08.06-.2.19-.2.02.2.11.13.11.29-.03.02-.12-.07-.16.01.15.02.33.11.39.26-.02-.11-.02-.27.08-.3.27-.02.11.23.27.33.06-.14.23,0,.23-.29.08,0,.1.14.13.22.13-.13.64-.05.49-.36l-.04-.02h.02s0-.01,0-.01h0c.48-.29.95.24,1.41.14v.1c.27-.07.59.05.82-.13.08.02.15.21.09.32.22-.03.28-.15.52.1-.24.11.03.16-.23.06.24.15.24.33.59.15-.16.21.09.36.23.33l-.12-.23c.15,0,.26.07.37.12l-.18.29c.33.54,1.15-.25,1.23.51.23-.15-.19-.26.05-.46.22.13.19.7.25.73.18.32.51-.26.75.03.03-.12.16-.41.46-.36.18.2-.05.6-.23.58-.05-.03-.05-.08-.03-.11-.08-.02-.21-.02-.2.13l.09-.08c.02.18.28.37.11.48.21.02.18-.11.11-.24.13.33.37.31.54.59,0-.08.06-.21.1-.18.24.42.3-.02.57.17,0,.26-.35.25-.02.38.04.22-.21.24-.32.26.35.06.26.46.3.62-.05-.02-.1-.04-.16-.05.1.03.13.09.17.15l.14-.21c.02.1.06.16-.02.21.18-.02.27-.3.55-.28-.03.17.32.23.08.44-.13-.36-.24.21-.46,0,.06.03.1.08.12.18-.02.03-.06.03-.09.02-.04.43.39-.08.59.23-.17.05-.25.25-.19.28-.06-.13.22-.21.4-.16-.01.28.21.18.25.3v-.16c.17-.04.21.08.34.21-.12.07-.16-.1-.18-.02.37.04-.08.5.18.67-.07.16-.31.14-.35.26.31.19-.13.37.15.58.2-.15.14-.15.43-.02l-.33-.41.44.19c-.05-.15-.25-.26-.24-.36.24.08.17.09.34-.05-.27.32.35.34.2.65l-.57.16c-.18.41.43.54.39,1.04l.07-.17c.25.02.1.28.2.42-.2.01-.26.12-.37.2.14-.03.02.34.42.34l-.24.23c-.06.38.57.41.52.8-.21-.11-.35.05-.51-.19,0,.12-.04.23.1.23-.12.07.26.35.08.46.08.06.3.08.27.23-.04.01-.1,0-.1,0,.1,0,.11.23.34.12-.67.33-.05,1.12-.67,1.36,0,.28,0,.62-.04.86-.05-.03-.09-.03-.07-.07-.26.28.49.36.17.68-.37.1-.1-.25-.25-.17-.64-.15-.06.47-.5.6l-.02-.07c-.25.11.05.53-.13.82,0,0-.05-.04-.09-.04.21.33.15.79.05,1.11-.17-.21-.04-.19-.3-.26-.04.14.39.16.3.45-.17.01-.38.13-.63.01l.12-.23c-.38-.06-.16.3-.28.39l-.12-.1c-.15.37.14.58-.14.92l.12.03c.16.43-.3.03-.21.4l-.35-.19c0,.2-.08.65-.22.92-.1-.32.02-.66.02-.92-.1.11-.33.39-.24.58.02-.07,0-.19.08-.2.1.34.03.64-.19.87-.47-.57-.76.38-1.29.06-.1.29-.36.39-.62.49-.27.08-.52.19-.79.31.47.44-.15.09.15.62-.12.1-.18.11-.2.08l-.54-.16c-.16-.12.07-.18,0-.3-.29.08-.21-.19-.44-.26.11.19,0,.33-.19.3l.33.19c-.32.45-.51-.36-.83.06l.08-.22c-.18.17-.78.2-.91.71-.05-.06-.14-.22-.05-.28-.53.03-1.14.69-1.61.42l.03-.15c-.1.05-.16.29-.3.15,0-.06.03-.15-.01-.16-.05.06-.27.27-.41.19l.11-.17c-.54-.18-.84.41-1.32.5.02-.44-.4-.61-.61-.69v-.06c-.61-.11-1.11.26-1.74.34-.3-.52-1.24-.4-1.77-.79.07.1-.08.33-.2.36-.12-.11-.45.21-.34-.17l.05.02c-.02-.41-.32-.37-.54-.43l-.16.5c-.38-.88-1.59-.14-1.68-.91-.18.08-.34.02-.52.1l.1-.26c-.33-.21-.51-.29-.96-.42l.17-.15c-.23-.12-.63.62-.88.53l.11-.42c-.44-.2-.66-.74-1.25-.63.04-.05.11-.15.19-.13-.19-.12-.54-.68-.8-.15.2-.31-.36-.3-.67-.32l.2-.2c-.39.16-.45.22-.74.1-.03-.07.1-.21.12-.09-.08-.26-.32.08-.43-.22l.2-.06c-.16-.18-.21-.1-.45-.05-.19-.03-.29-.38-.11-.58-.13.08-.37.11-.41-.04.06-.08.14-.08.18-.07-.12-.41-.63-.27-.57-.66.07-.06.1-.1.11-.13.18.26.31.47.28.46.19-.16.1-.38.48-.44-.25-.03-.81-.06-.84-.34.02-.02.03-.05.06-.07h.04c0-.06-.05-.08-.11-.1,0-.09,0-.14-.03-.21.17-.13-.05-.29-.07-.4-.25.13-.27-.03-.42.21.01-.03.04,0,.08.07.01.01.03.03.05.03h-.03c.05.07.11.16.18.26-.17-.01-.34-.05-.27-.24-.18.03-.38.04-.48.04.28-.34.35-.69.57-.81-.25-.29-.32-.75-.86-.92-.08-.1.13-.15.21-.19.06.05.07.13.15.15-.18-.19-.11-.62-.48-.66.16-.28.35.15.27-.23l.11.05c.28-.36.09-.64-.1-.99-.15-.33-.3-.74.2-1.04-.06.04-.09.06-.15.06.29-.42.39-.89.57-1.36.17-.46.45-.91.95-1.07.25-.11.1-.29.08-.54l.25.18c-.01-.14-.02-.28-.02-.43.08-.22.32-.21.56-.15.24.05.43.05.54-.24l-.14-.16c.18-.02.49-.31.53-.08,0-.04,0-.23.09-.14l.05.15.37-.34c.34.07.04.59.46.62.14-.06.48-.46.44-.57-.07,0-.18-.1-.18-.26l.18-.08c.06-.46.31-.94-.25-1.27-.14.09-.27.19-.39.29l-.14-.22.34-.02c-.2-.21-.32-.03-.44.12-.04-.11-.11-.19-.2-.22-.11.17-.22.34-.31.51-.09-.17.1-.39-.18-.43-.13.24.26.37,0,.55-.23-.17-.23-.34-.38-.1-.07-.1-.05-.19.02-.27-.15.2-.48.25-.48.51-.3-.19-.53.37-.74-.03,0,.13-.12.46-.25.58-.06-.63-.53.38-.82-.1.1.5-.49.77-.56,1.26-.02-.04-.05-.13,0-.14-.17.16-.32.13-.48.2.3.26.16.59.28.87-.46.04-.31-.38-.66-.5.27.16.03.59.31.64-.31.07-.19.1-.53.05.42.26-.03.21.18.5-.34.18-.45-.11-.44.26-.2.1-.24-.26-.24-.26ZM1.85,17.01h0s-.07-.09-.09-.12c.02.03.05.06.1.12ZM2.22,17.52c-.04-.07-.09-.15-.15-.23.07-.07.16-.11.19-.06-.07,0-.03.16-.04.29ZM3.21,15.47c.08.05.04.1,0,.14-.02-.03-.05-.06-.1-.11h-.04c.05-.01.1-.03.14-.03Z" style="fill: #202020; stroke-width: 0px;"/>
        <path d="M2.81,15.51s-.02,0-.03-.02c-.02.03-.03.05-.04.07l.09-.02-.02-.04Z" style="fill: #202020; stroke-width: 0px;"/>
        <path d="M18.95,1.11h.01s-.02-.02-.02-.03c0,.01,0,.02.01.03Z" style="fill: #202020; stroke-width: 0px;"/>
        <polygon points="9.07 22.63 9.09 22.56 9.02 22.6 9.07 22.63" style="fill: #202020; stroke-width: 0px;"/>
        <path d="M15.65.5s-.03-.04-.06-.06c0,.02.03.04.06.06Z" style="fill: #202020; stroke-width: 0px;"/>
        <path d="M14.24.85l-.23-.03c.11.02.18.03.23.03Z" style="fill: #202020; stroke-width: 0px;"/>
        <path d="M13.14,1.16c0,.05.02.09.03.12h0s-.03-.12-.03-.12Z" style="fill: #202020; stroke-width: 0px;"/>
        <path d="M29.23,5.57s.02.03.03.03c.1.07.05.02-.03-.03Z" style="fill: #202020; stroke-width: 0px;"/>
        <path d="M25.12,2.05c.07-.01.15-.03.22-.02-.07-.07-.13-.11-.22.02Z" style="fill: #202020; stroke-width: 0px;"/>
        <polygon points="30.85 11.58 30.84 11.58 30.84 11.62 30.85 11.58" style="fill: #202020; stroke-width: 0px;"/>
        <path d="M25.55,2.16c-.05-.1-.12-.13-.21-.13.06.06.12.13.21.13Z" style="fill: #202020; stroke-width: 0px;"/>
        <path d="M9.12,4.04l-.04.04s.02.02.03.03v-.07Z" style="fill: #202020; stroke-width: 0px;"/>
        <path d="M9.11,4.11v.07s.02-.04,0-.07Z" style="fill: #202020; stroke-width: 0px;"/>
        <path d="M9.08,4.34l.02-.15s-.07.08-.02.15Z" style="fill: #202020; stroke-width: 0px;"/>
        <path d="M10.27,3.03l-.05-.09s.02.05.05.09Z" style="fill: #202020; stroke-width: 0px;"/>
        <path d="M10.61,2.71c-.1.05-.36.01-.44.16l.04.07c-.04-.16.42-.03.39-.23Z" style="fill: #202020; stroke-width: 0px;"/>
        <path d="M12.82,2.7l-.33.11c.11.06.25.14.13.25.53.05-.2-.16.2-.36Z" style="fill: #202020; stroke-width: 0px;"/>
        <path d="M13.83,2.37c-.14.12.07.14.08.2.06-.14.08-.17-.08-.2Z" style="fill: #202020; stroke-width: 0px;"/>
        <path d="M21.32,1.62l-.07.25c.14,0,.02-.1.07-.25Z" style="fill: #202020; stroke-width: 0px;"/>
        <polygon points="23.17 .79 23.08 .59 22.93 .79 23.17 .79" style="fill: #202020; stroke-width: 0px;"/>
        <polygon points="23.29 2.82 23.22 2.83 23.46 2.84 23.29 2.82" style="fill: #202020; stroke-width: 0px;"/>
        <path d="M28.24,12.91h.32c-.05-.09-.39-.17-.32,0Z" style="fill: #202020; stroke-width: 0px;"/>
        <path d="M26.44,17.99c-.16-.04-.33.01-.27.18.09-.08.26-.11.27-.18Z" style="fill: #202020; stroke-width: 0px;"/>
        <polygon points="11.27 20.64 11.4 20.56 11.17 20.59 11.27 20.64" style="fill: #202020; stroke-width: 0px;"/>
      </g>
    </g>
  </g>
</svg>