<?xml version="1.0" encoding="UTF-8"?>
<svg id="Layer_2" data-name="Layer 2" xmlns="http://www.w3.org/2000/svg" viewBox="0 0 23.23 22.25">
  <g id="Layer_30" data-name="Layer 30">
    <g>
      <path d="M9.36,5.41C3.29,4.06-1.1,13.32,2.94,18.04s12.37,3.55,16.32-1.25c3.06-3.73,3.79-9.6.75-13.35S10.03-.26,7.82,4.03" style="fill: #eaeaea; stroke-width: 0px;"/>
      <g>
        <path d="M7.22,3.72c.06.07.24.14.26.04l-.25-.22v.18Z" style="fill: #202020; stroke-width: 0px;"/>
        <path d="M8.11,3.46c-.08-.18-.23-.47-.52-.58.19.29.07.24.32.55-.02.1-.18.09-.28.01.05.07-.15.1,0,.25.29.01.38-.1.29-.37.08,0,.13.09.18.13Z" style="fill: #202020; stroke-width: 0px;"/>
        <path d="M16.27,1.54l-.04-.06s.02.04.04.06Z" style="fill: #202020; stroke-width: 0px;"/>
        <path d="M20.2,4.87s-.06-.03-.09-.02c.04.02.07.04.09.02Z" style="fill: #202020; stroke-width: 0px;"/>
        <path d="M20.26,5.81s0-.04,0-.06c-.02.03-.03.05,0,.06Z" style="fill: #202020; stroke-width: 0px;"/>
        <path d="M16.27,1.54l.1.15c.04-.1-.04-.1-.1-.15Z" style="fill: #202020; stroke-width: 0px;"/>
        <path d="M8.38,1.9s-.02.08-.01.12c.01-.03.03-.06.04-.08l-.03-.04Z" style="fill: #202020; stroke-width: 0px;"/>
        <path d="M13.93,1.46h-.04s-.02.08-.03.13l.08-.13Z" style="fill: #202020; stroke-width: 0px;"/>
        <path d="M12.2,1.7s0-.27-.02-.4c0,.12-.01.18-.04.2.01.05.03.11.06.19Z" style="fill: #202020; stroke-width: 0px;"/>
        <path d="M9.47,2.46v.06s0-.04,0-.06Z" style="fill: #202020; stroke-width: 0px;"/>
        <path d="M15.18,1.62s0,.08,0,.1c0-.03,0-.07,0-.1Z" style="fill: #202020; stroke-width: 0px;"/>
        <path d="M6.88,4.09s0,.03,0,.05c0-.03,0-.05,0-.05Z" style="fill: #202020; stroke-width: 0px;"/>
        <polygon points="9.34 5.48 9.31 5.49 9.27 5.65 9.34 5.48" style="fill: #202020; stroke-width: 0px;"/>
        <path d="M20.39,7.39h0s-.03-.02,0,0Z" style="fill: #202020; stroke-width: 0px;"/>
        <path d="M13.97,19.12c.25.18-.15.39.19.57-.06-.1.07-.49-.19-.57Z" style="fill: #202020; stroke-width: 0px;"/>
        <path d="M8.45,1.89s.04-.04.07-.06c-.04.02-.06.04-.07.06Z" style="fill: #202020; stroke-width: 0px;"/>
        <path d="M14.17,19.69h0s.04.02.04.02c-.01,0-.02-.01-.04-.02Z" style="fill: #202020; stroke-width: 0px;"/>
        <path d="M20.61,10.98c.05,0,.09,0,.13-.02-.03,0-.07,0-.13.02Z" style="fill: #202020; stroke-width: 0px;"/>
        <path d="M21.1,8.22l-.03.07s.03-.05.03-.07Z" style="fill: #202020; stroke-width: 0px;"/>
        <path d="M20.66,12.49s-.07.03-.05.09c.02,0,.03,0,.04,0-.03-.03-.04-.06.01-.09Z" style="fill: #202020; stroke-width: 0px;"/>
        <path d="M20.1,13.93s.04,0,.06,0v-.05s-.06.05-.06.05Z" style="fill: #202020; stroke-width: 0px;"/>
        <path d="M2.16,7.51c.09.01.17.04.26.08-.18-.09-.07-.36-.26-.08Z" style="fill: #202020; stroke-width: 0px;"/>
        <path d="M8.49,2.02c-.04-.06-.05-.09-.04-.12-.01.02-.03.03-.04.05.02.03.05.06.08.07Z" style="fill: #202020; stroke-width: 0px;"/>
        <path d="M22.76,13.21l-.14.26c.05-.07.1-.16.14-.26Z" style="fill: #202020; stroke-width: 0px;"/>
        <path d="M3.11,19.81l-.08-.02s.04.03.08.02Z" style="fill: #202020; stroke-width: 0px;"/>
        <path d="M22.36,14.3c-.11.01-.19.04-.25.08.02.02.03.04.05.06l.19-.13Z" style="fill: #202020; stroke-width: 0px;"/>
        <path d="M2.42,7.59h0s0,0,0,0Z" style="fill: #202020; stroke-width: 0px;"/>
        <path d="M3.25,5.65c-.22.21.14.37.24.56-.17.31-.3-.09-.52-.14-.09.23.04.58-.08.68-.05-.03-.09-.02-.12-.1.06.35-.4.54-.27.96-.04,0-.07-.01-.09-.03.17.08.33.18.43.27-.07.1.06.31-.16.21.05-.05-.03-.11-.07-.19v.16c-.34-.11.02-.21-.19-.36-.07.26.02.66-.15.77-.31-.14.12-.44-.26-.39.08-.06.17-.13.27-.18-.58-.11.14-.13-.46-.28-.31.29-.09.48-.38.78.12.17.26.11.38.28.03.63-.98,0-.74.59.16.19.54.4.22.57l-.32-.24c-.18.35.42.4.04.68-.13-.12,0-.32-.08-.28-.39.14.14.25.08.43l-.33-.07c-.05.42.02.91.02,1.36-.1-.04-.19-.14-.31-.06.04.3-.02.6-.12.9-.09.3-.19.6-.3.89l.29.22s-.13.1-.19.04c-.12.23.19,0,.3.11.02.12-.17.17-.26.09.3.39.62,1.03.42,1.49l-.11-.06c-.03.35.68.21.49.55l-.06-.04c.01.17.06.34.1.51.07.16.15.32.22.48.15.31.21.63.19.97.41-.14.25.69.76.38,0,.49-.16.5.09,1.03.09.13.42-.09.59-.01l-.21.22.4-.06-.15.37c.06.02.12.04.18.06-.05-.05-.02-.2.05-.26.29.06.37.56.28.7l.66.17c-.08.09-.19.07-.3.08.46-.06-.14.32.29.25,0-.08.12-.14.16-.19.03.23.35.42.61.47l-.14.16c.39.31.97.33,1.45.54-.14-.16.03-.49.18-.47l-.05.33c.16-.15-.11-.17.16-.33.17.09,0,.39-.14.46l.26-.04c-.02.1-.08.13-.14.24.15-.17.31.43.55.13v.1c.51.16.77.07,1.19.12.05-.28.21-.19.36-.4.29.15.61.37.98.37.27-.13.08-.23.2-.4.01.26.38.25.19.43.44-.04.57-.07,1.11-.3-.07-.1-.14-.14-.11-.23.09-.05.23.1.23.22l-.02.03c.55-.44,1.55.57,1.94-.1l-.02.03.43-.39c.24-.01-.09.22.12.33.42-.54.86-.21,1.2-.62.62.58,1.14-.53,1.77-.33l-.11-.14c.03-.22.18.02.28,0-.08-.11-.2-.07-.17-.2.81-.67,1.98-.94,2.94-1.59.35-.24-.48-.82.17-.88l.14.33c.27-.86,1.13-1.26,1.26-2.12.04.08.12.14.08.2.29-.01.34-.52.17-.62.08-.09.17.06.29.05.2-.08-.07-.52.18-.48.04,0,.05.08.05.11-.05-.15.27-.44-.03-.47.25-.21.12-.56.36-.71-.22-.25.33-.41-.07-.61.42.18.52-.36.37-.6.11.1.18-.11.34.02.05-.21.02-.42-.21-.45.63-.24-.22-.85.49-.92-.1-.67-.21-1.26-.27-1.82.46.05,0,.61.46.64-.11-.56-.52-.88-.38-1.4.06-.14.2.08.27.12-.2-.53.03-1.05-.29-1.5.04,0,.09.04.13.09-.03-.09.04-.23-.16-.19l.07.08c-.28.18-.66-.28-.82-.26.61.06.07-.47.85-.36-.05-.05-.16-.11-.3-.07.02-.1.09-.14.26-.08-.18-.31-.37-.14-.43-.44.1-.02.15.03.27.03-.23-.11-.43-.21-.44-.47.06,0,.13-.05.15.02-.18-.42-.7-.54-.72-1.03.45-.04.07-.2.39-.38l-.21-.19-.12.17c-.08-.22-.43-.26-.41-.48l.22.07-.27-.33v.28c-.28-.1-.4.25-.45-.05.06.03-.09-.19.02-.4h0c-.16-.02-.33-.04-.35-.22.07-.1.35-.21.4-.28-.32.1-.37-.39-.73-.26.09-.02.24-.14.26-.18l-.26.1c0-.13,0-.17.14-.26-.18-.26-.28.39-.38-.02.03,0,.05-.03.12-.01-.17-.36-.62-.38-.8-.69.15-.36.29.12.4-.2-.44-.3-1.11-.25-1.46-.57l.05.08c-.3.42-.19-.39-.52-.27.07-.01.2-.23.16-.19-.26-.23-.67-.17-1.18-.16l.1-.11c-.14-.18-.46-.23-.65-.33-.09.12-.2.07-.18.28-.22-.45-.55-.42-.86-.33-.31.09-.58.17-.85-.14.07,0,.17-.12.11-.12l-.49.12c.04.23.06.14.16.32-.06.14-.19.24-.3.24.2-.15,0-.37-.1-.5.02.07-.01.15,0,.22-.26-.4-.02.46-.36.21v-.12c-.11.07-.21.24-.34.22-.08-.26.12-.14.1-.35-.19.04-.31.52-.51.3.07-.09.18-.11.25-.19-.23-.3-.24-.2-.39-.23h.02s-.35-.07-.35-.07l.1.07c-.09.73-.46.21-.64.76.17-.51-.02-.26-.09-.55-.1-.06-.26-.1-.25-.2-.08.28-.32-.1-.42.31-.05-.09-.16.06-.22-.18-.17.16.11.14.14.26-.14.45-.89-.08-1.06.59-.23.38-.12.66-.27,1.01-.18-.05-.15-.34-.15-.34-.23.01-.34.13-.4.33-.03-.09-.11-.12-.22-.16-.09.12.16.31-.07.35-.06-.1-.15-.26-.17-.38-.07.19-.05.46-.1.65-.16-.07-.12-.25-.16-.38-.09.21-.24.52-.07.73l.16-.04c-.04.06-.21-.11-.21-.19-.05-.27.24-.14.32-.08l-.03.14c.52.28.23-.45.47-.6l.21.37-.04-.42c.11.04.29.2.25.32.26.05.02-.21.27-.13.03.02.04.04.04.06l.05-.2c.03.09.2.22.09.23.34,0,.2-.51.46-.32v.03c.26-.33-.14-.28-.05-.76.18.18.36.36.54.56l-.11-.29s.13-.02.17.09c.05-.25-.08-.11-.09-.32.3.17.47-.37.69.08-.01-.24-.25-.11-.1-.33.24.47.21-.16.47,0,.02.28-.18.19.06.37-.03-.47.35-.02.48-.12-.08-.36.29-.21.52-.38,0,.11.51.15.75.26v.06c.02-.37.27-.33.45-.39,0,.22-.04.31-.13.4h.16c.04-.11.09-.18.2-.22l-.05.27c.21-.01.46-.32.72-.09.05-.25-.17-.74.18-.87,0,.14-.02.38-.11.42.03-.01.11-.1.16-.04l-.15.22c.12.12.09-.18.2-.15-.03.2.06.15.02.3-.03.02-.08-.09-.13-.02.11.05.24.18.26.34,0-.11.04-.26.13-.28.22.04.03.25.13.38.08-.12.18.05.25-.24.06.02.04.15.05.24.14-.11.52.09.48-.24l-.02-.03h.02s0,0,0,0h0c.45-.14.7.4,1.07.46l-.04.09c.25,0,.48.14.72.05.06.04.04.24-.04.32.18.03.26-.05.38.21-.24.05-.04.16-.22.01.14.19.08.33.42.26-.21.15-.08.35.05.35v-.23c.11.04.18.12.24.2l-.26.22c.03.27.26.28.48.31.22.03.43.09.26.43.25-.06-.02-.28.26-.38.1.19-.17.65-.13.69,0,.32.56-.08.6.24.08-.09.33-.3.54-.15.07.21-.31.47-.45.41-.03-.04-.01-.08.02-.09-.07-.04-.15-.08-.23.05l.11-.04c-.06.15.09.38-.11.41.17.07.2-.04.2-.16-.02.3.18.36.18.64.04-.06.15-.16.17-.12.02.41.28.07.43.3-.12.21-.42.1-.2.3-.07.19-.29.13-.4.11.29.15,0,.46,0,.59l-.13-.09c.08.05.1.11.11.17l.21-.13c-.02.08-.01.14-.11.16.17.03.37-.16.61-.06-.1.13.19.28-.11.37.04-.33-.3.1-.41-.14.05.04.06.1.03.18-.03.02-.07,0-.09-.01-.22.33.39.05.43.36-.18,0-.32.12-.28.16-.01-.12.28-.1.43,0-.11.22.13.2.13.31l.05-.13c.18.02.17.13.25.26-.14.02-.11-.12-.17-.06.33.13-.3.38-.08.59-.12.11-.33.02-.41.11.24.23-.23.26-.05.5.24-.07.18-.08.41.1-.05-.14-.1-.28-.16-.42.12.09.23.18.34.27.01-.13-.14-.27-.11-.35.2.13.14.12.34.05-.35.18.2.36-.05.57l-.59-.03c-.26.28.27.55.07.94l.12-.11c.23.08,0,.25.08.39-.19-.04-.28.03-.41.06.15.02-.07.28.31.39l-.29.12c-.16.29.46.49.32.78-.18-.15-.35-.05-.45-.29-.03.1-.09.18.04.22-.13.02.18.35-.03.39.07.07.26.14.2.25-.04,0-.09-.03-.09-.03.09.03.06.22.3.19-.68.11-.28.89-.89.94-.02.24-.1.51-.19.7-.05-.04-.09-.05-.05-.07-.3.16.42.43.07.62-.36-.02-.06-.24-.22-.21-.58-.29-.14.38-.57.36v-.06c-.27.02-.01.47-.22.66,0,0-.04-.04-.08-.06.15.34.03.71-.1.96-.13-.23-.02-.18-.25-.31-.05.11.34.24.23.47-.16-.03-.36.01-.58-.16l.14-.17c-.34-.16-.18.21-.3.26l-.1-.12c-.18.28.07.55-.23.78l.11.06c.1.43-.27-.05-.24.3l-.3-.26c-.03.17-.13.59-.29.79-.06-.32.08-.59.1-.84-.09.09-.33.28-.27.48.02-.06.02-.18.1-.16.06.34-.04.59-.26.74-.37-.65-.69.21-1.15-.22-.25.49-.85.29-1.29.55.4.47-.13.08.12.63-.11.08-.16.08-.18.05l-.48-.22c-.14-.14.07-.17,0-.29-.26.04-.19-.21-.4-.31.1.2.01.33-.15.3l.28.2c-.26.44-.45-.39-.71,0l.06-.21c-.16.15-.66.16-.75.68-.05-.06-.12-.22-.05-.28-.44-.02-.94.69-1.33.38l.02-.15c-.08.05-.13.29-.25.14,0-.06.03-.15-.01-.16-.04.05-.22.27-.33.19l.09-.17c-.43-.18-.68.38-1.08.48.03-.43-.29-.61-.44-.71v-.06c-.22-.07-.44,0-.67.08-.22.06-.46.15-.71.17-.15-.51-.86-.52-1.16-.95.02.11-.16.3-.26.3-.05-.13-.41.12-.2-.23l.03.03c.12-.38-.11-.4-.25-.49l-.31.43c.03-.46-.23-.57-.5-.67-.28-.08-.49-.24-.34-.56-.17.02-.26-.08-.44-.07l.21-.19c-.17-.25-.17-.4-.43-.63l.21-.06c-.09-.15-.82.25-.96.09l.34-.26c-.14-.34.02-.75-.43-.96.06-.01.18-.04.21,0-.03-.17.12-.67-.43-.48.36-.09-.06-.35-.23-.54h.28c-.37-.12-.47-.12-.6-.36.03-.06.22-.07.15.01.13-.2-.29-.13-.15-.38l.18.08c.02-.2-.07-.18-.28-.29-.11-.13.08-.39.33-.4-.15-.03-.35-.16-.28-.27.1,0,.15.04.18.06.2-.31-.25-.53.04-.73.09,0,.14,0,.17-.01-.05.26-.1.47-.11.44.26.03.33-.17.66.03-.17-.17-.54-.52-.39-.71.03,0,.05,0,.09,0l.03.03s.01-.09-.02-.13c.05-.06.1-.09.12-.14.21.03.18-.2.22-.29-.27-.07-.19-.19-.45-.13.02-.01.03.03.02.1,0,.02,0,.04.02.05h-.02c-.01.06-.03.14-.06.25-.12-.11-.21-.23-.02-.31-.16-.1-.32-.21-.39-.27.42-.04.7-.24.94-.2-.04-.35.19-.72-.21-1.14-.02-.12.18-.04.27-.03.03.07,0,.13.05.19-.06-.24.22-.5-.09-.72.26-.13.23.28.34-.03l.08.09c.4-.13.33-.45.33-.79,0-.33,0-.73.54-.71-.07,0-.1,0-.15-.03.41-.17.62-.54.93-.81.15-.14.3-.29.48-.39.19-.07.4-.11.62-.08.24,0,.15-.24.22-.45l.15.27c.03-.13.06-.26.1-.39.28-.33.7.52,1.01.04l-.08-.2c.15.03.47-.16.45.07.01-.04.04-.22.1-.12v.16c.12-.12.25-.17.38-.25.28.15-.08.62.29.7.14-.05.49-.41.47-.52-.06-.01-.14-.11-.12-.27l.17-.06c.12-.45.38-.9-.01-1.28l-.36.24-.08-.24.27.02c-.12-.23-.25-.05-.37.06-.01-.12-.05-.21-.11-.26-.12.14-.23.27-.33.41-.03-.19.15-.35-.06-.47-.15.22.13.4-.1.55-.15-.2-.11-.38-.28-.18-.03-.12,0-.2.07-.26-.16.16-.43.1-.48.35-.19-.24-.51.11-.58-.31-.03.12-.2.41-.33.47.12-.58-.53.12-.64-.43-.05.48-.6.47-.8.87,0-.04,0-.13.04-.12-.19.05-.31-.04-.47-.06.17.34-.04.57-.02.87-.4-.18-.15-.46-.4-.72.18.26-.16.51.06.67-.28-.08-.19,0-.46-.2.28.41-.09.17-.01.49-.36-.03-.36-.31-.47,0-.2-.01-.13-.33-.13-.33ZM.82,11.73h0c0-.06,0-.1,0-.13,0,.03,0,.07,0,.13ZM.74,12.26c.02-.06.04-.14.05-.23.1,0,.19.03.18.08-.06-.04-.13.07-.23.14ZM2.84,11.64c.02.07-.04.08-.1.08,0-.03,0-.07,0-.12l-.03-.02c.05.02.1.04.13.06Z" style="fill: #202020; stroke-width: 0px;"/>
        <path d="M2.52,11.42s-.01-.02-.01-.03c-.03,0-.05.02-.07.02l.08.05v-.04Z" style="fill: #202020; stroke-width: 0px;"/>
        <path d="M16.22,1.47h0s0-.02,0-.04c0,.02,0,.02,0,.04Z" style="fill: #202020; stroke-width: 0px;"/>
        <polygon points="2.56 19.48 2.61 19.43 2.54 19.44 2.56 19.48" style="fill: #202020; stroke-width: 0px;"/>
        <path d="M13.66.17s-.02-.05-.04-.07c0,.02.02.04.04.07Z" style="fill: #202020; stroke-width: 0px;"/>
        <path d="M12.41.23l-.19-.06c.09.04.15.06.19.06Z" style="fill: #202020; stroke-width: 0px;"/>
        <path d="M11.43.32c0,.05,0,.09.02.12h0s-.02-.12-.02-.12Z" style="fill: #202020; stroke-width: 0px;"/>
        <path d="M22.96,7.96s0,.03.02.04c.07.08.04.02-.02-.04Z" style="fill: #202020; stroke-width: 0px;"/>
        <path d="M20.85,3.87c.07,0,.14.02.19.05-.02-.08-.06-.13-.19-.05Z" style="fill: #202020; stroke-width: 0px;"/>
        <polygon points="22.77 13.18 22.77 13.18 22.76 13.21 22.77 13.18" style="fill: #202020; stroke-width: 0px;"/>
        <path d="M21.14,4.11c0-.1-.04-.15-.1-.19.02.07.03.15.1.19Z" style="fill: #202020; stroke-width: 0px;"/>
        <path d="M7.74,2.56l-.04.03s.03.02.03.03v-.06Z" style="fill: #202020; stroke-width: 0px;"/>
        <path d="M7.73,2.63v.06s.02-.04,0-.06Z" style="fill: #202020; stroke-width: 0px;"/>
        <path d="M7.7,2.82l.02-.13s-.07.06-.02.13Z" style="fill: #202020; stroke-width: 0px;"/>
        <path d="M8.78,1.69l-.05-.09s.02.05.05.09Z" style="fill: #202020; stroke-width: 0px;"/>
        <path d="M9.08,1.41c-.09.03-.32-.02-.39.12l.04.07c-.04-.16.38,0,.35-.19Z" style="fill: #202020; stroke-width: 0px;"/>
        <path d="M11.04,1.76l-.29.04c.09.08.21.18.11.26.45.15-.17-.19.18-.3Z" style="fill: #202020; stroke-width: 0px;"/>
        <path d="M11.91,1.62c-.13.09.04.15.05.21.06-.12.08-.16-.05-.21Z" style="fill: #202020; stroke-width: 0px;"/>
        <path d="M17.93,2.48l-.15.21c.11.03.05-.08.15-.21Z" style="fill: #202020; stroke-width: 0px;"/>
        <polygon points="19.76 2.2 19.76 2 19.56 2.13 19.76 2.2" style="fill: #202020; stroke-width: 0px;"/>
        <polygon points="18.98 4.01 18.92 4 19.11 4.06 18.98 4.01" style="fill: #202020; stroke-width: 0px;"/>
        <path d="M19.99,13.58l.3.09c-.02-.1-.34-.25-.3-.09Z" style="fill: #202020; stroke-width: 0px;"/>
        <path d="M17.63,17.41c-.14-.08-.3-.08-.26.09.09-.05.25-.03.26-.09Z" style="fill: #202020; stroke-width: 0px;"/>
        <polygon points="5.17 18.38 5.3 18.34 5.12 18.32 5.17 18.38" style="fill: #202020; stroke-width: 0px;"/>
      </g>
    </g>
  </g>
</svg>