<?xml version="1.0" encoding="UTF-8"?>
<svg id="Layer_2" data-name="Layer 2" xmlns="http://www.w3.org/2000/svg" viewBox="0 0 26.63 23.89">
  <g id="Layer_30" data-name="Layer 30">
    <g>
      <path d="M9.19,1.99C4.66,2.65,1.17,7.17,1.26,11.76s3.44,8.79,7.75,10.35c7.72,2.8,17.36-4.46,16.18-12.59C24.01,1.39,11.72-2.49,6.51,3.86" style="fill: #eaeaea; stroke-width: 0px;"/>
      <g>
        <path d="M5.99,3.43c.04.09.2.19.26.08l-.19-.27-.06.19Z" style="fill: #202020; stroke-width: 0px;"/>
        <path d="M6.99,3.3c-.03-.2-.11-.52-.38-.67.13.32,0,.26.18.62-.05.11-.22.07-.29-.03.03.09-.18.08-.07.26.3.06.43-.05.41-.34.08.02.11.11.15.16Z" style="fill: #202020; stroke-width: 0px;"/>
        <path d="M16.83,1.6l-.05-.05s.03.04.05.05Z" style="fill: #202020; stroke-width: 0px;"/>
        <path d="M22.14,4.88s-.07-.02-.1,0c.04.02.08.03.1,0Z" style="fill: #202020; stroke-width: 0px;"/>
        <path d="M22.55,5.9s-.01-.04-.02-.06c0,.04,0,.06.02.06Z" style="fill: #202020; stroke-width: 0px;"/>
        <path d="M16.83,1.6l.14.14c.04-.1-.06-.1-.14-.14Z" style="fill: #202020; stroke-width: 0px;"/>
        <path d="M7.65,1.69s-.03.08-.04.13c.02-.03.04-.06.06-.09l-.02-.05Z" style="fill: #202020; stroke-width: 0px;"/>
        <path d="M14.05,1.45h-.05s-.03.08-.05.14l.1-.14Z" style="fill: #202020; stroke-width: 0px;"/>
        <path d="M11.98,1.64s.02-.27.02-.4c0,.12-.03.18-.07.2,0,.05.03.11.06.19Z" style="fill: #202020; stroke-width: 0px;"/>
        <path d="M8.7,2.33l-.03.07s.02-.05.03-.07Z" style="fill: #202020; stroke-width: 0px;"/>
        <path d="M15.54,1.65s0,.08,0,.1c0-.03,0-.07,0-.1Z" style="fill: #202020; stroke-width: 0px;"/>
        <path d="M6.14,1.58s.01.03.02.04c0-.03,0-.05-.02-.04Z" style="fill: #202020; stroke-width: 0px;"/>
        <polygon points="9.2 2.06 9.17 2.08 9.18 2.24 9.2 2.06" style="fill: #202020; stroke-width: 0px;"/>
        <path d="M23.18,7.63h0s-.03-.02,0,0Z" style="fill: #202020; stroke-width: 0px;"/>
        <path d="M16.2,20.91c.27.16-.2.43.18.58-.06-.09.11-.52-.18-.58Z" style="fill: #202020; stroke-width: 0px;"/>
        <path d="M7.72,1.68s.05-.04.08-.06c-.04.02-.07.04-.08.06Z" style="fill: #202020; stroke-width: 0px;"/>
        <path d="M16.37,21.48h0s.04.01.04.01c-.02,0-.03,0-.04-.01Z" style="fill: #202020; stroke-width: 0px;"/>
        <path d="M24.03,11.58c.05,0,.09-.02.13-.03-.03,0-.07,0-.13.03Z" style="fill: #202020; stroke-width: 0px;"/>
        <path d="M24.11,8.41l-.02.09s.02-.07.02-.09Z" style="fill: #202020; stroke-width: 0px;"/>
        <path d="M24.13,13.27s-.07.04-.05.11c.02,0,.03,0,.04,0-.03-.03-.04-.06.01-.1Z" style="fill: #202020; stroke-width: 0px;"/>
        <path d="M23.53,14.94s.04,0,.06,0v-.06s-.06.07-.06.07Z" style="fill: #202020; stroke-width: 0px;"/>
        <path d="M1.55,6.16c.09,0,.18.02.27.04-.19-.07-.09-.38-.27-.04Z" style="fill: #202020; stroke-width: 0px;"/>
        <path d="M7.74,1.81c-.03-.06-.04-.1-.02-.13l-.05.05s.04.07.07.08Z" style="fill: #202020; stroke-width: 0px;"/>
        <path d="M26.25,13.94l-.12.32c.05-.09.09-.2.12-.32Z" style="fill: #202020; stroke-width: 0px;"/>
        <path d="M3.86,20.15l-.08-.03s.04.04.08.03Z" style="fill: #202020; stroke-width: 0px;"/>
        <path d="M25.8,15.23c-.11.02-.19.06-.25.1.02.02.03.04.05.07l.2-.17Z" style="fill: #202020; stroke-width: 0px;"/>
        <path d="M1.83,6.2h0s0,0,0,0Z" style="fill: #202020; stroke-width: 0px;"/>
        <path d="M2.6,3.99c-.23.25.17.35.29.54-.17.35-.33-.04-.56-.06-.07.26.09.61-.02.75-.06-.02-.1,0-.13-.09.08.36-.41.64-.24,1.08-.04,0-.07,0-.1-.01.18.05.35.14.46.22-.07.12.07.33-.16.26.04-.07-.04-.12-.08-.19l.02.18c-.37-.05-.01-.23-.23-.36-.05.31.07.73-.12.88-.33-.1.13-.51-.28-.38l.27-.25c-.59-.02.13-.17-.49-.22-.29.38-.1.54-.36.93.13.17.27.08.4.25.08.71-1,.17-.72.79.18.19.58.36.26.61l-.34-.21c-.17.42.47.38.11.77-.13-.11-.05-.37-.11-.31-.36.23.17.26.12.48l-.34-.02c-.04.49.13,1.04.18,1.55-.1-.03-.2-.13-.31,0,.14.68-.04,1.42-.12,2.1l.33.2c0,.06-.11.13-.18.08-.07.27.18-.02.32.08.05.13-.12.22-.23.14.17.19.38.46.51.75.15.28.24.57.17.84l-.11-.06c0,.39.71.16.57.56l-.07-.04c.17.77.82,1.36.75,2.09.4-.13.28.74.79.43.01.53-.13.48.11,1.1.09.15.44-.05.62.06l-.22.21.43-.02-.17.36.19.08c-.04-.07-.01-.21.06-.27.29.12.37.65.27.78.24.1.46.2.71.27-.09.09-.21.04-.34.04.5,0-.15.29.31.29,0-.08.14-.13.18-.17.02.25.33.51.62.6l-.17.14c.41.36,1,.54,1.53.83-.15-.18.08-.48.24-.44l-.09.32c.19-.13-.1-.19.21-.31.18.13-.03.4-.2.43l.29.02c-.03.09-.11.11-.18.22.19-.14.29.51.59.25l-.02.09c.56.24.86.23,1.35.34.09-.27.26-.15.46-.34.31.18.65.52,1.09.53.32-.1.12-.22.28-.37-.02.26.42.29.17.44.52.02.67.06,1.32-.17-.07-.1-.14-.15-.1-.24.11-.04.26.1.24.23l-.03.03c.36-.21.77,0,1.19.12.41.11.83.2,1.07-.1l-.03.03c.18-.12.36-.23.53-.38.27-.03-.12.23.11.33.52-.59,1.01-.2,1.43-.64.64.54,1.35-.54,2.02-.41l-.11-.14c.05-.22.2,0,.31,0-.08-.11-.21-.07-.18-.2.24-.19.5-.34.79-.48.27-.15.55-.29.84-.42.6-.24,1.18-.54,1.72-.9.38-.28-.41-.82.28-.93l.12.35c.18-.48.5-.82.83-1.16.31-.35.59-.74.73-1.19.03.09.11.14.06.22.31-.02.43-.57.25-.69.09-.11.17.07.29.04.22-.1-.02-.58.23-.55.04,0,.04.09.04.13-.04-.17.32-.5.01-.53.3-.23.18-.64.43-.82-.22-.28.36-.49-.03-.7.42.18.57-.44.4-.72.11.11.18-.15.34-.01.06-.25.03-.49-.21-.51.32-.16.27-.42.23-.63-.05-.22-.12-.4.24-.49-.08-.39-.15-.76-.21-1.1-.07-.35-.18-.68-.25-1,.45,0,.09.72.56.69-.23-.65-.62-.97-.58-1.59.02-.17.22.06.3.1-.31-.59-.23-1.23-.61-1.7.04-.01.11.03.15.08-.04-.1-.03-.26-.22-.18l.09.08c-.22.25-.75-.19-.9-.14.62-.05-.07-.54.73-.56-.06-.05-.19-.1-.31-.03,0-.11.05-.18.24-.14-.26-.32-.4-.1-.53-.42.09-.04.15,0,.27-.02-.23-.09-.51-.13-.59-.42.06-.02.11-.08.16,0-.31-.42-.86-.46-1.05-.99.45-.14,0-.23.26-.48l-.28-.16-.06.21c-.17-.2-.52-.19-.57-.44l.24.04c-.12-.11-.24-.22-.37-.31.03.1.05.2.08.3-.31-.06-.32.34-.47.03.08.02-.18-.16-.13-.41h0c-.17,0-.35.02-.43-.17.04-.12.3-.29.33-.37-.3.16-.5-.34-.83-.16.09-.03.21-.19.22-.23l-.24.14c-.05-.13-.04-.17.07-.29-.27-.24-.19.44-.41.05.04,0,.05-.04.13-.03-.29-.32-.75-.33-1.01-.63.09-.39.34.09.39-.25-.53-.23-1.24-.14-1.68-.47l.07.08c-.27.44-.26-.39-.62-.26.08-.01.19-.24.15-.19-.32-.2-.76-.17-1.33-.15l.11-.11c-.18-.17-.54-.2-.75-.32-.1.12-.22.06-.19.28-.26-.48-.64-.43-.99-.35-.35.08-.67.18-.97-.18.08,0,.19-.1.13-.1-.19,0-.37.07-.56.1.04.23.07.14.17.32-.07.14-.23.24-.36.24.24-.15,0-.37-.1-.5.02.07-.02.15-.01.22-.28-.41-.04.46-.42.19l.02-.12c-.14.06-.26.22-.42.19-.08-.27.14-.13.14-.34-.22,0-.39.54-.6.3.08-.09.21-.11.3-.19-.24-.28-.26-.2-.43-.23h.02s-.4-.08-.4-.08l.11.07c-.17.74-.55.18-.81.73.25-.52,0-.26-.04-.56-.11-.06-.28-.11-.26-.2-.11.29-.35-.1-.5.32-.04-.09-.19.05-.22-.2-.21.14.11.15.12.27-.12.21-.35.17-.61.16-.24.02-.51.07-.65.39-.32.37-.25.66-.49,1.02-.19-.06-.09-.37-.09-.37-.25,0-.38.12-.49.34-.01-.09-.09-.13-.21-.18-.13.12.11.35-.15.36-.03-.11-.1-.28-.09-.41-.12.19-.17.45-.28.64-.15-.1-.06-.27-.07-.4-.16.18-.36.53-.23.77l.17-.03c-.05.07-.19-.14-.17-.22,0-.3.26-.14.34-.06-.03.04-.04.1-.06.15.46.32.4-.41.66-.56l.15.41.04-.45c.11.05.27.22.2.35.27.06.06-.23.32-.13.03.02.04.04.03.07l.09-.22c.01.1.17.23.05.25.39.03.34-.52.59-.3v.03c.35-.33-.11-.29.07-.77.18.19.35.39.52.59l-.07-.3s.14-.03.17.09c.09-.27-.08-.11-.05-.34.32.19.6-.31.79.14.02-.25-.27-.11-.07-.33.21.48.26-.17.53,0,0,.28-.23.2.03.37.02-.49.42,0,.57-.1-.05-.36.36-.2.64-.36,0,.06.14.09.32.12.18.04.4.1.54.16v.06c.04-.37.33-.3.54-.38-.01.22-.05.31-.17.41h.19c.05-.12.11-.18.24-.23l-.06.27c.25-.03.54-.27.86-.06.05-.25-.2-.74.2-.87,0,.14-.02.38-.12.42.03-.01.13-.1.18-.03l-.17.21c.14.12.11-.18.23-.15-.03.2.07.15.03.3-.03.02-.1-.09-.15-.02.13.05.28.19.31.34,0-.11.04-.26.15-.28.26.02.05.25.17.38.09-.12.22.06.28-.23.07.02.06.16.07.24.16-.09.62.11.55-.23l-.03-.03h.03s0,0,0,0h0c.53-.2.85.43,1.3.47l-.04.09c.29,0,.58.13.84.04.07.04.09.25,0,.34.21.02.28-.06.47.22-.26.06,0,.17-.24.02.19.2.16.36.54.25-.21.18.02.35.15.37-.02-.08-.03-.17-.06-.25.14.03.22.13.32.21l-.23.25c.18.62,1.19-.06,1.08.74.25-.09-.11-.31.15-.45.16.2.04.73.09.78.11.35.55-.16.73.16.05-.11.24-.37.52-.27.14.22-.16.57-.33.53-.04-.04-.04-.08,0-.11-.08-.03-.19-.06-.21.09l.1-.06c0,.17.21.41.02.48.2.06.19-.07.15-.22.07.34.3.36.42.67.02-.08.1-.2.13-.16.18.44.32.01.54.25-.05.26-.39.19-.1.37,0,.23-.24.2-.36.2.34.11.14.51.19.65l-.16-.07c.09.04.13.1.17.16l.16-.18c0,.09.05.15-.04.2.18,0,.32-.25.59-.19-.06.16.26.28-.01.44-.04-.38-.27.17-.43-.08.06.04.08.1.07.19-.03.03-.06.02-.09,0-.13.41.38,0,.51.32-.18.03-.28.2-.22.23-.05-.13.25-.17.43-.09-.04.26.2.19.21.32,0-.05.02-.1.03-.15.19-.01.19.11.28.26-.13.05-.13-.12-.17-.05.34.1-.22.48.04.67-.09.14-.32.08-.38.19.28.22-.15.31.05.57.23-.11.17-.12.42.06-.07-.16-.12-.31-.22-.45.14.08.28.16.39.26,0-.15-.2-.29-.18-.38.23.11.17.11.34,0-.29.25.26.38.04.66l-.59.05c-.25.35.36.59.2,1.05.04-.05.08-.09.11-.14.24.07,0,.28.09.43-.2-.03-.28.06-.4.11.15,0-.04.32.34.41l-.28.17c-.12.34.47.51.33.86-.18-.15-.36-.03-.45-.29-.03.11-.09.21.04.24-.14.03.18.39-.03.44.07.07.27.15.22.28-.04,0-.09-.03-.09-.03.09.03.08.25.31.2-.71.15-.36,1.02-.96,1.11-.06.26-.17.57-.27.79-.04-.04-.09-.05-.04-.08-.32.2.39.47.02.7-.37,0-.05-.27-.21-.23-.56-.3-.18.43-.64.42v-.07c-.29.02-.07.52-.3.75,0,0-.04-.05-.08-.06.14.39-.09.76-.23,1.06-.12-.25,0-.2-.23-.33-.07.13.33.25.19.51-.16-.03-.39.03-.6-.14l.17-.2c-.34-.16-.21.25-.36.31l-.09-.12c-.26.29,0,.59-.35.85l.11.06c.07.46-.29-.04-.29.34l-.3-.26c-.05.19-.21.62-.4.85-.03-.33.15-.64.2-.89-.13.08-.4.31-.36.52.03-.07.04-.19.12-.17.03.36-.1.63-.36.8-.19-.34-.37-.26-.58-.16-.22.09-.46.21-.69,0-.17.25-.41.35-.68.42-.28.05-.57.07-.84.2.41.47-.16.08.09.64-.12.09-.18.1-.21.07-.18-.05-.36-.14-.53-.22-.15-.14.09-.16.04-.29-.31.03-.2-.21-.44-.32.1.2-.01.33-.2.29l.31.21c-.34.43-.48-.4-.82.03l.09-.22c-.18.19-.77.12-.92.65-.05-.06-.12-.22-.03-.28-.5.04-1.14.59-1.55.31l.04-.15c-.1.05-.18.28-.3.14,0-.06.05-.15,0-.16-.05.05-.27.23-.4.13l.12-.15c-.47-.27-.82.33-1.28.34.09-.43-.26-.68-.42-.8l.02-.06c-.53-.18-1.05.06-1.64-.02-.11-.58-.96-.71-1.26-1.26.02.11-.2.28-.31.26-.06-.15-.48.04-.22-.27l.03.03c.15-.37-.11-.46-.26-.59l-.36.39c.02-.46-.27-.66-.57-.82-.29-.17-.56-.34-.41-.68-.19,0-.29-.14-.47-.16l.22-.17c-.18-.32-.25-.48-.56-.81l.22-.04c-.13-.21-.86.2-1,0l.32-.28c-.25-.38-.11-.94-.64-1.16.06-.02.18-.06.22,0-.07-.2-.03-.83-.55-.56.35-.14-.1-.44-.34-.63l.28-.04c-.41-.09-.49-.08-.66-.34.02-.08.2-.11.15,0,.09-.25-.3-.12-.22-.42l.2.07c-.03-.23-.11-.2-.34-.29-.13-.13,0-.46.25-.52-.16-.01-.37-.12-.31-.27.09-.03.16.02.19.04.17-.4-.38-.57-.08-.85.09,0,.14-.02.17-.04-.03.3,0,.55-.03.53.26-.02.29-.25.65-.08-.22-.17-.61-.51-.49-.74.03-.01.05-.02.09-.03l.03.03c.03-.05,0-.1-.04-.15.04-.07.09-.12.1-.19.22,0,.15-.26.17-.37-.28-.03-.22-.18-.46-.07.02-.02.03.03.03.11,0,.02,0,.04.02.06h-.02c0,.07-.01.17-.02.29-.13-.11-.24-.23-.06-.35-.17-.09-.35-.18-.43-.24.4-.12.69-.4.93-.39-.09-.4.12-.85-.31-1.26-.03-.13.19-.07.28-.08.02.08,0,.14.06.2-.06-.25.19-.61-.13-.81.26-.19.25.28.34-.09l.08.09c.44-.2.33-.57.32-.94-.02-.37,0-.79.56-.9-.07.02-.11.03-.16,0,.41-.29.67-.71.97-1.1.3-.39.68-.74,1.2-.81.28-.06.16-.27.2-.51l.21.22c.01-.15.03-.3.05-.45.25-.42.93.31,1.18-.3l-.14-.16c.18-.04.49-.34.54-.1,0-.04-.01-.22.09-.14l.06.15.34-.39c.36.02.11.61.58.54.15-.09.42-.55.34-.65-.07,0-.2-.06-.24-.21l.16-.12c-.04-.47.06-.97-.49-1.19l-.29.35-.16-.2.29-.07c-.21-.17-.28.03-.36.18-.06-.11-.13-.18-.21-.2l-.2.53c-.09-.16.04-.39-.21-.42-.09.24.27.34.06.55-.22-.15-.24-.33-.36-.1-.07-.1-.05-.19,0-.26-.12.18-.41.23-.4.49-.26-.17-.5.29-.68-.11,0,.12-.11.45-.24.55,0-.6-.54.25-.76-.25.08.53-.56.6-.68,1.06,0-.04-.02-.13.02-.13-.19.1-.33.03-.49.05.23.32.03.59.08.89-.44-.1-.2-.45-.5-.66.22.23-.11.55.13.68-.31-.03-.2.04-.51-.12.33.37-.08.19.04.52-.37.05-.39-.25-.49.09-.22.02-.16-.31-.16-.31ZM.53,11.17h0c0-.06,0-.12-.01-.15,0,.03,0,.08.02.15ZM.52,11.78c.01-.08.02-.17.02-.27.1-.02.2,0,.19.06-.06-.03-.12.11-.21.2ZM2.52,10.7c.03.08-.03.1-.09.11,0-.04,0-.08-.02-.14h-.03c.05,0,.1.01.14.03Z" style="fill: #202020; stroke-width: 0px;"/>
        <path d="M2.17,10.51s-.02-.02-.02-.04c-.03.01-.05.03-.07.04l.08.04v-.04Z" style="fill: #202020; stroke-width: 0px;"/>
        <path d="M16.77,1.54h0s-.01-.02-.01-.04c0,.01,0,.02,0,.04Z" style="fill: #202020; stroke-width: 0px;"/>
        <polygon points="3.28 19.74 3.34 19.69 3.25 19.69 3.28 19.74" style="fill: #202020; stroke-width: 0px;"/>
        <path d="M13.78.17s-.02-.05-.04-.07c0,.02.02.04.04.07Z" style="fill: #202020; stroke-width: 0px;"/>
        <path d="M12.35.18l-.21-.07c.1.04.16.06.21.07Z" style="fill: #202020; stroke-width: 0px;"/>
        <path d="M11.23.21c0,.05,0,.09,0,.12h0s0-.12,0-.12Z" style="fill: #202020; stroke-width: 0px;"/>
        <path d="M25.88,7.77s.01.03.02.04c.08.09.04.02-.02-.04Z" style="fill: #202020; stroke-width: 0px;"/>
        <path d="M22.47,3.71c.08,0,.15,0,.22.01-.05-.08-.1-.13-.22-.01Z" style="fill: #202020; stroke-width: 0px;"/>
        <polygon points="26.26 13.91 26.26 13.91 26.25 13.94 26.26 13.91" style="fill: #202020; stroke-width: 0px;"/>
        <path d="M22.86,3.89c-.03-.1-.1-.14-.18-.16.04.06.09.14.18.16Z" style="fill: #202020; stroke-width: 0px;"/>
        <path d="M6.82,2.29l-.05.03s.02.03.03.04l.02-.07Z" style="fill: #202020; stroke-width: 0px;"/>
        <path d="M6.8,2.36l-.02.07s.04-.04.02-.07Z" style="fill: #202020; stroke-width: 0px;"/>
        <path d="M6.74,2.57l.04-.14s-.08.06-.04.14Z" style="fill: #202020; stroke-width: 0px;"/>
        <path d="M8.11,1.49l-.04-.1s.02.05.04.1Z" style="fill: #202020; stroke-width: 0px;"/>
        <path d="M8.48,1.22c-.11.02-.35-.05-.44.1l.03.08c-.02-.17.4,0,.41-.17Z" style="fill: #202020; stroke-width: 0px;"/>
        <path d="M10.62,1.67l-.35.02c.09.09.22.2.08.27.5.19-.17-.2.27-.28Z" style="fill: #202020; stroke-width: 0px;"/>
        <path d="M11.64,1.54c-.16.08.03.15.04.22.09-.11.11-.14-.04-.22Z" style="fill: #202020; stroke-width: 0px;"/>
        <path d="M18.89,2.57l-.13.22c.14.03.04-.09.13-.22Z" style="fill: #202020; stroke-width: 0px;"/>
        <polygon points="20.85 2.14 20.81 1.93 20.63 2.09 20.85 2.14" style="fill: #202020; stroke-width: 0px;"/>
        <polygon points="20.54 4.13 20.47 4.13 20.71 4.18 20.54 4.13" style="fill: #202020; stroke-width: 0px;"/>
        <path d="M23.42,14.54l.3.09c-.02-.11-.34-.26-.3-.09Z" style="fill: #202020; stroke-width: 0px;"/>
        <path d="M20.48,18.91c-.15-.08-.32-.06-.3.12.1-.06.28-.05.3-.12Z" style="fill: #202020; stroke-width: 0px;"/>
        <path d="M6.13,18.99l.15-.02c-.07-.02-.14-.04-.2-.06l.06.08Z" style="fill: #202020; stroke-width: 0px;"/>
      </g>
    </g>
  </g>
</svg>