<?xml version="1.0" encoding="UTF-8"?>
<svg id="Layer_2" data-name="Layer 2" xmlns="http://www.w3.org/2000/svg" viewBox="0 0 21.5 20.24">
  <g id="Layer_30" data-name="Layer 30">
    <g>
      <path d="M4.79,8.32c-2.28.12-3.81,2.78-3.33,5.01s2.43,3.89,4.55,4.74c4.25,1.7,9.62.42,12.35-3.26s2.24-9.47-1.29-12.39S7.44.35,5.11,4.29" style="fill: #eaeaea; stroke-width: 0px;"/>
      <g>
        <path d="M4.54,3.95c.06.07.23.15.25.07l-.25-.22v.16Z" style="fill: #202020; stroke-width: 0px;"/>
        <path d="M5.37,3.82c-.08-.17-.24-.43-.52-.56.2.27.08.22.33.52-.01.09-.17.06-.26-.02.05.07-.14.07.01.22.28.05.36-.05.26-.29.08.02.13.09.18.13Z" style="fill: #202020; stroke-width: 0px;"/>
        <path d="M12.12,1.16l-.05-.04s.03.03.05.04Z" style="fill: #202020; stroke-width: 0px;"/>
        <path d="M16.25,2.63s-.06,0-.08.03c.04,0,.07,0,.08-.03Z" style="fill: #202020; stroke-width: 0px;"/>
        <path d="M16.6,3.37s-.01-.03-.02-.05c0,.03,0,.06.02.05Z" style="fill: #202020; stroke-width: 0px;"/>
        <path d="M12.12,1.16l.12.1c.01-.11-.06-.08-.12-.1Z" style="fill: #202020; stroke-width: 0px;"/>
        <path d="M5.48,2.44s0,.07.01.12c0-.03.01-.05.02-.08l-.03-.04Z" style="fill: #202020; stroke-width: 0px;"/>
        <path d="M10.19,1.62h-.03s0,.09,0,.14l.03-.14Z" style="fill: #202020; stroke-width: 0px;"/>
        <path d="M8.81,2.12s-.06-.26-.1-.38c.03.11.03.17,0,.21.02.05.05.11.09.18Z" style="fill: #202020; stroke-width: 0px;"/>
        <path d="M6.54,2.99v.06s0-.04,0-.06Z" style="fill: #202020; stroke-width: 0px;"/>
        <path d="M11.25,1.52s.01.08.02.1c0-.03-.01-.07-.02-.1Z" style="fill: #202020; stroke-width: 0px;"/>
        <path d="M2.26,7.92s.02.03.03.04c0-.03-.02-.05-.03-.04Z" style="fill: #202020; stroke-width: 0px;"/>
        <polygon points="4.79 8.39 4.77 8.41 4.77 8.57 4.79 8.39" style="fill: #202020; stroke-width: 0px;"/>
        <path d="M17.2,4.54h0s-.03,0,0,0Z" style="fill: #202020; stroke-width: 0px;"/>
        <path d="M16.31,15.31c.28.1.04.39.39.46-.09-.07-.14-.45-.39-.46Z" style="fill: #202020; stroke-width: 0px;"/>
        <path d="M5.53,2.43s.03-.04.05-.06c-.03.02-.04.04-.05.06Z" style="fill: #202020; stroke-width: 0px;"/>
        <path d="M16.69,15.77h0s.03,0,.03,0c-.01,0-.02,0-.04,0Z" style="fill: #202020; stroke-width: 0px;"/>
        <path d="M18.61,7.1s.08-.04.11-.06c-.03,0-.06.02-.11.06Z" style="fill: #202020; stroke-width: 0px;"/>
        <path d="M18.09,4.85v.07s0-.05,0-.07Z" style="fill: #202020; stroke-width: 0px;"/>
        <path d="M19.22,8.2s-.05.05-.01.09c.01,0,.02-.01.03-.02-.04-.01-.06-.03-.02-.07Z" style="fill: #202020; stroke-width: 0px;"/>
        <path d="M19.28,9.47s.04-.02.06-.02v-.04s-.06.06-.06.06Z" style="fill: #202020; stroke-width: 0px;"/>
        <path d="M.19,12.72c.08-.04.16-.07.25-.09-.2.03-.28-.23-.25.09Z" style="fill: #202020; stroke-width: 0px;"/>
        <path d="M5.59,2.55c-.04-.06-.06-.09-.06-.12,0,.02-.02.03-.02.05.03.03.05.06.08.07Z" style="fill: #202020; stroke-width: 0px;"/>
        <path d="M21.43,7.99c0,.08,0,.17-.01.25.03-.07.02-.16.01-.25Z" style="fill: #202020; stroke-width: 0px;"/>
        <path d="M8.21,19.83l-.06.02s.04,0,.06-.02Z" style="fill: #202020; stroke-width: 0px;"/>
        <path d="M21.5,8.99c-.1.05-.15.1-.19.14.02,0,.04.02.07.03l.11-.17Z" style="fill: #202020; stroke-width: 0px;"/>
        <path d="M.44,12.63h0s0,0,0,0Z" style="fill: #202020; stroke-width: 0px;"/>
        <path d="M.04,10.71c-.08.27.31.22.5.34.03.32-.3.07-.51.14.04.22.37.43.33.57-.06,0-.09.03-.16-.02.25.23-.04.63.33.86-.03.02-.06.03-.09.03.18-.04.37-.05.51-.05.01.11.24.18,0,.23,0-.06-.09-.06-.17-.09l.11.1c-.34.13-.13-.15-.38-.13.12.23.44.45.37.63-.33.1-.18-.39-.44-.11.03-.1.05-.2.09-.29-.52.27.03-.18-.53.08-.04.41.22.44.22.82.2.03.26-.09.47-.06.45.37-.69.65-.14.87.25,0,.66-.13.55.19l-.38.08c.11.34.58-.07.52.37-.16.02-.24-.18-.25-.11-.15.35.27.04.35.19l-.27.2c.24.29.67.48.97.73-.09.05-.22.06-.24.2.45.28.69.81.95,1.27l.33-.11s-.02.15-.09.17c.08.2.12-.14.26-.18.09.05,0,.22-.1.25.41.01,1.05.07,1.18.51l-.1.04c.17.24.55-.39.62-.03l-.06.02c.44.38,1.11.35,1.37.9.21-.37.48.36.68-.21.23.36.11.44.52.75.12.05.26-.33.41-.36l-.05.3.26-.28.05.38.15-.05c-.05-.03-.1-.16-.07-.24.23-.09.49.29.49.44l.54-.21c-.02.12-.11.16-.19.23.3-.29.03.33.31.06-.03-.07.03-.18.04-.24.12.19.41.2.62.12l-.04.21c.4.07.82-.13,1.26-.15-.17-.09-.16-.46-.04-.5l.08.32c.06-.21-.14-.11,0-.37.16.02.15.35.06.47l.18-.14c.02.09-.02.15-.02.28.05-.21.39.28.46-.09l.03.09c.44-.05.61-.23.96-.31-.06-.28.09-.24.14-.49.26.02.6.15.9.03.16-.2-.01-.24.02-.43.1.24.38.1.29.33.33-.18.44-.21.78-.6-.09-.07-.16-.09-.17-.18.06-.07.22.02.26.13v.03c.28-.54,1.44.09,1.54-.6v.04s.2-.48.2-.48c.19-.08.01.23.23.27.14-.61.64-.42.77-.89.75.36.76-.78,1.37-.79l-.15-.1c-.06-.2.16-.04.25-.07-.11-.08-.2,0-.23-.12.41-.81,1.32-1.4,1.85-2.25.18-.32-.78-.52-.22-.77l.27.23c-.07-.4.03-.73.14-1.07.08-.34.18-.68.07-1.04.07.05.17.07.16.13.26-.1.08-.53-.12-.55.03-.1.18,0,.29-.06.16-.13-.26-.39-.02-.44.04-.01.08.05.09.07-.11-.1.05-.44-.23-.36.14-.25-.11-.48.06-.68-.32-.12.13-.44-.31-.46.45,0,.35-.47.11-.6.14.04.12-.15.32-.11-.03-.18-.14-.34-.36-.27.5-.43-.54-.57.09-.9-.34-.48-.67-.89-.93-1.3.44-.15.21.48.65.31-.31-.4-.79-.48-.86-.93,0-.13.2-.02.29-.02-.33-.35-.38-.82-.79-1.05.04-.02.1,0,.15.01-.05-.06-.05-.19-.21-.08l.09.03c-.18.26-.7.08-.83.16.56-.22-.1-.4.63-.66-.06-.02-.18-.02-.28.07-.01-.09.04-.16.21-.18-.26-.17-.36.04-.53-.16.08-.06.14-.05.25-.1-.24.02-.47.05-.55-.17.05-.03.09-.1.14-.05-.27-.28-.8-.1-.96-.5.37-.24,0-.2.22-.5-.08-.02-.16-.05-.24-.06l-.04.19c-.15-.12-.45,0-.51-.2l.21-.04-.33-.16.08.23c-.26.05-.26.4-.39.17.06,0-.14-.11-.11-.34h0c-.14.06-.28.12-.36-.03.03-.12.23-.35.25-.43-.23.23-.43-.15-.68.11.07-.06.16-.23.16-.27l-.18.2c-.04-.11-.04-.15.04-.28-.22-.14-.12.46-.32.16.03,0,.03-.05.1-.06-.25-.22-.6-.08-.84-.27.03-.38.27-.02.27-.34-.44-.07-.95.18-1.32.04l.06.05c-.15.51-.24-.32-.48-.1.05-.03.1-.29.08-.23-.26-.11-.58.07-.99.21l.06-.14c-.16-.12-.42-.07-.6-.13-.05.14-.15.12-.08.31-.28-.4-.54-.24-.77-.11-.23.14-.43.31-.72.04.05-.01.11-.14.07-.14l-.37.2c.08.22.08.13.2.29-.02.14-.1.27-.2.29.13-.18-.08-.36-.19-.47.03.07.02.15.05.22-.3-.34.08.46-.25.27l-.02-.12c-.08.09-.13.27-.24.27-.13-.24.07-.15,0-.36-.15.06-.14.57-.36.36.03-.1.13-.12.17-.21-.25-.25-.25-.17-.37-.17h.01s-.31-.02-.31-.02l.1.05c.08.73-.34.27-.38.8.04-.51-.07-.25-.19-.53-.1-.04-.24-.07-.25-.16,0,.28-.29-.06-.29.34-.06-.08-.13.06-.23-.17-.12.15.12.13.17.24-.06.39-.75,0-.81.6-.15.34.03.65-.08.95-.18-.05-.18-.32-.18-.32-.22,0-.29.1-.33.28-.04-.08-.11-.11-.22-.15-.07.11.2.31-.01.33-.06-.09-.16-.24-.2-.36-.04.18,0,.41-.03.58-.16-.08-.14-.24-.18-.35-.06.19-.19.44,0,.65.05-.01.09-.02.14-.03-.03.05-.2-.12-.21-.18-.07-.24.21-.1.29-.04l-.02.12c.51.29.2-.37.38-.51l.24.35c-.04-.13-.08-.27-.1-.4.11.05.29.2.26.3.25.05,0-.19.24-.1.03.02.04.04.05.06l.02-.18c.04.08.21.21.11.21.33.03.09-.5.36-.31v.03c.19-.31-.16-.26-.16-.7l.58.52-.14-.27s.11-.03.16.08c0-.25-.09-.1-.14-.31.28.13.35-.36.62.05-.06-.23-.23-.08-.15-.31.3.43.15-.18.4-.04.08.27-.11.21.13.35-.12-.46.31-.04.38-.16-.14-.34.2-.25.35-.44.03.11.46.07.68.14v.06c-.05-.36.16-.36.3-.46.04.22.04.31-.02.42l.13-.03c0-.12.04-.19.12-.25l.02.28c.17-.04.3-.4.57-.24-.02-.26-.3-.69-.05-.88.03.14.07.37,0,.43.02-.02.07-.12.12-.07l-.08.24c.12.09.03-.2.13-.19.02.2.08.13.09.29-.02.02-.09-.07-.11,0,.1.03.23.13.28.27-.02-.11-.02-.26.05-.3.18-.03.08.23.19.32.04-.15.16,0,.15-.29.05,0,.07.14.09.22.09-.13.44-.04.34-.35l-.02-.02h.02s0-.01,0-.01h0c.34-.31.66.21.98.1v.1c.19-.1.41,0,.58-.18.06.01.1.2.05.31.15-.04.2-.16.36.06-.18.13,0,.16-.17.08.16.13.15.3.41.09-.13.22.03.34.14.29l-.06-.21c.1,0,.18.04.25.08l-.15.3c.16.5.88-.4.83.34.19-.16-.1-.24.1-.44.14.13.06.63.1.65.09.27.43-.33.57-.09.04-.12.18-.4.4-.38.12.14-.12.53-.25.55-.04-.02-.03-.06,0-.09-.07,0-.15,0-.17.15l.08-.09c0,.15.18.27.02.39.16-.02.16-.12.12-.23.06.26.27.19.35.43.02-.07.09-.2.11-.18.14.33.25-.07.46.05-.03.22-.33.28-.06.32,0,.18-.21.24-.31.27.3-.02.13.37.16.47h-.14c.08,0,.11.03.14.07l.14-.2c0,.07.04.11-.04.17.16-.05.27-.29.52-.33-.04.13.27.12.03.34-.06-.27-.23.21-.4.08.06,0,.08.05.08.12-.02.03-.06.03-.08.03-.1.36.35-.13.49.09-.16.08-.25.24-.19.25-.05-.08.22-.21.39-.2-.02.21.19.09.22.18v-.12c.17-.06.2.02.3.1-.11.08-.13-.05-.17.02.34-.04-.14.42.13.47-.07.13-.29.16-.33.26.29.08-.14.29.12.4.2-.15.14-.14.41-.09l-.29-.25.4.06c-.04-.1-.23-.14-.21-.22.22.01.16.03.32-.1-.27.29.31.19.16.45l-.55.22c-.14.31.43.3.4.66l.07-.13c.24-.03.1.18.22.26-.19.04-.25.13-.36.2.14-.04.04.23.43.17l-.22.2c-.04.27.62.19.59.47-.22-.05-.35.09-.52-.05,0,.08-.02.16.12.15-.12.06.3.2.12.3.09.03.3.02.3.12-.04.01-.1,0-.1,0,.1,0,.14.14.35.04-.61.32.1.78-.45,1.02.06.19.12.42.12.6-.06-.02-.1,0-.07-.04-.21.22.55.2.31.46-.33.1-.15-.17-.28-.09-.65-.04.06.34-.35.46l-.03-.05c-.24.09.17.37.08.58,0,0-.05-.02-.1-.02.3.23.31.54.33.79-.22-.14-.1-.14-.36-.17,0,.11.41.09.41.31-.15.02-.31.12-.57.04l.04-.18c-.36-.03-.06.23-.16.29l-.14-.07c-.06.27.31.42.16.7l.12.02c.29.32-.26.03-.07.31l-.38-.13c.03.13.16.52.12.74-.19-.25-.22-.53-.31-.73-.05.09-.14.33,0,.48-.01-.06-.07-.15,0-.16.22.27.24.5.11.69-.61-.46-.47.37-1.05.11,0,.47-.56.46-.82.78.51.32-.07.1.36.53-.05.1-.09.12-.13.09l-.48-.08c-.17-.09-.01-.17-.11-.26-.19.1-.23-.14-.44-.18.16.15.14.3,0,.3l.31.12c-.04.45-.52-.26-.57.18l-.03-.21c-.06.19-.45.31-.34.8-.06-.05-.18-.17-.14-.25-.33.13-.5.85-.9.71l-.03-.15c-.04.07,0,.31-.14.2-.02-.06-.03-.15-.06-.14-.01.06-.08.31-.2.26v-.19c-.39-.05-.37.58-.66.77-.13-.43-.44-.47-.59-.51v-.06c-.43.04-.63.51-1.02.73-.3-.43-.86-.12-1.27-.38.06.08,0,.34-.08.39-.09-.09-.27.3-.24-.1h.03c-.06-.39-.25-.28-.4-.31l-.06.52c-.17-.4-.42-.35-.67-.3-.24.04-.47.09-.51-.27-.12.11-.23.09-.35.2l.07-.27c-.23-.14-.34-.2-.66-.22l.12-.17c-.15-.07-.46.7-.63.66l.09-.42c-.31-.1-.44-.55-.88-.34.03-.05.09-.16.15-.15-.13-.07-.35-.51-.59.03.18-.33-.26-.19-.5-.15l.17-.22c-.31.22-.37.3-.6.26-.02-.06.09-.21.11-.11-.05-.21-.26.14-.33-.1l.17-.1c-.12-.12-.17-.03-.37.07-.15.02-.21-.26-.06-.47-.12.1-.32.19-.35.07.06-.08.12-.1.15-.11-.07-.32-.52-.07-.46-.39.07-.06.09-.1.1-.13.14.16.25.3.22.3.18-.18.1-.33.44-.49-.22.05-.7.16-.71-.05.01-.02.03-.04.05-.07h.03c0-.05-.04-.06-.1-.06,0-.07,0-.11-.02-.15.16-.14-.02-.21-.05-.28-.23.16-.25.05-.39.26.01-.02.03,0,.08.03.01,0,.03.02.05.01h-.02s.09.1.14.17c-.15.03-.29.04-.22-.12-.18.07-.36.13-.44.15.26-.33.32-.62.52-.76-.26-.14-.34-.45-.89-.42-.09-.05.11-.13.18-.18.06.02.07.07.15.07-.18-.09-.18-.38-.54-.33.11-.22.36.02.23-.21h.12c.25-.27,0-.38-.22-.59-.22-.19-.4-.47.02-.69-.05.03-.08.05-.14.05.2-.29.22-.61.29-.95.08-.32.22-.66.62-.74.18-.08.01-.22-.05-.43l.25.17c-.05-.12-.1-.25-.13-.37.05-.4.8.26.77-.28l-.14-.15c.12-.03.28-.3.36-.07,0-.04-.05-.21.03-.13l.06.14c.05-.12.11-.25.18-.35.24.06.15.6.41.58.07-.07.24-.49.2-.6-.05,0-.13-.08-.16-.24l.12-.1c-.02-.47.12-.96-.35-1.23-.09.11-.18.21-.25.32l-.14-.2c.08-.03.16-.05.25-.06-.19-.19-.25.02-.31.17-.05-.11-.12-.18-.19-.21-.06.17-.11.33-.14.51-.1-.16,0-.39-.22-.41-.05.24.26.33.11.54-.2-.14-.25-.31-.32-.09-.07-.1-.08-.18-.03-.26-.08.18-.33.25-.27.49-.27-.16-.35.32-.61-.04.02.12,0,.42-.07.53-.18-.56-.38.31-.73-.12.22.46-.28.64-.23,1.06-.02-.03-.07-.1-.03-.11-.13.12-.28.09-.41.14.33.22.27.49.43.72-.42.02-.36-.32-.71-.42.29.14.13.48.4.52-.28.05-.16.08-.49.03.45.21.03.18.27.4-.3.14-.46-.09-.39.21-.18.08-.28-.2-.28-.2ZM2.1,16.22h0s-.07-.06-.08-.07c.02.02.04.04.09.07ZM2.41,16.55s-.08-.1-.13-.15c.06-.08.15-.13.17-.1-.06.03-.03.14-.05.25ZM3.36,14.67c.06.02.03.07-.01.11-.02-.02-.04-.04-.08-.06l-.03.02s.09-.05.13-.07Z" style="fill: #202020; stroke-width: 0px;"/>
        <path d="M3,14.8s-.02,0-.03,0c-.01.02-.02.04-.03.06l.08-.03-.02-.02Z" style="fill: #202020; stroke-width: 0px;"/>
        <path d="M12.07,1.11h0s-.01-.02-.02-.03c0,.01,0,.02,0,.03Z" style="fill: #202020; stroke-width: 0px;"/>
        <polygon points="7.69 19.88 7.7 19.81 7.65 19.86 7.69 19.88" style="fill: #202020; stroke-width: 0px;"/>
        <path d="M9.69.42s-.03-.05-.05-.06c0,.02.03.04.05.06Z" style="fill: #202020; stroke-width: 0px;"/>
        <path d="M8.67.67l-.17-.04c.08.03.13.04.17.04Z" style="fill: #202020; stroke-width: 0px;"/>
        <path d="M7.86.86s.03.08.04.12h0s-.04-.12-.04-.12Z" style="fill: #202020; stroke-width: 0px;"/>
        <path d="M19.67,3.82s.02.02.03.02c.08.04.04,0-.03-.02Z" style="fill: #202020; stroke-width: 0px;"/>
        <path d="M16.5,1.51c.06-.02.12-.05.18-.05-.05-.05-.09-.08-.18.05Z" style="fill: #202020; stroke-width: 0px;"/>
        <polygon points="21.43 7.96 21.43 7.96 21.43 7.99 21.43 7.96" style="fill: #202020; stroke-width: 0px;"/>
        <path d="M16.81,1.56c-.02-.09-.08-.11-.14-.11.04.05.07.11.14.11Z" style="fill: #202020; stroke-width: 0px;"/>
        <path d="M4.95,2.99l-.04.02s.03.02.03.03v-.06Z" style="fill: #202020; stroke-width: 0px;"/>
        <path d="M4.95,3.04v.06s.02-.03,0-.06Z" style="fill: #202020; stroke-width: 0px;"/>
        <path d="M4.95,3.22v-.12s-.05.05,0,.12Z" style="fill: #202020; stroke-width: 0px;"/>
        <path d="M5.81,2.26l-.06-.08s.03.05.06.08Z" style="fill: #202020; stroke-width: 0px;"/>
        <path d="M6.04,2.02c-.07.03-.3-.03-.34.09l.05.07c-.06-.15.35.02.29-.16Z" style="fill: #202020; stroke-width: 0px;"/>
        <path d="M7.82,2.28c-.09.01-.17.03-.25.06.09.07.21.16.14.24.41.11-.19-.18.1-.3Z" style="fill: #202020; stroke-width: 0px;"/>
        <path d="M8.54,2.08c-.09.09.07.14.09.2.03-.12.04-.15-.09-.2Z" style="fill: #202020; stroke-width: 0px;"/>
        <path d="M13.7,1.52l-.07.25c.1-.02.02-.1.07-.25Z" style="fill: #202020; stroke-width: 0px;"/>
        <path d="M15.11.55l-.05-.19-.13.21c.06,0,.12-.02.18-.02Z" style="fill: #202020; stroke-width: 0px;"/>
        <polygon points="15 2.48 14.94 2.49 15.12 2.47 15 2.48" style="fill: #202020; stroke-width: 0px;"/>
        <path d="M19.04,9.24l.32-.03c-.06-.07-.41-.07-.32.03Z" style="fill: #202020; stroke-width: 0px;"/>
        <path d="M18.59,12.95c-.16-.02-.29.02-.19.15.06-.06.21-.09.19-.15Z" style="fill: #202020; stroke-width: 0px;"/>
        <polygon points="9.11 17.52 9.19 17.42 9.05 17.5 9.11 17.52" style="fill: #202020; stroke-width: 0px;"/>
      </g>
    </g>
  </g>
</svg>