<?xml version="1.0" encoding="UTF-8"?>
<svg id="Layer_2" data-name="Layer 2" xmlns="http://www.w3.org/2000/svg" viewBox="0 0 10.66 12.16">
  <g id="Layer_30" data-name="Layer 30">
    <g>
      <path d="M6.47,4.38c.17-1.55-1.21-3.08-2.76-3.08C-.57,3.15,1.64,11.22,6.26,10.62s4.69-8.97.09-9.65" style="fill: #eaeaea; stroke-width: 0px;"/>
      <g>
        <path d="M6.45.31c-.03.08-.05.28,0,.25l.09-.32-.09.07Z" style="fill: #202020; stroke-width: 0px;"/>
        <path d="M6.65.99c.09-.14.22-.4.26-.7-.14.29-.12.16-.26.51-.05.03-.06-.12-.03-.24-.03.08-.06-.09-.12.11.02.27.08.3.21.11,0,.08-.04.16-.05.21Z" style="fill: #202020; stroke-width: 0px;"/>
        <path d="M9.06,4.13l.03-.04s-.03.02-.03.04Z" style="fill: #202020; stroke-width: 0px;"/>
        <path d="M9.06,6.57s-.04-.03-.07-.04c.02.02.04.04.07.04Z" style="fill: #202020; stroke-width: 0px;"/>
        <path d="M8.62,6.89s.02-.01.03-.02c-.03,0-.05,0-.03.02Z" style="fill: #202020; stroke-width: 0px;"/>
        <path d="M9.06,4.13l-.08.09c.11-.02.07-.05.08-.09Z" style="fill: #202020; stroke-width: 0px;"/>
        <path d="M7.53.42s-.05.03-.08.06c.02,0,.04-.01.05-.01l.02-.05Z" style="fill: #202020; stroke-width: 0px;"/>
        <path d="M8.41,3.27v-.02s-.09.03-.13.05l.13-.04Z" style="fill: #202020; stroke-width: 0px;"/>
        <path d="M7.94,2.69s.22-.16.31-.23c-.09.07-.14.09-.17.1-.04.04-.08.08-.14.14Z" style="fill: #202020; stroke-width: 0px;"/>
        <path d="M7.26,1.56l-.04.02.04-.02Z" style="fill: #202020; stroke-width: 0px;"/>
        <path d="M8.6,3.79s-.07.03-.09.04c.03-.01.06-.03.09-.04Z" style="fill: #202020; stroke-width: 0px;"/>
        <path d="M7.62,2.95s-.03,0-.05.02c.03,0,.05,0,.05-.02Z" style="fill: #202020; stroke-width: 0px;"/>
        <polygon points="6.4 4.38 6.38 4.36 6.23 4.34 6.4 4.38" style="fill: #202020; stroke-width: 0px;"/>
        <path d="M8.09,7.43h0s-.02-.02,0,0Z" style="fill: #202020; stroke-width: 0px;"/>
        <path d="M4,8.72c-.12.24-.3.15-.42.43.07-.08.37-.25.42-.43Z" style="fill: #202020; stroke-width: 0px;"/>
        <path d="M7.55.47s.03,0,.04.02c-.02-.02-.03-.02-.04-.02Z" style="fill: #202020; stroke-width: 0px;"/>
        <path d="M3.58,9.15h0s0,.03,0,.03c0-.01,0-.02.01-.03Z" style="fill: #202020; stroke-width: 0px;"/>
        <path d="M7.52,8.72s.07.05.1.07c-.02-.02-.05-.04-.1-.07Z" style="fill: #202020; stroke-width: 0px;"/>
        <path d="M8.47,8.02h-.05s.04,0,.05,0Z" style="fill: #202020; stroke-width: 0px;"/>
        <path d="M7.36,9.37s-.05-.04-.04,0c.01.01.02.02.02.03-.02-.04-.02-.06.02-.03Z" style="fill: #202020; stroke-width: 0px;"/>
        <path d="M6.83,9.65s.02.03.03.05v-.02s-.03-.02-.03-.02Z" style="fill: #202020; stroke-width: 0px;"/>
        <path d="M5.4.54c-.01.08-.04.17-.07.25.08-.19.25-.17.07-.25Z" style="fill: #202020; stroke-width: 0px;"/>
        <path d="M7.47.57c.03-.06.05-.09.07-.1-.01,0-.02,0-.03,0-.02.04-.03.07-.04.1Z" style="fill: #202020; stroke-width: 0px;"/>
        <path d="M8.57,11.23c-.05.02-.12.03-.17.05.06,0,.12-.02.17-.05Z" style="fill: #202020; stroke-width: 0px;"/>
        <path d="M.31,4.71l-.03-.04s0,.03.03.04Z" style="fill: #202020; stroke-width: 0px;"/>
        <path d="M7.96,11.55c-.07-.08-.12-.11-.17-.13,0,.02,0,.04.01.07l.16.06Z" style="fill: #202020; stroke-width: 0px;"/>
        <path d="M5.32.79h0s0,0,0,0Z" style="fill: #202020; stroke-width: 0px;"/>
        <path d="M6.65.92c-.13-.13-.3.21-.47.35-.21-.04.11-.26.18-.45-.16-.01-.44.2-.51.14.03-.05.03-.08.09-.13-.27.17-.33-.21-.64.05,0-.03.02-.06.03-.09-.07.18-.15.34-.22.46-.06-.02-.2.16-.12-.07.03.02.08-.06.13-.12l-.1.06c.09-.34.14-.07.25-.3-.18.03-.43.25-.49.11.1-.33.27-.01.25-.35l.11.19c.1-.54.09.08.21-.49-.2-.19-.31.05-.57-.13-.11.16-.05.28-.16.44-.39.24-.18-.91-.53-.5-.09.22-.09.65-.29.41l.04-.38c-.29-.03-.09.5-.38.32,0-.19.17-.18.12-.21-.24-.29-.08.26-.19.3l-.11-.32c-.25.19-.51.62-.64.76-.05-.09-.07-.2-.18-.26-.18.29-.54.4-.93.48l.13.28s-.14-.05-.16-.11c-.17.01.13.13.18.24-.03.06-.18-.04-.23-.13.06.34.1.79-.29.8l-.05-.08c-.2.09.41.45.12.45l-.03-.05c-.25.27-.17.7-.65.83.4.16-.26.3.31.45-.33.13-.42.05-.67.3-.04.07.35.16.4.26l-.31-.03.31.16-.37.03.07.09s.14-.06.23-.05c.13.14-.24.3-.39.31.08.11.16.22.25.32-.13,0-.17-.06-.24-.1.31.17-.33.03-.03.19.07-.02.18,0,.25,0-.18.08-.17.26-.08.38H.03c-.03.24.13.49.19.74.08-.11.45-.14.5-.08l-.32.08c.21.01.11-.1.37-.04-.02.1-.35.13-.47.09l.13.09c-.09.03-.15,0-.27.02.21,0-.28.27.08.27l-.09.03c.05.27.19.35.28.55.27-.08.24.02.47,0-.04.17-.19.41-.1.58.17.07.23-.06.41-.07-.23.11-.13.27-.34.25.14.19.18.24.49.39.08-.08.1-.13.19-.15.06.02-.04.15-.16.2h-.03c.44.07-.22,1.03.36.95h-.03c.13.02.25.04.38.05.05.12-.2.07-.26.24.53-.06.28.39.66.37-.39.71.56.39.49.94l.09-.16c.15-.1.01.13.03.2.07-.12.02-.18.11-.24.59.11.96.82,1.63,1.09.24.1.28-.88.5-.41l-.12.31c.26-.16.48-.18.72-.17.23,0,.48.04.66-.19-.01.08,0,.18-.04.19.13.22.35-.07.31-.26.07,0,.05.17.12.26.13.11.16-.35.27-.14.02.04,0,.08-.02.1.03-.13.3-.05.15-.29.21.09.25-.24.43-.14-.06-.32.33,0,.15-.4.2.41.45.18.42-.05.05.14.15.07.22.25.1-.08.14-.22-.02-.4.51.28.05-.61.61-.17.12-.41.15-.78.25-1.06.36.28-.17.28.21.57.04-.37-.15-.69.06-.87.09-.03.15.14.2.2-.02-.34.3-.47.2-.79.04.02.07.06.09.1,0-.05.11-.07-.08-.15l.03.06c-.3-.06-.49-.42-.64-.49.52.3.21-.15.86.24-.02-.04-.1-.12-.23-.16.05-.03.13-.01.26.09-.05-.2-.27-.22-.22-.36.09.03.12.07.22.13-.16-.14-.32-.27-.19-.36.05.02.13.03.12.07.06-.22-.41-.48-.17-.66.41.16.15-.05.52.01l-.08-.15-.19.02c.03-.11-.22-.25-.08-.32l.14.1c0-.07-.02-.14-.04-.21l-.15.09c-.18-.13-.47-.05-.35-.17.04.03.01-.1.23-.13h0c-.11-.06-.24-.12-.14-.19.12-.01.41.05.49.04-.31-.07-.07-.26-.4-.34.08.02.27.03.31.03l-.25-.05c.08-.05.12-.05.28-.04.05-.15-.47.04-.27-.13.02.01.06,0,.1.04.1-.18-.18-.33-.06-.5.37-.07.1.14.41.06-.08-.25-.47-.46-.43-.69l-.03.05c-.53.05.23-.21-.04-.28.04.02.3-.02.24-.02.05-.17-.18-.3-.41-.48h.14c.09-.13-.01-.26.02-.38-.14.01-.14-.05-.31.05.32-.27.17-.39,0-.47-.18-.08-.36-.13-.14-.41.02.03.14.02.13,0l-.22-.15c-.19.13-.11.1-.24.23-.13.04-.25.04-.28,0,.18,0,.32-.19.41-.29-.06.04-.13.07-.19.11.29-.32-.4.22-.25-.05l.11-.06c-.09-.01-.25.03-.26-.03.2-.18.14-.02.32-.14-.07-.07-.52.16-.36-.07.08-.02.12.03.2.02.2-.26.12-.22.12-.31h0s0-.21,0-.21l-.04.09c-.61.36-.24-.13-.69.09.42-.2.2-.16.42-.36.03-.09.04-.2.12-.25-.23.12.02-.24-.31-.05.06-.08-.06-.06.11-.24-.13-.01-.09.15-.18.23-.33.17-.04-.6-.52-.33-.28.06-.47.34-.68.41.02-.17.2-.3.2-.3-.02-.17-.1-.18-.22-.12.05-.07.06-.14.08-.26-.08,0-.17.3-.21.14.05-.1.14-.26.21-.34-.12.05-.27.2-.38.26.03-.17.13-.23.2-.33-.13.04-.31.07-.41.33l.03.11s.05-.23.09-.27c.15-.18.09.12.07.22l-.08.04c-.12.57.26-.04.37.06l-.2.36.24-.26c-.02.11-.1.33-.17.36-.02.22.12-.1.08.14,0,.04-.02.05-.03.06l.12-.08c-.05.07-.12.27-.13.19,0,.27.34-.17.22.12l-.02.02c.23-.04.17-.26.5-.48-.11.22-.22.45-.35.67l.19-.24s.02.06-.05.16c.18-.12.07-.11.22-.25-.1.28.29.08-.02.46.18-.15.05-.19.23-.25-.33.41.15.01.05.24-.21.17-.17.03-.28.25.36-.29.04.17.14.16.27-.24.2.02.37.03-.1.07-.03.29-.08.44l-.05.03c.32-.18.31-.04.42,0-.19.11-.27.14-.38.15l.03.06c.11-.04.17-.05.23-.03l-.25.12c.05.07.38.02.27.21.24-.09.6-.4.82-.33-.12.06-.34.16-.41.15.02,0,.13,0,.08.04l-.24.04c-.07.09.19-.05.2,0-.18.08-.12.09-.26.14-.02,0,.06-.07-.02-.06,0,.06-.1.17-.23.24.1-.05.25-.1.28-.07.05.09-.21.12-.29.21.14-.03.02.08.3-.02,0,.03-.12.08-.19.11.14,0,.11.21.39.07l.02-.02s0,0,.02,0h0s0,0,0,0c.35.09-.07.4.09.53l-.1.02c.13.08.11.21.33.26,0,.03-.16.1-.28.1.09.07.2.07.04.2-.18-.06-.15.04-.13-.07-.08.11-.24.14.04.23-.25-.02-.31.09-.24.14l.18-.08c.04.05.02.1,0,.15h-.33c-.39.18.71.35.01.48.23.06.17-.1.44-.04-.05.1-.54.16-.54.19-.19.1.48.16.34.28.12,0,.44.01.54.14-.05.1-.51.05-.59-.02,0-.02.03-.03.07-.02-.04-.04-.09-.08-.22-.06l.12.03c-.12.03-.14.15-.32.09.1.08.19.06.26.02-.19.08-.04.18-.18.27.07,0,.21,0,.2.02-.18.14.2.12.23.26-.19.03-.41-.13-.29.03-.13.04-.31-.07-.4-.12.21.16-.2.14-.25.17l-.07-.07s.03.07.02.09l.24.05s-.06.04-.15,0c.14.08.38.1.56.23-.13,0,.07.17-.23.08.15-.09-.3-.1-.31-.22.03.03.02.06-.03.07-.03,0-.06-.03-.07-.04-.3,0,.31.18.26.3-.16-.08-.32-.1-.29-.07.02-.05.28.09.39.19-.16.02.05.12.02.16l.08-.02c.15.09.11.12.13.2-.13-.06-.06-.09-.12-.1.24.2-.36-.01-.22.16-.12-.02-.29-.16-.38-.17.15.2-.25-.04-.14.15.21.1.17.07.32.26-.01-.08-.04-.16-.06-.24l.24.29s-.07-.18-.02-.19c.14.15.09.12.27.19-.34-.12.11.26-.16.2l-.48-.34c-.28-.07.11.34-.11.38l.11.03c.16.17-.04.1,0,.21-.14-.14-.21-.16-.31-.23.11.11-.09.06.17.35l-.23-.15c-.16,0,.25.52.1.56-.1-.2-.23-.27-.26-.45-.03.02-.08.02,0,.13-.09-.09.07.29-.07.16.03.08.14.26.09.26-.03-.03-.05-.08-.05-.08.05.08,0,.15.15.31-.43-.47-.35.23-.67-.2-.05.11-.15.17-.23.22-.01-.06-.03-.09,0-.08-.16-.15.08.56-.12.4-.14-.29.03-.19-.04-.29-.16-.63-.14.13-.29-.22v-.04c-.07-.19-.11.25-.23.21,0,0,0-.06,0-.1-.05.33-.21.44-.34.54.05-.25.06-.14.05-.39-.05.04,0,.41-.12.49-.03-.14-.09-.25-.07-.54.03,0,.06,0,.09-.01-.01-.35-.11,0-.15-.07l.03-.15c-.12.02-.2.41-.35.35v.12c-.19.36-.03-.23-.19.03l.09-.38c-.08.09-.3.31-.43.33.17-.25.31-.32.43-.49-.05,0-.16-.04-.26.14.03-.03.09-.11.09-.04-.16.26-.31.36-.42.31.35-.69-.19-.28.06-.85-.29.13-.2-.3-.38-.37-.34.5-.05-.03-.46.43-.06-.01-.07-.04-.05-.07.05-.13.09-.25.15-.38.1-.15.13-.06.22-.16-.04-.11.16-.21.23-.37-.15.16-.25.19-.23.09l-.15.25c-.35.1.3-.42-.04-.32l.18-.09c-.14.02-.14-.22-.59,0,.05-.05.18-.16.23-.16-.04-.17-.68-.08-.48-.37l.14-.06c-.05-.01-.28.07-.16-.04.06-.03.14-.05.14-.07-.05,0-.28.03-.22-.05l.17-.03c.09-.24-.5-.09-.65-.23.41-.16.5-.34.54-.43l.06-.02c-.03-.21-.45-.24-.67-.42.44-.22.1-.47.37-.69-.08.04-.34.03-.39,0,.09-.05-.31-.12.09-.13v.02c.39-.06.27-.14.28-.22h-.53c.77-.19-.24-.56.44-.61-.13-.06-.12-.12-.24-.19l.28.05c.1-.11.15-.15.11-.31l.19.08c.03-.07-.77-.32-.76-.41l.41.1c.05-.15.45-.12.16-.41.05.03.16.09.17.11.03-.07.35-.08-.16-.35.33.19.11-.09.03-.26l.22.17c-.26-.26-.33-.32-.35-.47.04,0,.19.12.11.1.16.03-.17-.22,0-.21l.11.14c.06-.05,0-.1-.13-.27-.04-.11.18-.06.36.11-.1-.12-.21-.3-.12-.28.07.07.09.12.11.15.22.06-.06-.4.18-.24.06.07.09.11.11.13-.09.06-.15.11-.16.09.17.2.24.18.43.5-.1-.19-.26-.6-.11-.53.02.02.03.04.06.07v.03s.04-.01.03-.06c.05.02.07.05.07.05.11.18.06.09.07.1-.11-.26-.07-.23-.18-.43.01.02,0,.03,0,.05,0,0,0,.02,0,.03v-.02s-.03.03-.05.04c-.06-.13-.09-.25,0-.13-.06-.17-.12-.35-.14-.44.2.34.3.52.36.76.02-.18.09-.11.19-.63.04-.06.02.16.02.24-.02.05-.04.04-.05.11.06-.13.14-.02.25-.37.03.18-.13.32-.02.28l-.05.1c-.02.31.14.11.33-.02.19-.15.42-.23.32.16.01-.05.02-.07.05-.12.04.23.2.28.36.37.15.09.29.23.15.5-.05.13.16.02.35,0l-.26.15c.12-.03.24-.04.36-.06.31.06-.61.47-.11.48l.19-.07c-.03.07.16.18-.08.21.04,0,.21,0,.11.03l-.16.02c.09.04.19.08.28.13-.11.12-.62.02-.66.15.06.04.45.18.56.18,0-.03.1-.06.26-.05l.08.08c.46.05.93.21,1.27-.03-.09-.07-.18-.13-.28-.19l.23-.06v.16c.22-.08.04-.15-.09-.2.12-.02.2-.05.24-.09-.15-.06-.3-.1-.46-.14.18-.04.37.05.46-.09-.21-.06-.4.12-.54,0,.2-.1.37-.11.18-.18.12-.03.19-.03.25,0-.16-.07-.1-.23-.35-.22.23-.15-.14-.25.28-.38-.11,0-.37-.04-.42-.1.55-.06-.08-.28.45-.48-.48.1-.37-.28-.7-.29.04-.01.11-.04.1,0-.02-.11.08-.22.11-.33-.33.21-.49.13-.74.23.22-.33.41-.23.67-.48-.25.2-.39.02-.57.23.12-.23.03-.14.24-.39-.37.32-.13-.01-.4.14.07-.27.29-.36.08-.36.04-.16.27-.19.27-.19ZM2.68,1.03h0s.04-.04.05-.05c0,.01-.02.03-.05.05ZM2.45,1.2s.06-.04.1-.07c.07.07.11.16.09.17-.03-.06-.11-.06-.19-.1ZM3.87,2.6s-.01,0-.04-.06c0,0,0-.02,0-.04v-.03s.03.09.05.13Z" style="fill: #202020; stroke-width: 0px;"/>
        <path d="M3.72,2.26s0-.02,0-.02c-.01-.02-.02-.04-.03-.05l.03.08h0Z" style="fill: #202020; stroke-width: 0px;"/>
        <path d="M9.09,4.09h0s.02,0,.04-.01c-.01,0-.02,0-.03.01Z" style="fill: #202020; stroke-width: 0px;"/>
        <polygon points=".19 4.38 .26 4.39 .2 4.36 .19 4.38" style="fill: #202020; stroke-width: 0px;"/>
        <path d="M9.46,2.52s.04-.03.05-.05c-.02.01-.03.03-.05.05Z" style="fill: #202020; stroke-width: 0px;"/>
        <path d="M9.15,1.98l.02-.13c-.02.07-.02.11-.02.13Z" style="fill: #202020; stroke-width: 0px;"/>
        <path d="M8.94,1.5s-.07.06-.09.08h0s.09-.08.09-.08Z" style="fill: #202020; stroke-width: 0px;"/>
        <path d="M10.18,8.8s0,.01,0,.02c.03.07.02.03,0-.02Z" style="fill: #202020; stroke-width: 0px;"/>
        <path d="M10.14,6.46s.1.06.13.08c.02-.04.03-.07-.13-.08Z" style="fill: #202020; stroke-width: 0px;"/>
        <polygon points="8.59 11.22 8.59 11.22 8.57 11.23 8.59 11.22" style="fill: #202020; stroke-width: 0px;"/>
        <path d="M10.25,6.64c.06-.03.05-.07.01-.1-.02.03-.05.06-.01.1Z" style="fill: #202020; stroke-width: 0px;"/>
        <path d="M7.1.26l-.02-.02s-.01.03-.02.04l.04-.02Z" style="fill: #202020; stroke-width: 0px;"/>
        <path d="M7.06.28l-.04.02s.02,0,.04-.02Z" style="fill: #202020; stroke-width: 0px;"/>
        <path d="M6.95.36l.07-.05s-.04-.02-.07.05Z" style="fill: #202020; stroke-width: 0px;"/>
        <path d="M7.69.62l.05-.09s-.03.05-.05.09Z" style="fill: #202020; stroke-width: 0px;"/>
        <path d="M7.89.69s-.01-.25-.1-.23l-.04.07c.1-.12.03.29.15.16Z" style="fill: #202020; stroke-width: 0px;"/>
        <path d="M7.8,2.14l-.04-.15c-.05.1-.12.23-.18.22-.09.35.13-.21.22-.07Z" style="fill: #202020; stroke-width: 0px;"/>
        <path d="M7.98,2.5c-.09,0-.11.11-.16.15.1-.04.12-.05.16-.15Z" style="fill: #202020; stroke-width: 0px;"/>
        <path d="M9.07,5.02l-.25.03s.1-.01.25-.03Z" style="fill: #202020; stroke-width: 0px;"/>
        <polygon points="10.42 5.53 10.58 5.46 10.34 5.44 10.42 5.53" style="fill: #202020; stroke-width: 0px;"/>
        <polygon points="8.61 5.88 8.58 5.86 8.66 5.95 8.61 5.88" style="fill: #202020; stroke-width: 0px;"/>
        <path d="M6.82,9.37l.14.28c0-.07-.14-.39-.14-.28Z" style="fill: #202020; stroke-width: 0px;"/>
        <path d="M5.15,9.83c.01-.16,0-.26-.07-.12.03.03.04.16.07.12Z" style="fill: #202020; stroke-width: 0px;"/>
        <polygon points="2.67 5.16 2.77 5.2 2.69 5.13 2.67 5.16" style="fill: #202020; stroke-width: 0px;"/>
      </g>
    </g>
  </g>
</svg>