<?xml version="1.0" encoding="UTF-8"?>
<svg id="Layer_2" data-name="Layer 2" xmlns="http://www.w3.org/2000/svg" viewBox="0 0 18.49 15.48">
  <g id="Layer_30" data-name="Layer 30">
    <g>
      <path d="M4.48,3.3c-1.87-.66-3.3,1.94-3.05,3.91.5,3.9,4.31,7.09,8.24,6.88s7.39-3.77,7.47-7.71c.02-1.08-.18-2.17-.67-3.13C14.5-.56,7.69-.01,6.36,4.08" style="fill: #eaeaea; stroke-width: 0px;"/>
      <g>
        <path d="M5.73,3.88c.07.05.26.1.25.02l-.29-.16.04.14Z" style="fill: #202020; stroke-width: 0px;"/>
        <path d="M6.49,3.66c-.12-.13-.33-.35-.63-.43.25.22.12.18.44.41,0,.08-.15.07-.25.02.07.05-.11.08.07.18.28,0,.33-.08.18-.28.08,0,.15.06.2.09Z" style="fill: #202020; stroke-width: 0px;"/>
        <path d="M11.76,1.15l-.04-.04s.02.03.04.04Z" style="fill: #202020; stroke-width: 0px;"/>
        <path d="M15,2.44s-.06,0-.08.03c.03,0,.06,0,.08-.03Z" style="fill: #202020; stroke-width: 0px;"/>
        <path d="M15.13,3.09s0-.02,0-.04c-.01.03-.02.05,0,.04Z" style="fill: #202020; stroke-width: 0px;"/>
        <path d="M11.76,1.15l.1.1c0-.11-.05-.08-.1-.1Z" style="fill: #202020; stroke-width: 0px;"/>
        <path d="M6.27,2.43s.01.07.03.11c0-.03,0-.05,0-.07l-.04-.03Z" style="fill: #202020; stroke-width: 0px;"/>
        <path d="M10.22,1.62h-.03s0,.09.01.14l.02-.14Z" style="fill: #202020; stroke-width: 0px;"/>
        <path d="M9.14,2.07s-.09-.26-.14-.37c.04.11.05.17.03.2.02.05.06.1.1.17Z" style="fill: #202020; stroke-width: 0px;"/>
        <path d="M7.36,2.86v.05s0-.03,0-.05Z" style="fill: #202020; stroke-width: 0px;"/>
        <path d="M11.06,1.52s.01.08.02.1c0-.03-.01-.07-.02-.1Z" style="fill: #202020; stroke-width: 0px;"/>
        <path d="M2.31,2.33s.02.03.03.04c0-.03-.01-.05-.03-.04Z" style="fill: #202020; stroke-width: 0px;"/>
        <polygon points="4.46 3.37 4.43 3.38 4.38 3.53 4.46 3.37" style="fill: #202020; stroke-width: 0px;"/>
        <path d="M15.33,4.03h0s-.03,0,0,0Z" style="fill: #202020; stroke-width: 0px;"/>
        <path d="M12.35,12.11c.22.16,0,.37.28.53-.07-.09-.08-.46-.28-.53Z" style="fill: #202020; stroke-width: 0px;"/>
        <path d="M6.32,2.41s.02-.04.03-.06c-.02.02-.03.04-.03.06Z" style="fill: #202020; stroke-width: 0px;"/>
        <path d="M12.63,12.64h0s.03.02.03.02c-.01,0-.02-.01-.03-.02Z" style="fill: #202020; stroke-width: 0px;"/>
        <path d="M15.95,6.22s.09-.01.12-.03c-.03,0-.06,0-.12.03Z" style="fill: #202020; stroke-width: 0px;"/>
        <path d="M16.07,4.37l-.02.05s.02-.04.02-.05Z" style="fill: #202020; stroke-width: 0px;"/>
        <path d="M16.27,7.19s-.07.02-.03.06c.01,0,.02,0,.04,0-.04-.02-.05-.04,0-.06Z" style="fill: #202020; stroke-width: 0px;"/>
        <path d="M16.03,8.18s.04,0,.06,0v-.04s-.06.04-.06.04Z" style="fill: #202020; stroke-width: 0px;"/>
        <path d="M.24,6.35c.08-.03.17-.04.26-.04-.2,0-.25-.21-.26.04Z" style="fill: #202020; stroke-width: 0px;"/>
        <path d="M6.4,2.52c-.05-.05-.08-.08-.08-.1,0,.01,0,.03-.01.05.03.03.06.05.09.06Z" style="fill: #202020; stroke-width: 0px;"/>
        <path d="M18.45,7.58l-.08.21c.04-.05.07-.13.08-.21Z" style="fill: #202020; stroke-width: 0px;"/>
        <path d="M5,14.08h-.06s.03.02.06,0Z" style="fill: #202020; stroke-width: 0px;"/>
        <path d="M18.27,8.42c-.11.01-.17.04-.22.06.02.01.03.03.06.04l.16-.11Z" style="fill: #202020; stroke-width: 0px;"/>
        <path d="M.5,6.3h0s0,0,0,0Z" style="fill: #202020; stroke-width: 0px;"/>
        <path d="M.19,4.67c-.09.22.31.22.49.33.03.27-.29.03-.5.06.04.19.34.39.31.5-.06,0-.09.01-.16-.03.25.22-.08.51.27.74-.03.01-.07.02-.09.02.19-.01.38,0,.51.02,0,.09.22.17-.02.19,0-.05-.09-.06-.16-.09l.1.1c-.35.07-.12-.13-.37-.15.1.21.38.41.29.55-.35.04-.11-.34-.42-.14l.14-.23c-.54.16.04-.15-.54,0-.11.33.17.37.09.71.19.05.28-.05.47,0,.39.34-.79.45-.29.68.24.03.66-.03.48.22l-.39.02c.03.28.58.02.4.36-.16,0-.18-.17-.21-.12-.24.26.25.07.29.2l-.32.13c.12.28.49.49.66.75-.1.02-.22.01-.29.13.32.31.33.8.38,1.25l.33-.03s-.08.13-.15.12c0,.19.16-.09.3-.09.06.06-.08.19-.18.19.35.11.88.29.8.71h-.1c.04.27.62-.2.54.13h-.06c.22.45.78.59.76,1.16.32-.28.26.44.64-.01.04.39-.1.45.12.82.07.08.33-.22.47-.21l-.16.26.31-.18-.11.37h.14s-.02-.18.03-.25c.23-.03.29.4.23.54.17,0,.34-.02.51-.03-.06.11-.15.12-.23.16.35-.18-.1.32.22.14,0-.08.09-.16.12-.22.02.21.26.31.45.31l-.11.19c.3.18.71.13,1.07.24-.11-.13.02-.47.13-.49l-.04.33c.11-.18-.08-.14.12-.35.12.06,0,.38-.1.47l.19-.08c-.01.1-.06.14-.1.26.11-.18.23.38.4.06v.1c.37.07.57-.04.88-.02.03-.28.14-.2.24-.43.21.09.46.31.74.29.18-.15.04-.24.12-.41.03.25.3.2.17.4.32-.08.42-.08.78-.36-.06-.09-.12-.13-.11-.22.06-.06.18.07.19.2v.03c.32-.44,1.21.46,1.4-.17v.03s.23-.4.23-.4c.17-.03-.02.22.16.31.2-.54.62-.21.78-.63.62.54.75-.52,1.3-.33l-.12-.13c-.03-.2.15.01.23,0-.09-.1-.17-.07-.19-.18.47-.61,1.34-.83,2-1.36.22-.21-.63-.7-.08-.72l.21.28c.03-.69.68-1,.64-1.67.05.06.14.11.12.16.27,0,.22-.4.03-.48.05-.07.17.05.28.04.18-.06-.17-.4.07-.37.04,0,.06.06.07.09-.08-.12.16-.34-.13-.36.2-.16,0-.43.21-.54-.27-.19.25-.32-.17-.45.44.12.43-.3.24-.47.13.07.16-.09.34-.01.02-.16-.04-.31-.27-.31.56-.24-.39-.6.31-.72-.22-.48-.41-.88-.56-1.26.45-.04.09.44.56.39-.22-.39-.63-.55-.59-.94.04-.11.2.02.29.04-.25-.35-.13-.77-.48-1.03.04-.01.1,0,.14.03-.03-.06,0-.18-.18-.1l.08.04c-.25.19-.67-.04-.82.02.59-.11.01-.36.77-.48-.05-.03-.17-.04-.29.02,0-.08.07-.13.24-.13-.21-.19-.37,0-.46-.21.09-.04.14-.02.26-.05-.22-.02-.46-.02-.49-.22.06-.02.11-.08.14-.03-.22-.27-.7-.19-.79-.55.4-.2.03-.18.29-.45l-.22-.07-.08.18c-.12-.13-.39-.05-.42-.22.06-.01.13-.03.2-.04-.09-.05-.2-.1-.29-.14l.05.21c-.25.05-.29.37-.39.17.06,0-.11-.09-.05-.32h0c-.13.05-.26.11-.3-.04.04-.12.25-.33.27-.41-.23.22-.38-.11-.63.13.06-.05.16-.22.17-.26l-.18.19c-.03-.11-.02-.15.06-.28-.18-.15-.15.46-.29.15.03,0,.03-.05.09-.06-.19-.23-.53-.04-.7-.24.05-.38.23-.01.26-.34-.37-.08-.83.22-1.13.06l.05.05c-.14.51-.19-.32-.41-.08.05-.03.09-.29.07-.23-.22-.1-.5.07-.84.23l.05-.14c-.13-.12-.36-.06-.5-.12-.04.14-.12.12-.06.31-.24-.39-.46-.25-.65-.1-.19.16-.35.29-.61.04.05-.01.09-.15.05-.14l-.3.21c.08.22.08.12.19.28,0,.14-.07.27-.14.29.1-.18-.1-.36-.2-.46.03.07.03.15.06.21-.29-.35.11.45-.19.25l-.03-.12c-.06.09-.08.27-.18.27-.13-.24.04-.15-.03-.36-.12.07-.06.57-.27.37.02-.09.1-.12.12-.21-.24-.24-.23-.16-.34-.17h.01s-.28-.04-.28-.04l.09.05c.15.69-.26.28-.23.79-.03-.48-.09-.23-.23-.5-.09-.04-.22-.08-.25-.16.03.27-.28-.07-.21.32-.06-.08-.1.07-.22-.15-.08.16.13.12.19.22.03.4-.7,0-.63.59-.06.34.14.6.11.87-.17-.04-.23-.28-.23-.28-.21,0-.25.1-.23.28-.05-.07-.13-.09-.24-.12-.04.11.25.26.06.3-.08-.08-.21-.2-.27-.31,0,.16.08.36.09.51-.17-.06-.18-.2-.25-.29-.03.17-.08.41.16.58l.12-.04c0,.05-.22-.08-.24-.14-.13-.22.18-.11.26-.07v.11c.55.21.12-.33.25-.48l.3.3-.18-.35c.11.03.31.15.31.26.23.03-.07-.18.18-.11.04.01.05.03.05.05l-.02-.16c.05.07.24.18.14.19.31.02-.01-.44.26-.28v.03c.09-.3-.19-.23-.28-.66.21.15.41.31.61.48l-.18-.25s.09-.03.16.07c-.05-.23-.1-.09-.17-.28.28.13.24-.35.54.03-.09-.22-.21-.07-.18-.29.32.41.1-.16.34-.02.1.25-.07.18.16.33-.17-.43.25-.03.29-.15-.16-.33.13-.24.25-.41.04.12.38.06.57.13v.06c-.07-.36.12-.33.21-.44.05.21.05.3.02.41l.11-.03c0-.12.01-.19.07-.25l.04.27c.13-.05.22-.39.44-.23-.02-.26-.28-.68-.08-.88.03.14.07.37.03.43.02-.02.05-.12.09-.07l-.05.24c.1.09.02-.2.1-.19.03.2.07.13.08.29-.02.02-.07-.07-.09,0,.08.02.19.13.24.27-.02-.11-.03-.26.03-.3.15-.04.07.23.17.32.02-.14.13,0,.11-.29.04,0,.06.14.08.22.07-.13.35-.04.27-.36l-.02-.02h.01s0-.01,0-.01h0c.27-.32.53.2.79.09v.1c.16-.11.33-.02.48-.2.05.01.07.2.02.31.13-.05.17-.15.29.04-.16.14,0,.16-.15.1.12.12.11.26.33.07-.12.22,0,.34.08.29l-.03-.21c.08,0,.14.04.2.08l-.15.3c.09.44.76-.41.63.28.18-.17-.05-.21.14-.42.1.11-.03.57,0,.59.02.25.4-.3.47-.09.06-.11.23-.38.42-.37.09.13-.19.48-.32.5-.03-.01-.02-.05,0-.08-.06,0-.14.02-.18.14l.09-.08c-.03.13.11.22-.05.34.13-.02.16-.11.15-.21,0,.24.16.19.19.38.03-.06.12-.17.14-.15.05.27.25-.07.4.03-.09.19-.36.23-.15.28-.05.16-.25.2-.34.22.26-.01,0,.3,0,.37h-.12c.07,0,.09.02.1.05l.19-.15c-.01.05,0,.08-.08.13.16-.04.33-.22.57-.24-.08.11.21.13-.07.28.01-.23-.28.15-.39.03.05.01.06.04.04.1-.03.02-.06.02-.08.02-.19.27.36-.08.43.11-.17.04-.3.16-.25.18-.02-.07.26-.14.42-.12-.09.17.14.1.15.17l.04-.1c.18-.03.18.04.26.12-.13.05-.12-.06-.16,0,.33.02-.24.31,0,.4-.1.09-.32.08-.39.16.26.1-.2.21,0,.32.23-.08.17-.09.42,0-.07-.08-.14-.16-.21-.24l.37.11c-.01-.09-.18-.15-.15-.21.21.04.15.05.33-.03-.33.18.25.2.03.38l-.59.08c-.24.22.34.31.21.59l.1-.09c.24.02.04.16.14.25-.2,0-.27.05-.39.09.15,0-.01.19.38.22l-.27.11c-.12.2.54.28.46.49-.21-.09-.35-.01-.5-.16,0,.07-.05.12.09.14-.12.02.23.22.04.26.08.04.28.09.25.16-.04,0-.1-.02-.1-.02.1.02.11.15.34.12-.63.09-.11.63-.66.67.03.17,0,.36-.03.5-.05-.03-.09-.04-.06-.05-.24.11.48.32.21.46-.34-.02-.11-.18-.25-.16-.6-.23-.04.28-.44.24l-.02-.05c-.25,0,.11.36-.03.49,0,0-.05-.04-.08-.05.22.27.18.54.16.75-.18-.19-.07-.15-.3-.26-.01.09.36.21.32.39-.15-.03-.32-.01-.55-.16l.08-.13c-.34-.15-.1.16-.2.19l-.12-.1c-.1.2.22.46.03.63l.11.06c.2.36-.24-.06-.12.24l-.32-.23c.01.13.07.5,0,.66-.13-.27-.11-.51-.16-.71-.06.07-.18.23-.08.4,0-.05-.04-.15.03-.13.14.29.14.51,0,.63-.48-.58-.48.17-.96-.22-.06.42-.55.24-.8.46.41.45-.08.06.25.58-.06.07-.09.08-.12.05l-.4-.2c-.13-.13,0-.16-.07-.27-.17.04-.18-.2-.35-.29.12.19.09.31-.04.27l.25.2c-.09.4-.4-.39-.49,0v-.21c-.07.16-.4.16-.37.65-.04-.06-.12-.21-.08-.27-.28.03-.51.67-.8.43v-.15c-.05.06-.05.3-.14.15,0-.06,0-.15-.03-.16-.02.05-.11.27-.19.2l.04-.17c-.29-.16-.4.46-.66.55,0-.44-.22-.58-.32-.66v-.06c-.3-.1-.57.32-.92.41-.1-.49-.6-.35-.81-.7.02.09-.12.32-.19.34-.04-.11-.31.2-.14-.17l.02.02c.1-.39-.08-.35-.18-.4l-.24.47c.06-.82-.89-.14-.68-.84-.13.07-.21.02-.35.09l.16-.23c-.13-.17-.18-.27-.42-.37l.17-.13c-.09-.1-.66.53-.78.44l.25-.35c-.2-.17-.13-.59-.56-.52.05-.04.14-.12.18-.1-.07-.1-.09-.52-.5-.11.28-.25-.13-.23-.35-.24l.24-.15c-.35.12-.44.18-.62.1,0-.06.16-.16.13-.07.05-.19-.27.06-.24-.16l.18-.05c-.06-.13-.13-.06-.35-.02-.14-.02-.09-.26.12-.41-.14.06-.36.09-.33-.02.08-.06.14-.06.18-.06.07-.29-.45-.16-.28-.42.08-.04.12-.07.14-.09.07.16.13.3.1.29.23-.12.21-.26.57-.32-.22,0-.69,0-.63-.18.02-.02.04-.03.08-.05h.03s-.02-.05-.07-.06c.02-.06.04-.09.03-.13.19-.09.05-.18.03-.25-.26.1-.25,0-.44.15.01-.02.04,0,.07.04.01,0,.02.02.04.02h-.03s.05.1.08.16c-.15,0-.29-.02-.17-.14-.18.03-.38.05-.46.05.34-.23.49-.47.72-.56-.22-.16-.22-.44-.76-.49-.08-.05.14-.1.21-.14.06.03.06.07.14.08-.16-.1-.12-.35-.48-.34.16-.16.34.05.27-.14l.11.02c.28-.19.05-.32-.15-.52-.2-.18-.36-.43.06-.57-.05.02-.08.03-.14.02.22-.22.23-.49.29-.76.07-.26.18-.54.55-.56.16-.04-.01-.19-.08-.38l.24.19c-.05-.11-.1-.23-.14-.35,0-.16.2-.08.35,0,.17.1.27.16.26-.09l-.11-.18c.09,0,.23-.21.27.03,0-.04-.01-.21.04-.11l.03.16c.04-.1.1-.21.18-.28.15.12-.03.62.11.67.04-.05.3-.4.32-.5-.03-.01-.06-.12-.03-.27l.12-.05c.15-.44.48-.85.15-1.27-.12.07-.23.14-.34.22l-.07-.23c.09,0,.17,0,.25.02-.1-.25-.24-.06-.35.06-.02-.12-.06-.21-.12-.25-.11.15-.21.28-.28.45-.06-.18.11-.38-.11-.45-.11.22.17.39-.03.55-.16-.19-.17-.36-.29-.16-.05-.11-.04-.19.02-.26-.12.16-.38.18-.35.43-.25-.2-.37.27-.59-.12,0,.11-.03.42-.1.51-.15-.56-.38.26-.7-.19.2.46-.26.59-.21.97-.02-.03-.07-.1-.03-.11-.13.1-.26.06-.39.09.32.23.27.46.44.68-.41-.03-.36-.31-.7-.44.28.15.14.43.4.49-.27.02-.15.05-.48-.02.44.22.03.15.26.37-.29.09-.45-.12-.38.14-.18.05-.27-.19-.27-.19ZM1.29,9.45h0s-.04-.06-.05-.08c.01.02.03.04.05.08ZM1.45,9.79s-.03-.1-.06-.15c.08-.05.18-.08.19-.05-.07,0-.08.11-.13.2ZM2.96,8.38c.05.03,0,.06-.04.09-.01-.02-.03-.04-.06-.06h-.03c.05,0,.1-.02.14-.03Z" style="fill: #202020; stroke-width: 0px;"/>
        <path d="M2.58,8.43s-.02,0-.03-.01c-.02.02-.03.03-.05.05h.09s-.01-.04-.01-.04Z" style="fill: #202020; stroke-width: 0px;"/>
        <path d="M11.71,1.11h0s-.01-.02-.01-.03c0,.01,0,.02,0,.03Z" style="fill: #202020; stroke-width: 0px;"/>
        <polygon points="4.56 13.98 4.59 13.92 4.53 13.95 4.56 13.98" style="fill: #202020; stroke-width: 0px;"/>
        <path d="M9.71.43s-.03-.05-.05-.06c0,.02.02.04.05.06Z" style="fill: #202020; stroke-width: 0px;"/>
        <path d="M8.86.67l-.16-.04c.07.03.12.04.16.04Z" style="fill: #202020; stroke-width: 0px;"/>
        <path d="M8.18.86s.03.08.05.11h0s-.05-.11-.05-.11Z" style="fill: #202020; stroke-width: 0px;"/>
        <path d="M17.84,3.75s.01.02.02.02c.07.05.04,0-.02-.02Z" style="fill: #202020; stroke-width: 0px;"/>
        <path d="M15.39,1.39c.06-.02.11-.04.16-.04-.03-.05-.07-.09-.16.04Z" style="fill: #202020; stroke-width: 0px;"/>
        <polygon points="18.46 7.56 18.45 7.56 18.45 7.58 18.46 7.56" style="fill: #202020; stroke-width: 0px;"/>
        <path d="M15.67,1.45c-.01-.08-.06-.1-.12-.1.03.04.05.1.12.1Z" style="fill: #202020; stroke-width: 0px;"/>
        <path d="M5.89,2.97l-.02.03s.03.02.04.02v-.05Z" style="fill: #202020; stroke-width: 0px;"/>
        <path d="M5.9,3.02v.05s.03-.03,0-.05Z" style="fill: #202020; stroke-width: 0px;"/>
        <path d="M5.94,3.18l-.03-.11s-.03.05.03.11Z" style="fill: #202020; stroke-width: 0px;"/>
        <path d="M6.53,2.23l-.07-.07s.04.04.07.07Z" style="fill: #202020; stroke-width: 0px;"/>
        <path d="M6.71,2c-.06.03-.29-.01-.3.1l.06.06c-.08-.13.33,0,.25-.16Z" style="fill: #202020; stroke-width: 0px;"/>
        <path d="M8.34,2.21l-.2.05c.09.06.22.15.17.23.38.12-.19-.16.03-.28Z" style="fill: #202020; stroke-width: 0px;"/>
        <path d="M8.92,2.03c-.06.09.08.14.1.19,0-.12,0-.15-.1-.19Z" style="fill: #202020; stroke-width: 0px;"/>
        <path d="M13.02,1.48l-.07.25c.08-.02.02-.1.07-.25Z" style="fill: #202020; stroke-width: 0px;"/>
        <polygon points="14.27 .49 14.24 .31 14.12 .51 14.27 .49" style="fill: #202020; stroke-width: 0px;"/>
        <polygon points="13.97 2.35 13.93 2.37 14.07 2.34 13.97 2.35" style="fill: #202020; stroke-width: 0px;"/>
        <path d="M15.85,7.93l.31.06c-.04-.07-.38-.17-.31-.06Z" style="fill: #202020; stroke-width: 0px;"/>
        <path d="M14.69,10.73c-.14-.08-.28-.08-.2.06.06-.04.2,0,.2-.06Z" style="fill: #202020; stroke-width: 0px;"/>
        <polygon points="6.57 12.21 6.66 12.14 6.53 12.17 6.57 12.21" style="fill: #202020; stroke-width: 0px;"/>
      </g>
    </g>
  </g>
</svg>