<?xml version="1.0" encoding="UTF-8"?>
<svg id="Layer_2" data-name="Layer 2" xmlns="http://www.w3.org/2000/svg" viewBox="0 0 23.76 23.64">
  <g id="Layer_30" data-name="Layer 30">
    <g>
      <path d="M10.43,2.88C6.43,1.78,2.33,5.38,1.5,9.44c-1.2,5.92,3.64,12.33,9.67,12.79s11.78-5.15,11.49-11.18S16.09,0,10.13,1.04" style="fill: #eaeaea; stroke-width: 0px;"/>
      <g>
        <path d="M10.02.38c-.02.09.03.28.13.23l.02-.33-.14.11Z" style="fill: #202020; stroke-width: 0px;"/>
        <path d="M10.77.91c.09-.17.21-.47.11-.76-.09.33-.13.2-.22.59-.09.05-.18-.09-.18-.21-.02.09-.17-.05-.19.16.17.24.32.23.47,0,.04.07.02.16.02.22Z" style="fill: #202020; stroke-width: 0px;"/>
        <path d="M18.99,4.42l-.02-.07s0,.05.02.07Z" style="fill: #202020; stroke-width: 0px;"/>
        <path d="M21.69,9.15s-.05-.05-.08-.04c.03.03.06.06.08.04Z" style="fill: #202020; stroke-width: 0px;"/>
        <path d="M21.54,10.11s0-.04.01-.05c-.03.02-.04.05-.01.05Z" style="fill: #202020; stroke-width: 0px;"/>
        <path d="M18.99,4.42c.01.06.03.12.03.18.08-.07,0-.12-.03-.18Z" style="fill: #202020; stroke-width: 0px;"/>
        <path d="M12.09.07s-.07.05-.09.09c.03-.01.06-.03.09-.03v-.05Z" style="fill: #202020; stroke-width: 0px;"/>
        <path d="M16.9,3.16l-.04-.02s-.06.06-.1.1l.14-.07Z" style="fill: #202020; stroke-width: 0px;"/>
        <path d="M15.24,2.38s.15-.23.21-.34c-.07.1-.12.14-.16.15-.02.05-.04.11-.06.19Z" style="fill: #202020; stroke-width: 0px;"/>
        <path d="M12.48,1.22l-.06.03s.04-.02.06-.03Z" style="fill: #202020; stroke-width: 0px;"/>
        <path d="M17.95,3.95s-.04.07-.05.09c.02-.03.04-.06.05-.09Z" style="fill: #202020; stroke-width: 0px;"/>
        <path d="M7.99,1.42s0,.03,0,.05c0-.03.01-.05,0-.05Z" style="fill: #202020; stroke-width: 0px;"/>
        <polygon points="10.41 2.95 10.37 2.96 10.33 3.11 10.41 2.95" style="fill: #202020; stroke-width: 0px;"/>
        <path d="M21.28,11.71h0s-.03-.02,0,0Z" style="fill: #202020; stroke-width: 0px;"/>
        <path d="M11.76,21.08c.17.25-.28.32-.03.6-.02-.11.24-.44.03-.6Z" style="fill: #202020; stroke-width: 0px;"/>
        <path d="M12.15.1s.06,0,.09,0c-.04,0-.07,0-.09,0Z" style="fill: #202020; stroke-width: 0px;"/>
        <path d="M11.73,21.68h0s.03.03.03.03c-.01-.01-.02-.02-.03-.03Z" style="fill: #202020; stroke-width: 0px;"/>
        <path d="M20.57,15.25s.09.02.13.02c-.03-.01-.06-.02-.13-.02Z" style="fill: #202020; stroke-width: 0px;"/>
        <path d="M21.77,12.69l-.05.06s.04-.05.05-.06Z" style="fill: #202020; stroke-width: 0px;"/>
        <path d="M20.19,16.73s-.08.01-.07.08c.01,0,.03,0,.04,0-.02-.04-.02-.07.04-.08Z" style="fill: #202020; stroke-width: 0px;"/>
        <path d="M19.23,17.96s.04.01.06.02l.02-.05-.08.03Z" style="fill: #202020; stroke-width: 0px;"/>
        <path d="M2.91,4.34c.09.02.17.07.24.11-.17-.12-.02-.37-.24-.11Z" style="fill: #202020; stroke-width: 0px;"/>
        <path d="M12.09.23c.01-.07.03-.11.06-.12h-.06c0,.06,0,.1,0,.12Z" style="fill: #202020; stroke-width: 0px;"/>
        <path d="M21.99,18.03c-.06.08-.13.15-.2.22.08-.05.15-.13.2-.22Z" style="fill: #202020; stroke-width: 0px;"/>
        <path d="M1.66,16.91l-.06-.04s.03.04.06.04Z" style="fill: #202020; stroke-width: 0px;"/>
        <path d="M21.28,18.98c-.11-.02-.19-.01-.25,0,0,.02.01.05.03.07l.22-.08Z" style="fill: #202020; stroke-width: 0px;"/>
        <path d="M3.15,4.46h0s0,0,0,0Z" style="fill: #202020; stroke-width: 0px;"/>
        <path d="M4.25,2.64c-.25.17.09.38.17.58-.22.28-.29-.13-.5-.21-.12.22-.02.59-.15.68-.05-.04-.09-.03-.11-.12.02.36-.49.47-.41.91-.04,0-.07-.02-.09-.04.16.1.3.22.39.32-.08.09.02.32-.19.19.06-.05-.01-.12-.04-.19v.16c-.35-.15.02-.21-.17-.38-.11.26-.06.68-.26.75-.29-.18.2-.42-.2-.42l.29-.15c-.55-.18.15-.12-.42-.33-.34.26-.17.47-.5.73.1.19.24.14.34.33-.04.65-.97-.12-.82.5.14.22.49.47.14.61l-.28-.28c-.23.33.36.45-.04.7-.11-.13.02-.33-.05-.3-.39.1.11.27.03.45l-.33-.11c-.15.41-.07.94-.16,1.38-.09-.05-.16-.16-.3-.09,0,.31-.09.61-.21.91-.1.3-.25.59-.39.87l.26.25s-.14.08-.19.02c-.13.21.18.03.29.14.02.12-.17.15-.26.07.25.42.48,1.1.24,1.52l-.09-.07c-.09.33.63.3.39.61l-.06-.05c-.05.35.08.68.14,1.01.06.33.09.64-.03.95.43-.03.03.71.6.55-.14.46-.27.39-.24.98.03.15.42.05.55.19l-.28.14c.13.03.26.05.4.07l-.27.28.15.11c-.02-.07.05-.19.14-.22.25.16.12.66-.01.75.17.14.36.27.55.39-.11.06-.21,0-.32-.03.45.11-.24.23.18.33.03-.07.17-.08.22-.11-.07.23.13.53.34.68l-.2.09c.27.39.7.72,1.07,1.09-.06-.2.24-.42.37-.34l-.19.27c.21-.07-.02-.2.3-.23.11.16-.17.35-.33.35l.25.09c-.06.08-.13.08-.23.15.21-.08.07.53.41.38l-.06.08c.4.36.67.41,1.01.68.18-.22.27-.06.51-.18.2.24.37.62.7.81.3.01.19-.17.38-.26-.11.23.24.39-.03.46.43.16.53.25,1.15.27-.02-.12-.06-.19,0-.25.11,0,.17.18.11.29h-.04c.37-.06.63.28.93.53.3.25.61.49.92.29l-.03.02c.19-.04.39-.12.58-.19.24.08-.18.17-.02.35.63-.33.92.19,1.42-.1.18.37.53.39.87.3.35-.08.7-.2.99,0l-.06-.17c.1-.18.17.08.28.1-.04-.13-.17-.13-.1-.24,1.02-.42,2.26-.29,3.37-.68.41-.14-.21-.91.43-.79l.04.36c.52-.74,1.45-.89,1.86-1.67.01.09.08.17.02.22.28.07.48-.41.35-.55.11-.07.14.11.27.13.23-.01.11-.51.33-.41.04.02.02.09.01.13,0-.16.38-.36.1-.47.3-.13.3-.5.58-.57-.14-.32.43-.31.12-.62.34.29.62-.2.54-.47.08.13.21-.06.32.11.11-.19.15-.41-.07-.5.68-.06.04-.89.74-.76.04-.35.09-.67.13-.97.03-.31.07-.61.11-.89.42.17-.18.61.27.76.02-.6-.22-1,0-1.49.09-.12.17.13.23.19-.02-.29.05-.55.12-.8.05-.25.07-.51-.02-.77.04,0,.08.06.11.12,0-.1.1-.22-.11-.23l.04.1c-.31.11-.57-.44-.72-.46.58.21.18-.45.9-.15-.04-.07-.13-.15-.27-.14.04-.09.12-.12.28-.01-.11-.35-.33-.23-.32-.54.1,0,.14.06.25.1-.19-.16-.38-.31-.3-.57.06.01.14-.02.14.06-.07-.46-.59-.7-.46-1.2.45.07.11-.18.46-.28l-.17-.24-.15.14c-.05-.23-.36-.36-.28-.57l.19.13-.17-.4-.08.27c-.24-.17-.44.15-.42-.16.06.04-.07-.2.1-.38h0c-.15-.07-.3-.12-.27-.31.1-.08.4-.11.46-.17-.32,0-.26-.47-.64-.45.09,0,.27-.07.3-.1l-.27.02c.03-.13.06-.16.21-.21-.1-.3-.38.29-.36-.13.03.02.06-.01.12.02-.06-.39-.46-.56-.54-.9.27-.28.24.21.45-.05-.32-.4-.92-.63-1.15-1.04l.02.09c-.46.28,0-.44-.35-.47.07.02.27-.13.22-.1-.15-.31-.56-.41-1-.65l.14-.05c-.04-.23-.32-.39-.43-.58-.14.06-.21-.03-.29.16.02-1.04-1.19-.4-1.27-1.26.06.03.2,0,.16-.04-.16-.06-.32-.1-.48-.14-.09.22-.02.15-.03.35-.12.09-.29.11-.39.05.26-.03.19-.32.17-.48-.02.07-.09.12-.12.19-.01-.48-.26.38-.41-.03l.07-.1c-.14-.01-.32.09-.42,0,.07-.26.18-.06.28-.25-.19-.07-.56.3-.6-.02.1-.03.21.01.31-.02-.04-.36-.09-.3-.2-.41h0s-.25-.26-.25-.26l.04.11c-.48.53-.51-.06-.97.26.44-.31.13-.22.25-.5-.05-.11-.14-.24-.08-.31-.22.18-.2-.27-.51,0,.02-.1-.16-.05-.06-.28-.22.03,0,.18-.05.29-.38.26-.64-.58-1.18-.21-.42.14-.53.46-.88.58-.1-.17.13-.34.13-.34-.18-.17-.33-.16-.51-.05.04-.08,0-.16-.05-.27-.15.02-.11.35-.3.21.03-.11.08-.28.16-.39-.18.09-.36.27-.53.36-.05-.17.1-.26.17-.37-.21.07-.53.15-.57.44l.13.08c-.07.02-.05-.23,0-.28.17-.22.26.09.27.19l-.12.06c.14.57.49-.09.76-.05l-.12.41.27-.34c.05.11.07.34-.05.4.16.21.16-.15.3.1.01.04,0,.06-.01.07l.18-.1c-.04.08,0,.3-.1.22.26.27.52-.25.58.08l-.03.02c.43-.09.08-.31.47-.6l.06.79.1-.29s.12.06.08.18c.2-.17,0-.14.14-.31.14.32.6,0,.51.49.14-.2-.14-.23.12-.32-.09.52.27,0,.38.29-.14.24-.26.04-.16.33.26-.39.31.21.48.18.14-.35.37,0,.66,0-.07.11.38.38.52.62l-.04.05c.22-.3.4-.11.6-.08-.12.18-.19.24-.33.28l.15.08c.1-.08.17-.11.29-.09l-.18.21c.2.09.56-.02.69.3.17-.2.22-.72.58-.67-.07.12-.2.32-.3.31.03,0,.15-.03.16.05l-.24.11c.05.16.17-.11.25-.03-.12.16-.02.16-.13.28-.03,0-.03-.12-.11-.08.08.1.13.28.07.42.06-.09.16-.21.25-.18.18.14-.09.24-.06.4.13-.07.14.13.34-.09.05.05-.03.16-.07.23.17-.02.44.33.55.02v-.04s0,0,.01,0h0s0,0,0,0c.5.06.45.71.81.9l-.08.06c.23.11.37.36.64.37.04.06-.04.24-.16.28.16.1.28.04.28.35-.24-.05-.09.14-.2-.08.05.24-.06.37.3.43-.26.07-.18.31-.06.36l.07-.23c.1.08.13.18.17.29l-.32.12c-.14.56.98.42.52,1.01.27.02.04-.28.34-.3.07.21-.33.6-.3.65-.08.32.55.08.53.41.1-.07.39-.21.57-.01,0,.23-.42.39-.54.29-.02-.05,0-.08.05-.09-.05-.06-.14-.12-.23,0h.12c-.09.13-.02.39-.22.38.14.12.2.02.24-.11-.11.3.09.4.04.69.05-.05.18-.12.19-.07-.08.42.25.14.33.41-.16.18-.43,0-.25.25-.1.18-.31.06-.41.01.25.22-.08.45-.14.58l-.09-.12c.06.07.05.13.05.19l.24-.08c-.04.07-.04.14-.14.14.15.07.4-.07.61.09-.12.1.13.32-.19.34.11-.31-.32.02-.36-.24.04.05.03.11,0,.18-.04,0-.07-.01-.08-.03-.29.27.36.15.34.46-.17-.05-.35.04-.31.09.02-.12.3-.03.42.1-.16.19.07.23.04.34l.08-.11c.17.06.13.17.17.32-.14,0-.08-.15-.14-.1.28.21-.36.3-.21.56-.14.07-.33-.06-.43,0,.16.29-.3.19-.17.48.25,0,.19-.04.37.21l-.06-.46.27.36c.04-.13-.08-.31-.02-.37.16.18.1.15.31.14-.39.08.12.41-.18.55l-.56-.18c-.35.19.1.61-.18.93l.14-.08c.2.14-.06.25-.04.4-.17-.09-.28-.05-.41-.05.13.06-.14.25.19.46l-.31.04c-.23.24.3.6.07.85-.13-.19-.33-.15-.35-.4-.06.09-.14.15-.02.22-.14-.02.07.39-.14.37.05.08.22.22.13.31-.04-.01-.08-.06-.08-.06.08.06,0,.23.23.27-.71-.11-.53.8-1.15.65-.11.21-.26.46-.39.63-.03-.05-.07-.07-.03-.09-.33.07.26.53-.14.61-.34-.12.02-.25-.14-.26-.47-.45-.24.33-.65.19l.02-.06c-.26-.05-.17.44-.42.57,0,0-.02-.05-.06-.08.04.38-.19.7-.39.9-.06-.26.04-.18-.15-.37-.09.09.25.33.07.52-.14-.08-.36-.09-.51-.32l.19-.13c-.28-.25-.24.16-.38.16l-.06-.14c-.27.21-.11.55-.46.69l.08.09c-.03.44-.25-.13-.32.23l-.21-.34c-.08.15-.3.51-.52.67.04-.32.25-.55.35-.77-.12.04-.4.17-.41.37.04-.05.07-.17.14-.13-.05.34-.21.56-.47.64-.16-.74-.73-.03-1.03-.57-.39.36-.89.01-1.38.07.2.6-.15.01-.11.63-.13.04-.18.03-.19-.01l-.36-.37c-.08-.18.12-.13.12-.27-.25-.05-.09-.25-.24-.43.02.22-.11.3-.25.2l.18.31c-.4.27-.25-.55-.64-.28l.14-.17c-.2.11-.64-.13-.95.29-.01-.08-.01-.25.08-.27-.4-.15-1.12.17-1.35-.24l.09-.12c-.1.01-.25.2-.28.01.03-.05.09-.12.06-.15-.06.03-.32.13-.38,0l.16-.11c-.3-.37-.8.05-1.19-.1.24-.37.03-.68-.07-.83l.04-.05c-.35-.37-.92-.23-1.39-.48.06-.28-.09-.49-.27-.7-.16-.23-.35-.46-.4-.73-.02.11-.28.2-.37.16,0-.14-.43-.08-.1-.3l.02.04c.27-.31.06-.43-.03-.58l-.46.27c.17-.41-.03-.63-.24-.85-.21-.21-.43-.4-.16-.67-.16-.05-.22-.18-.39-.23l.26-.11c-.06-.32-.1-.47-.27-.81h.22c-.05-.19-.86,0-.94-.2l.39-.17c-.11-.38.19-.82-.27-1.13.06,0,.18,0,.21.05-.02-.18.22-.7-.36-.59.39-.04-.02-.39-.17-.6l.28.03c-.35-.17-.45-.18-.54-.43.04-.06.22-.05.15.03.15-.19-.26-.17-.11-.41l.18.1c.02-.2-.06-.19-.26-.32-.09-.14.13-.39.38-.38-.15-.05-.34-.19-.25-.3.1,0,.15.05.17.08.22-.3-.21-.57.11-.73.09.02.14.02.17,0-.07.25-.14.46-.15.43.25.05.35-.13.65.1-.15-.19-.49-.58-.31-.74.03,0,.05,0,.09,0l.02.03s.03-.08,0-.13c.06-.05.11-.08.13-.13.21.05.18-.18.23-.27-.26-.1-.16-.21-.43-.18.03,0,.02.03,0,.1,0,.02,0,.04.01.05l-.02-.02c-.02.07-.04.16-.07.26-.11-.13-.19-.26,0-.31-.15-.12-.3-.25-.36-.32.43,0,.74-.16.97-.08,0-.36.26-.7-.06-1.17,0-.12.19,0,.28,0,.01.07-.03.12.02.19,0-.23.27-.49,0-.75.29-.09.18.31.35.02l.06.1c.44-.06.4-.41.45-.75.03-.35.12-.71.65-.65-.07,0-.1,0-.15-.04.42-.15.71-.45,1.05-.72.33-.27.72-.48,1.18-.38.25.03.19-.2.27-.41l.13.27c.04-.13.09-.28.14-.4.31-.31.69.6,1.04.11l-.07-.2c.15.02.49-.15.46.1.02-.04.06-.21.11-.1v.16s.4-.25.4-.25c.27.15-.12.61.26.71.14-.03.52-.37.5-.48-.06-.02-.14-.13-.11-.28l.17-.05c.14-.45.43-.87.05-1.28l-.37.22-.06-.24.27.04c-.11-.24-.25-.07-.37.03,0-.12-.04-.22-.1-.27-.13.14-.25.28-.36.42-.03-.18.17-.35-.04-.47-.16.2.11.42-.13.54-.14-.22-.1-.39-.28-.22-.02-.12.01-.2.09-.24-.17.12-.43.08-.5.32-.18-.25-.52.1-.56-.33-.04.11-.23.39-.36.44.16-.57-.54.07-.61-.48-.06.53-.65.4-.87.8,0-.04,0-.13.05-.12-.19.04-.3-.07-.46-.1.14.37-.1.56-.11.86-.38-.22-.09-.48-.32-.76.15.28-.21.49-.01.68-.27-.11-.19-.02-.44-.25.23.44-.11.15-.06.49-.34-.05-.31-.34-.46-.05-.2-.04-.09-.33-.09-.33ZM.99,8.45h0c.01-.06.02-.1.03-.13,0,.03-.01.07-.02.13ZM.85,8.98c.03-.06.05-.14.07-.23.1,0,.19.05.17.1-.06-.05-.14.06-.24.12ZM3.01,8.57c.01.08-.04.08-.1.07,0-.03.01-.07,0-.13l-.03-.02s.09.05.12.08Z" style="fill: #202020; stroke-width: 0px;"/>
        <path d="M2.71,8.32s-.01-.02,0-.04c-.03,0-.05,0-.07.02l.07.06v-.04Z" style="fill: #202020; stroke-width: 0px;"/>
        <path d="M18.97,4.34h0s0-.02.01-.03c0,.01,0,.02-.01.03Z" style="fill: #202020; stroke-width: 0px;"/>
        <polygon points="1.25 16.43 1.31 16.4 1.24 16.38 1.25 16.43" style="fill: #202020; stroke-width: 0px;"/>
        <path d="M17.32,1.92s.01-.05,0-.08c0,.02,0,.05,0,.08Z" style="fill: #202020; stroke-width: 0px;"/>
        <path d="M16.24,1.3l-.12-.17c.05.08.09.13.12.17Z" style="fill: #202020; stroke-width: 0px;"/>
        <path d="M15.39.81s-.04.08-.06.11h0s.06-.11.06-.11Z" style="fill: #202020; stroke-width: 0px;"/>
        <path d="M23.64,12.89s0,.03,0,.04c.04.1.03.03,0-.04Z" style="fill: #202020; stroke-width: 0px;"/>
        <path d="M22.55,8.34c.06.03.13.06.18.1,0-.08-.02-.15-.18-.1Z" style="fill: #202020; stroke-width: 0px;"/>
        <polygon points="22.01 18 22.01 18 21.99 18.03 22.01 18" style="fill: #202020; stroke-width: 0px;"/>
        <path d="M22.8,8.64c.03-.09,0-.15-.07-.2,0,.07,0,.15.07.2Z" style="fill: #202020; stroke-width: 0px;"/>
        <path d="M11.2.04h-.05s0,.03,0,.04l.05-.04Z" style="fill: #202020; stroke-width: 0px;"/>
        <path d="M11.15.08l-.05.04s.05,0,.05-.04Z" style="fill: #202020; stroke-width: 0px;"/>
        <path d="M10.99.2l.11-.08s-.09,0-.11.08Z" style="fill: #202020; stroke-width: 0px;"/>
        <path d="M12.52.19l.02-.1s-.02.05-.02.1Z" style="fill: #202020; stroke-width: 0px;"/>
        <path d="M12.91.2c-.09-.03-.22-.25-.35-.2l-.02.08c.08-.14.27.28.37.12Z" style="fill: #202020; stroke-width: 0px;"/>
        <path d="M14.21,1.73l-.27-.15c.03.12.05.27-.08.27.28.4-.02-.25.35-.12Z" style="fill: #202020; stroke-width: 0px;"/>
        <path d="M15.02,2.15c-.16,0-.05.15-.08.2.13-.06.16-.08.08-.2Z" style="fill: #202020; stroke-width: 0px;"/>
        <path d="M20.16,6.03l-.22.14c.1.07.08-.06.22-.14Z" style="fill: #202020; stroke-width: 0px;"/>
        <polygon points="21.99 6.43 22.06 6.24 21.82 6.3 21.99 6.43" style="fill: #202020; stroke-width: 0px;"/>
        <polygon points="20.71 7.94 20.65 7.91 20.82 8.04 20.71 7.94" style="fill: #202020; stroke-width: 0px;"/>
        <path d="M19.23,17.6l.26.18c0-.1-.25-.34-.26-.18Z" style="fill: #202020; stroke-width: 0px;"/>
        <path d="M15.76,20.62c-.11-.12-.27-.16-.28.02.1-.02.25.04.28-.02Z" style="fill: #202020; stroke-width: 0px;"/>
        <polygon points="4.1 16.37 4.24 16.39 4.07 16.3 4.1 16.37" style="fill: #202020; stroke-width: 0px;"/>
      </g>
    </g>
  </g>
</svg>